<?xml version="1.0" standalone="no"?>
<!DOCTYPE svg PUBLIC "-//W3C//DTD SVG 20010904//EN"
 "http://www.w3.org/TR/2001/REC-SVG-20010904/DTD/svg10.dtd">
<svg version="1.0" xmlns="http://www.w3.org/2000/svg"
 width="2915.000000pt" height="2268.000000pt" viewBox="0 0 2915.000000 2268.000000"
 preserveAspectRatio="xMidYMid meet">

<g transform="translate(0.000000,2268.000000) scale(0.100000,-0.100000)"
fill="#000000" stroke="none">
<path d="M16080 21329 c-14 -4 -42 -7 -62 -8 -21 -1 -38 -5 -38 -11 0 -5 -3
-9 -7 -8 -5 0 -25 -6 -45 -15 -21 -10 -42 -17 -47 -17 -5 0 -16 -8 -23 -18 -7
-9 -30 -28 -50 -42 -21 -14 -43 -36 -50 -50 -7 -14 -23 -39 -35 -56 -13 -17
-23 -36 -23 -42 0 -7 -5 -12 -11 -12 -5 0 -7 -4 -4 -10 3 -5 3 -10 -2 -10 -4
0 -9 -18 -11 -41 -4 -55 -5 -63 -16 -71 -15 -10 -13 -231 1 -246 7 -7 13 -23
14 -35 1 -43 10 -70 40 -131 42 -86 75 -140 87 -144 6 -2 29 -28 52 -58 30
-38 49 -54 66 -54 12 0 26 -4 29 -10 3 -5 30 -10 60 -10 40 0 56 -4 63 -17 8
-13 26 -16 98 -16 76 -1 97 3 146 26 31 15 62 27 67 27 6 0 11 4 11 8 0 11 56
43 64 35 3 -3 6 -2 6 4 0 5 14 25 31 42 17 18 37 49 46 69 8 20 26 61 40 89
26 54 26 109 0 100 -7 -2 -29 2 -49 9 -22 8 -38 9 -38 4 0 -6 -6 -10 -13 -10
-17 0 -59 -44 -55 -57 3 -11 -45 -83 -74 -112 -58 -56 -100 -74 -162 -67 -28
3 -76 8 -107 10 -193 15 -318 274 -260 539 22 100 38 133 93 189 50 51 87 66
189 74 69 5 103 0 204 -31 11 -4 40 -34 65 -67 65 -87 86 -108 110 -108 28 0
90 41 90 60 0 34 -42 126 -72 158 -50 52 -140 110 -192 123 -25 6 -46 14 -46
18 0 8 -149 9 -180 0z"/>
<path d="M16935 21294 c-25 -19 -25 -27 -22 -720 2 -260 5 -334 15 -347 8 -9
32 -20 55 -24 40 -8 43 -7 66 26 23 35 23 41 23 240 -1 112 3 212 8 222 10 18
7 18 200 9 14 -1 79 2 145 5 174 9 165 22 171 -235 6 -217 14 -265 44 -275 32
-10 90 6 105 29 17 25 16 6 12 579 -3 338 -7 461 -16 470 -14 14 -118 14 -132
0 -5 -5 -11 -92 -13 -193 -3 -102 -8 -194 -11 -205 -6 -19 -14 -20 -153 -18
-279 5 -344 9 -353 24 -8 13 -15 144 -10 179 3 20 3 32 1 132 -3 85 -3 87 -31
98 -15 7 -32 9 -38 6 -6 -4 -19 -3 -28 3 -13 6 -24 5 -38 -5z"/>
<path d="M15418 20724 c-4 -3 -60 -8 -125 -11 -65 -3 -126 -6 -135 -6 -10 -1
-18 -4 -18 -8 0 -3 -39 -7 -87 -9 -91 -2 -194 -8 -203 -11 -10 -4 -57 -9 -131
-13 -41 -3 -87 -10 -101 -15 -14 -5 -28 -7 -32 -4 -10 10 -81 11 -93 1 -7 -5
-17 -7 -23 -3 -6 4 -16 2 -23 -3 -7 -5 -76 -12 -155 -16 -78 -3 -147 -8 -152
-11 -5 -3 -11 -1 -14 4 -3 4 -22 5 -43 0 -21 -4 -61 -13 -90 -19 -34 -8 -63
-8 -86 -2 -19 5 -41 6 -49 1 -18 -10 -134 -22 -205 -21 -29 0 -53 -4 -53 -8 0
-5 -17 -12 -37 -15 -51 -8 -103 -34 -97 -49 3 -7 -7 -25 -21 -40 -14 -15 -25
-39 -25 -55 0 -15 -13 -48 -30 -72 -16 -24 -30 -52 -30 -61 0 -25 -65 -164
-89 -189 -11 -12 -17 -27 -15 -34 3 -7 -6 -25 -20 -40 -14 -15 -26 -39 -26
-52 0 -13 -12 -40 -26 -59 -15 -19 -23 -34 -19 -34 4 0 2 -6 -4 -14 -7 -8 -13
-28 -13 -45 -1 -16 -7 -32 -14 -35 -8 -3 -11 -12 -8 -19 3 -8 -11 -36 -31 -62
-20 -26 -39 -64 -42 -84 -8 -45 -42 -113 -54 -106 -4 3 -11 -7 -15 -22 -12
-55 -38 -118 -53 -130 -11 -10 -12 -13 -1 -13 9 0 7 -7 -7 -22 -19 -21 -68
-120 -78 -158 0 -3 -15 -34 -33 -69 -34 -68 -43 -127 -17 -118 8 4 17 2 20 -3
4 -6 -1 -10 -9 -10 -9 0 -16 -7 -16 -15 0 -20 7 -19 36 4 14 11 20 22 14 26
-6 4 -6 11 3 21 28 33 32 40 35 52 1 7 13 30 25 50 13 20 29 56 36 80 6 24 19
46 27 49 7 3 11 9 8 14 -3 6 -2 15 4 22 5 7 19 39 32 72 13 33 38 78 55 100
22 27 32 49 30 67 -2 14 4 35 13 45 26 30 42 61 42 83 0 11 5 20 12 20 6 0 9
3 5 6 -3 3 5 26 19 51 13 25 24 52 24 59 0 7 20 52 45 101 25 48 45 95 45 105
0 9 3 18 8 20 4 2 18 24 31 51 13 26 28 47 32 47 5 0 9 11 9 25 0 28 29 107
43 116 5 3 8 8 7 10 -2 6 38 94 47 102 4 4 9 20 11 35 2 15 10 31 18 35 8 4
14 13 14 18 0 33 73 59 147 53 87 -7 96 -6 104 9 7 11 23 13 73 10 36 -3 80 0
98 6 32 11 130 18 338 26 170 6 251 14 287 27 27 10 38 10 54 0 16 -10 26 -10
53 3 24 11 74 17 182 20 144 3 198 10 219 25 6 5 34 4 64 -1 31 -5 61 -4 70 1
9 5 52 10 95 11 42 2 80 7 82 11 3 4 19 5 36 3 18 -2 37 0 44 6 7 5 16 9 20 8
5 -1 24 -1 42 0 26 1 32 5 32 24 0 39 -15 49 -77 53 -33 3 -62 2 -65 -2z
m-2155 -800 c4 -23 3 -24 -10 -11 -9 8 -12 20 -9 26 10 16 13 14 19 -15z"/>
<path d="M18285 20415 c-22 -8 -45 -21 -51 -30 -6 -8 -15 -15 -20 -15 -16 0
-84 -71 -84 -88 0 -9 -7 -26 -15 -36 -8 -11 -15 -37 -15 -57 0 -33 4 -40 46
-64 25 -15 46 -25 47 -23 1 1 7 12 14 23 7 11 22 40 33 64 11 24 23 41 26 38
3 -3 16 3 27 14 29 26 73 37 129 30 36 -5 56 -15 87 -44 57 -53 66 -122 23
-172 -25 -30 -94 -64 -138 -70 -46 -5 -74 -35 -74 -75 0 -42 24 -61 69 -54 57
9 111 -11 163 -60 53 -51 69 -92 63 -155 -7 -63 -64 -141 -105 -141 -10 0 -20
-4 -22 -10 -4 -11 -123 -15 -155 -5 -13 4 -23 11 -23 16 0 5 -6 6 -12 4 -13
-4 -59 57 -87 115 -16 33 -63 46 -106 30 -26 -10 -27 -13 -22 -58 4 -26 11
-63 17 -82 13 -48 121 -160 153 -160 14 0 40 -6 59 -14 46 -19 182 -15 223 8
17 9 35 16 40 16 6 0 35 24 66 53 63 59 98 134 107 225 5 53 -16 172 -30 172
-4 0 -8 6 -8 14 0 8 -24 35 -52 60 l-53 45 17 28 c38 61 70 140 75 184 10 97
-78 223 -183 263 -59 22 -181 28 -229 11z"/>
<path d="M12400 18683 c-25 -1 -76 -8 -115 -14 -38 -7 -72 -12 -75 -11 -3 0
-23 -9 -45 -21 -22 -11 -40 -18 -40 -16 0 2 -14 -6 -32 -19 -17 -12 -35 -22
-40 -22 -5 0 -16 -12 -23 -27 -8 -16 -27 -43 -44 -60 -16 -18 -27 -33 -22 -33
4 0 -5 -15 -19 -34 -27 -36 -30 -44 -50 -146 -7 -36 -16 -77 -20 -92 -4 -16
-3 -28 1 -28 5 0 10 -33 11 -72 1 -88 12 -158 24 -158 5 0 9 -5 9 -10 0 -6 9
-30 20 -52 11 -23 20 -48 20 -55 0 -7 3 -13 8 -13 4 0 27 -25 51 -55 24 -30
49 -55 56 -55 6 0 20 -8 31 -18 18 -16 113 -65 177 -91 15 -6 39 -11 52 -11
13 0 26 -4 29 -9 6 -9 19 -9 46 2 8 4 38 8 65 10 28 2 65 12 83 21 19 10 39
15 46 13 6 -3 20 1 31 9 10 8 25 14 33 14 7 0 19 6 26 13 7 6 29 26 49 44 37
32 107 123 107 139 0 5 9 27 21 48 11 21 18 47 16 57 -3 11 -1 22 4 25 5 3 9
11 7 17 -1 7 2 30 6 52 5 22 8 78 6 125 -1 47 -2 97 -2 112 -1 15 -5 25 -11
21 -5 -3 -7 0 -5 8 6 17 -54 130 -99 186 -18 23 -33 46 -33 52 0 5 -9 13 -20
16 -11 3 -20 11 -20 16 0 5 -4 9 -9 9 -6 0 -22 11 -37 25 -15 14 -32 25 -37
25 -12 0 -99 40 -107 49 -3 3 -14 6 -25 7 -11 0 -29 3 -40 5 -11 3 -40 4 -65
2z m80 -156 c65 -18 109 -44 153 -91 48 -50 90 -114 82 -125 -2 -5 2 -14 10
-21 8 -7 13 -15 11 -19 -3 -4 2 -38 10 -76 15 -69 11 -188 -6 -210 -4 -5 -8
-22 -8 -37 0 -15 -7 -38 -16 -50 -9 -13 -28 -39 -42 -58 -14 -19 -27 -34 -30
-32 -2 1 -13 -7 -24 -18 -18 -18 -39 -25 -62 -21 -5 0 -8 -6 -8 -14 0 -10 -10
-15 -27 -16 -16 0 -37 -3 -48 -5 -11 -3 -50 -5 -86 -6 -52 0 -79 6 -135 32
-154 70 -211 171 -214 385 -3 148 33 237 127 315 55 46 79 55 193 69 36 4 67
9 70 9 3 1 25 -4 50 -11z"/>
<path d="M15935 17538 c-59 -12 -89 -24 -131 -55 -17 -13 -36 -23 -42 -23 -6
0 -18 -9 -26 -21 -9 -13 -19 -18 -27 -13 -9 5 -10 2 -6 -9 4 -11 -2 -25 -17
-39 -69 -66 -102 -164 -114 -338 -8 -106 2 -168 41 -273 33 -85 110 -197 136
-197 6 0 16 -11 23 -25 6 -15 25 -29 47 -36 20 -6 43 -17 51 -24 19 -16 142
-45 195 -46 43 -1 167 26 200 44 11 6 42 22 70 35 27 14 79 55 115 91 69 69
86 74 123 40 12 -10 28 -19 37 -19 10 0 37 -16 61 -35 24 -19 48 -35 52 -35 5
0 34 -18 65 -39 32 -22 69 -43 84 -46 14 -4 34 -15 44 -26 9 -10 22 -19 28
-19 11 0 74 -31 155 -76 18 -11 44 -29 57 -41 13 -13 30 -23 38 -23 8 0 32
-15 53 -33 21 -17 78 -52 126 -76 48 -24 87 -48 87 -52 0 -5 9 -9 19 -9 11 0
33 -11 49 -25 17 -14 35 -25 41 -25 6 0 11 -4 11 -8 0 -4 14 -9 31 -10 20 -2
44 -14 62 -32 17 -17 38 -30 47 -30 8 0 27 -8 40 -17 37 -26 80 -51 126 -72
22 -10 53 -30 68 -44 15 -14 49 -33 77 -43 27 -10 49 -23 49 -29 0 -5 15 -16
33 -24 17 -8 46 -25 63 -38 17 -13 37 -23 45 -23 8 0 31 -11 51 -25 20 -14 41
-25 47 -25 6 0 21 -11 34 -26 l24 -25 99 37 c54 20 102 42 106 48 4 6 20 11
36 12 16 0 56 15 90 32 34 18 62 30 62 28 0 -3 19 4 43 14 23 11 54 20 68 20
17 0 33 9 43 25 9 14 24 25 34 25 27 0 179 58 210 79 26 19 98 43 115 38 5 -1
13 6 18 15 5 9 24 19 42 23 53 11 127 37 133 46 2 5 23 13 46 19 22 6 49 20
60 30 10 9 37 20 58 24 21 3 46 13 55 22 9 9 27 17 41 17 13 0 24 3 24 8 0 5
6 9 14 9 7 0 19 7 26 15 7 8 24 15 39 15 14 0 57 15 96 34 38 18 95 41 126 50
81 24 159 80 159 113 0 24 -2 25 -40 19 -23 -3 -49 -10 -58 -15 -9 -5 -30 -14
-47 -21 -16 -7 -38 -16 -47 -21 -10 -5 -23 -9 -29 -9 -7 0 -35 -11 -63 -25
-108 -51 -244 -109 -311 -130 -38 -13 -85 -30 -102 -39 -81 -40 -95 -46 -108
-46 -13 0 -87 -33 -147 -66 -14 -8 -34 -14 -45 -14 -10 0 -40 -11 -67 -25 -27
-14 -58 -25 -68 -25 -11 0 -61 -20 -111 -44 -51 -24 -103 -47 -117 -51 -14 -4
-35 -14 -48 -21 -27 -18 -144 -55 -151 -49 -2 3 -10 -4 -18 -15 -8 -11 -22
-20 -32 -20 -9 0 -21 -4 -26 -9 -23 -20 -165 -62 -192 -55 -41 9 -171 75 -190
96 -9 10 -21 18 -27 18 -15 0 -186 98 -219 126 -15 13 -46 28 -68 34 -22 6
-48 19 -57 28 -26 25 -69 52 -144 89 -37 18 -73 39 -80 47 -7 7 -43 26 -78 41
-36 16 -78 38 -95 50 -16 12 -55 35 -85 50 -30 15 -73 40 -95 55 -22 15 -76
46 -120 69 -44 24 -87 49 -95 56 -14 12 -65 40 -159 89 -20 10 -37 22 -39 27
-2 5 -8 9 -13 9 -5 0 -39 18 -75 40 -36 22 -69 40 -73 40 -4 0 -33 14 -65 31
l-57 31 2 61 c1 34 6 68 11 74 17 22 -4 307 -23 319 -5 3 -9 14 -9 25 0 38
-50 118 -115 182 -65 64 -113 90 -256 136 -41 13 -162 12 -234 -1z m160 -139
c80 -4 160 -38 218 -93 26 -25 47 -49 47 -54 0 -5 14 -38 32 -73 28 -56 33
-76 36 -163 4 -93 -7 -164 -30 -190 -4 -6 -8 -18 -8 -28 0 -50 -76 -128 -161
-168 -104 -48 -176 -51 -275 -14 -62 24 -85 39 -126 84 -28 30 -57 70 -65 90
-8 19 -21 49 -29 65 -22 47 -19 225 4 306 18 65 82 169 104 169 5 0 18 10 27
21 15 19 146 63 161 54 3 -2 32 -5 65 -6z"/>
<path d="M19565 17479 c-4 -6 -5 -12 -2 -15 7 -7 37 7 37 17 0 13 -27 11 -35
-2z"/>
<path d="M12853 17325 c-10 -28 5 -84 32 -119 14 -19 28 -46 31 -61 3 -15 11
-33 19 -41 7 -8 17 -24 21 -37 4 -12 20 -38 35 -58 16 -20 29 -42 29 -49 0 -6
9 -23 20 -37 11 -14 20 -36 20 -49 0 -13 4 -24 9 -24 11 0 51 -66 51 -85 0 -8
9 -19 21 -25 12 -7 18 -18 15 -26 -3 -8 -1 -14 4 -14 6 0 10 -6 10 -13 0 -7
16 -32 35 -54 26 -30 40 -40 55 -36 32 8 32 17 0 77 -17 30 -30 61 -30 66 0 6
-11 26 -24 43 -13 18 -28 47 -34 64 -6 18 -22 45 -37 60 -14 16 -30 44 -36 63
-6 19 -18 47 -27 61 -45 69 -78 114 -84 117 -5 2 -8 12 -8 22 0 10 -5 22 -10
25 -6 4 -8 15 -5 25 4 11 -1 20 -11 24 -9 4 -14 9 -10 13 7 7 -63 83 -76 83
-5 0 -11 -7 -15 -15z"/>
<path d="M20641 17154 c-93 -25 -111 -35 -211 -121 -49 -43 -114 -178 -125
-258 -11 -88 -13 -205 -3 -245 5 -19 10 -44 12 -55 13 -89 63 -180 138 -252
64 -61 161 -118 185 -109 7 3 20 -2 28 -11 26 -25 228 -14 275 15 19 12 42 22
51 22 9 0 19 7 23 15 3 9 14 19 25 23 45 17 132 154 151 239 9 39 0 47 -66 58
-46 7 -49 5 -112 -97 -53 -86 -149 -138 -252 -137 -69 1 -180 42 -207 78 -7 9
-27 34 -43 55 -46 60 -65 134 -64 256 1 127 15 209 43 249 12 16 21 32 21 35
0 8 51 59 80 78 14 10 36 18 51 18 14 0 30 5 37 12 17 17 198 13 226 -5 40
-27 103 -92 122 -127 36 -66 73 -76 131 -37 30 20 33 26 28 56 -15 81 -76 157
-174 212 -111 64 -218 73 -370 33z"/>
<path d="M21585 17153 c-11 -3 -23 -8 -28 -12 -7 -7 -33 -815 -31 -946 2 -74
20 -100 69 -100 31 0 45 6 60 25 18 23 20 40 21 228 0 204 0 204 25 223 21 18
34 19 124 13 55 -4 157 -7 227 -8 70 -1 131 -5 135 -10 4 -4 8 -105 7 -224 -1
-203 0 -218 18 -230 23 -17 78 -18 107 -3 20 11 21 20 23 164 2 84 3 215 3
292 0 77 2 236 4 353 2 117 1 215 -2 218 -14 14 -105 14 -116 0 -10 -12 -26
-254 -23 -356 2 -60 3 -60 -258 -60 -203 0 -239 2 -251 16 -9 11 -12 54 -10
164 3 192 -3 236 -34 244 -13 3 -29 8 -37 10 -7 2 -22 1 -33 -1z"/>
<path d="M15384 16652 c-21 -16 -59 -37 -84 -47 -25 -11 -63 -31 -85 -46 -23
-15 -58 -30 -79 -33 -21 -4 -50 -15 -63 -26 -14 -11 -30 -20 -35 -20 -4 0 -25
-11 -46 -24 -20 -14 -57 -32 -82 -42 -25 -9 -58 -27 -75 -39 -32 -23 -157 -85
-172 -85 -5 0 -25 -12 -44 -26 -19 -14 -68 -41 -109 -60 -41 -19 -84 -40 -95
-46 -11 -7 -51 -28 -90 -48 -38 -21 -83 -45 -100 -54 -16 -9 -47 -16 -67 -16
-31 0 -38 4 -38 19 0 11 -4 22 -9 26 -5 3 -12 19 -16 35 -4 17 -11 30 -16 30
-5 0 -9 6 -9 14 0 20 -87 94 -124 105 -17 5 -49 16 -71 24 -29 11 -89 15 -220
16 -99 1 -205 3 -235 6 -79 8 -94 -6 -100 -98 -3 -40 -1 -119 4 -176 6 -83 5
-105 -5 -112 -11 -7 -11 -9 -1 -9 10 0 12 -26 10 -112 -1 -62 -1 -199 0 -304
2 -217 6 -230 75 -241 31 -5 42 -2 63 18 l25 23 -5 179 c-4 136 -3 179 7 182
51 18 232 12 220 -8 -4 -6 -1 -7 8 -1 8 4 52 9 99 10 77 1 90 4 142 35 62 37
108 89 138 156 17 39 64 92 82 93 10 0 168 78 213 105 22 13 41 22 44 20 2 -3
17 5 33 16 16 12 34 22 41 23 18 4 57 23 102 50 22 14 60 30 85 37 25 7 52 18
61 26 8 7 21 13 27 13 7 0 12 3 12 8 0 4 17 16 38 27 20 10 47 28 59 38 12 11
27 16 33 12 7 -4 15 -4 19 1 11 16 72 55 90 59 31 6 85 31 164 79 43 25 85 46
93 46 28 0 100 39 137 74 27 25 37 43 37 65 0 26 -4 31 -23 31 -13 0 -41 -13
-63 -28z m-1854 -481 c0 -6 9 -9 20 -8 11 1 20 4 20 7 0 7 217 2 267 -6 43 -6
106 -69 122 -119 15 -49 9 -110 -16 -154 -13 -25 -31 -38 -68 -51 -77 -27
-146 -36 -195 -27 -25 4 -62 5 -83 2 -44 -6 -90 14 -109 48 -7 13 -13 72 -14
152 -2 123 -1 131 19 147 25 20 37 23 37 9z"/>
<path d="M22853 16350 c-17 -4 -58 -21 -90 -37 -63 -34 -105 -90 -122 -163
-11 -49 2 -68 52 -80 41 -9 33 -14 101 79 61 84 173 94 256 24 34 -29 40 -40
40 -73 0 -50 -27 -104 -63 -125 -15 -9 -58 -24 -95 -33 l-67 -17 0 -55 0 -55
50 -3 c78 -3 99 -8 103 -20 2 -7 11 -12 20 -12 45 -1 92 -72 92 -140 0 -117
-83 -200 -201 -200 -26 0 -61 5 -76 12 -34 14 -103 77 -103 94 0 7 -8 26 -17
43 -20 35 -47 40 -93 16 -37 -19 -40 -30 -23 -90 11 -36 31 -66 76 -113 89
-91 109 -102 210 -106 67 -3 87 -1 91 10 3 8 13 14 21 14 9 0 13 -4 10 -10 -3
-5 1 -10 9 -10 9 0 16 4 16 9 0 5 24 23 54 39 90 51 120 92 146 194 24 98 23
133 -10 220 -17 45 -27 57 -71 82 -46 25 -50 31 -44 55 3 14 20 40 36 57 33
34 47 74 50 142 1 36 -6 63 -31 112 -18 36 -39 68 -46 73 -7 4 -20 14 -28 22
-8 8 -21 15 -29 15 -7 0 -17 3 -21 7 -27 27 -134 40 -203 23z"/>
<path d="M18505 16030 c-3 -5 -1 -10 4 -10 6 0 11 5 11 10 0 6 -2 10 -4 10 -3
0 -8 -4 -11 -10z"/>
<path d="M13130 15781 c-62 -32 -83 -41 -96 -41 -8 0 -14 -4 -14 -8 0 -10 -99
-52 -122 -52 -9 0 -18 -3 -20 -7 -6 -14 -56 -54 -69 -57 -15 -2 -114 -47 -164
-73 -140 -75 -178 -94 -182 -89 -3 3 -18 -3 -33 -14 -16 -11 -32 -20 -38 -20
-5 0 -20 -8 -33 -18 -13 -10 -48 -29 -78 -41 -30 -13 -61 -30 -69 -38 -9 -9
-27 -13 -44 -11 -17 3 -28 0 -28 -7 0 -7 -37 -31 -82 -55 -46 -23 -89 -47 -96
-53 -8 -6 -23 -12 -35 -14 -11 -2 -40 -16 -64 -31 -34 -21 -43 -33 -43 -54 0
-28 6 -32 48 -28 29 2 117 43 160 75 18 13 40 21 48 18 7 -3 17 2 20 11 3 9
10 13 15 10 5 -3 16 1 23 9 8 8 39 22 68 31 29 10 58 23 63 29 6 7 27 21 48
31 20 11 37 23 37 27 0 4 18 10 40 14 23 4 54 18 69 31 16 13 39 24 50 24 12
0 24 7 27 15 4 8 11 15 18 15 14 0 81 33 101 50 8 7 15 10 15 6 0 -3 24 6 53
22 28 15 71 33 95 40 24 7 46 20 49 28 3 8 10 14 17 14 6 0 30 9 51 21 22 12
82 43 133 69 130 67 141 79 106 114 -17 18 -22 18 -44 7z"/>
<path d="M13110 15197 c-30 -13 -81 -37 -112 -55 -32 -17 -58 -29 -58 -27 0 2
-16 -7 -36 -20 -20 -14 -41 -25 -46 -25 -9 0 -166 -74 -228 -108 -73 -39 -114
-57 -128 -54 -9 2 -11 -1 -7 -9 5 -7 3 -10 -6 -7 -8 3 -25 -3 -38 -13 -13 -11
-30 -19 -38 -19 -8 0 -11 -4 -8 -10 3 -5 0 -10 -7 -10 -7 0 -53 -20 -101 -45
-49 -25 -97 -45 -107 -45 -9 0 -23 -7 -30 -15 -7 -8 -19 -15 -26 -15 -8 0 -14
-5 -14 -11 0 -5 -4 -7 -10 -4 -5 3 -10 2 -10 -4 0 -5 -26 -22 -57 -36 -32 -15
-72 -34 -89 -43 -35 -17 -62 -11 -70 15 -3 10 -10 27 -14 38 -5 11 -14 49 -21
85 -6 36 -18 72 -25 81 -8 8 -14 21 -14 28 0 23 -98 137 -135 157 -11 6 -29
15 -40 22 -43 23 -112 52 -126 52 -8 0 -20 5 -26 11 -14 14 -210 22 -218 9 -3
-6 -17 -7 -30 -4 -12 3 -26 1 -29 -5 -4 -6 -25 -15 -46 -21 -22 -6 -40 -15
-40 -21 0 -6 -5 -7 -10 -4 -6 4 -26 -7 -46 -24 -19 -17 -39 -31 -45 -31 -6 0
-8 -4 -5 -9 3 -5 -14 -27 -39 -50 -45 -42 -75 -88 -75 -116 0 -9 -7 -18 -15
-21 -8 -4 -13 -10 -10 -14 3 -5 1 -11 -5 -15 -13 -8 -13 -45 -1 -45 9 0 6 -44
-4 -60 -6 -10 -5 -211 2 -255 3 -22 12 -44 19 -48 8 -4 14 -15 14 -22 0 -8 5
-15 10 -15 6 0 10 -7 10 -16 0 -26 48 -104 64 -104 3 0 27 -22 54 -49 27 -27
57 -51 68 -55 10 -3 30 -16 44 -29 18 -17 44 -26 90 -32 112 -14 233 -14 260
0 14 7 40 16 59 20 55 12 173 90 200 132 13 21 33 51 43 66 21 31 68 160 68
187 0 23 38 70 56 70 8 0 34 9 56 20 23 11 47 20 52 20 6 1 29 9 51 20 22 11
45 19 52 20 6 0 13 3 15 8 6 14 64 48 113 66 28 10 69 29 92 42 23 13 46 24
52 24 5 0 22 11 37 25 15 14 33 25 41 25 21 0 158 67 173 85 7 8 17 15 22 15
10 0 67 23 100 41 10 5 23 9 29 9 7 0 17 6 23 14 6 7 38 23 71 35 33 13 87 40
120 61 33 22 79 49 102 61 48 26 72 65 51 85 -11 11 -23 9 -68 -9z m-1733
-227 c59 1 126 -16 163 -41 14 -9 34 -19 46 -23 44 -13 125 -150 107 -179 -3
-6 -1 -7 5 -3 17 11 22 -7 27 -114 4 -88 2 -109 -15 -147 -11 -25 -20 -54 -20
-64 0 -11 -4 -19 -10 -19 -5 0 -10 -6 -10 -13 0 -7 -20 -34 -45 -61 -25 -27
-45 -53 -45 -57 0 -3 -15 -12 -32 -19 -18 -7 -42 -16 -53 -20 -46 -19 -73 -24
-135 -21 -63 3 -141 28 -154 50 -4 6 -16 11 -27 11 -35 0 -156 148 -145 176 3
8 1 16 -3 19 -22 13 -30 191 -10 242 6 15 13 48 16 73 3 27 12 52 24 62 10 9
19 20 19 25 1 16 45 62 70 72 14 6 43 22 65 36 30 19 49 24 75 20 19 -3 58 -5
87 -5z"/>
<path d="M14088 15135 c-2 -19 2 -45 9 -57 7 -13 12 -31 13 -41 0 -10 9 -27
20 -39 11 -12 20 -34 20 -50 0 -18 5 -28 15 -28 8 0 12 -6 9 -13 -2 -7 7 -26
21 -43 28 -32 61 -94 57 -108 -2 -5 6 -15 18 -23 11 -8 20 -20 20 -26 0 -7 9
-18 20 -25 12 -7 18 -17 15 -22 -3 -6 -1 -10 4 -10 6 0 11 -6 11 -14 0 -8 11
-34 25 -57 14 -24 25 -52 25 -61 0 -10 4 -18 9 -18 12 0 64 -70 66 -89 3 -27
37 -101 46 -101 5 0 9 -6 9 -14 0 -8 7 -16 15 -20 8 -3 15 -14 15 -25 0 -11
13 -34 29 -52 16 -17 37 -50 46 -73 9 -22 23 -54 31 -69 8 -16 12 -32 10 -36
-3 -4 9 -15 25 -25 21 -13 28 -21 21 -28 -8 -8 -2 -20 19 -40 16 -16 29 -38
29 -48 0 -10 6 -25 13 -32 20 -21 49 -68 90 -148 22 -41 49 -93 60 -115 12
-21 29 -47 39 -57 23 -23 23 -65 -1 -104 -10 -17 -22 -46 -26 -64 -4 -18 -20
-53 -36 -78 -16 -25 -29 -51 -29 -56 0 -12 -10 -32 -53 -109 -15 -26 -26 -51
-25 -55 5 -14 -73 -142 -83 -137 -5 4 -9 -3 -9 -15 0 -11 -11 -42 -24 -68 -13
-26 -29 -64 -35 -84 -17 -50 -68 -155 -80 -162 -5 -4 -17 -30 -26 -59 -10 -28
-21 -56 -26 -61 -5 -6 -9 -15 -9 -22 0 -7 -27 -61 -60 -120 -33 -59 -60 -109
-60 -111 0 -2 -9 -25 -20 -51 -19 -44 -34 -74 -104 -206 -14 -27 -26 -56 -26
-65 0 -9 -16 -41 -34 -71 -35 -56 -136 -255 -136 -268 0 -4 -10 -23 -23 -42
-13 -19 -38 -71 -57 -115 -42 -98 -77 -158 -101 -174 -11 -6 -51 -16 -91 -21
-40 -6 -93 -17 -118 -25 -25 -7 -67 -16 -95 -20 -111 -13 -141 -18 -170 -30
-16 -7 -66 -18 -110 -24 -44 -7 -102 -17 -130 -22 -27 -5 -79 -14 -115 -19
-36 -5 -112 -18 -170 -29 -254 -48 -327 -60 -362 -61 -20 0 -40 -4 -43 -10 -3
-5 -19 -10 -35 -10 -16 0 -55 -6 -87 -14 -32 -8 -114 -24 -183 -36 -69 -12
-139 -26 -156 -31 -16 -5 -51 -10 -76 -11 -26 -1 -45 -5 -43 -8 2 -3 -4 -6
-13 -7 -121 -10 -186 -46 -160 -89 8 -12 218 7 263 26 17 6 53 13 80 15 71 5
128 16 141 27 7 5 27 8 45 7 19 -2 43 2 54 8 11 6 54 14 95 18 41 4 83 11 93
17 9 5 57 13 105 19 47 5 97 16 109 24 27 18 60 19 66 3 3 -10 9 -10 27 0 12
7 65 20 118 27 118 17 171 28 197 42 11 6 47 13 80 17 71 7 115 15 127 22 5 3
37 8 71 10 70 4 156 22 173 36 7 5 67 16 134 24 67 8 141 21 165 30 51 17 45
21 179 -112 44 -45 96 -89 114 -99 44 -22 92 -65 92 -82 0 -8 5 -11 10 -8 6 3
10 -1 10 -10 0 -9 9 -19 20 -22 11 -3 20 -11 20 -18 0 -8 10 -17 23 -21 27 -8
137 -113 137 -130 0 -7 14 -15 31 -19 17 -4 33 -15 36 -24 2 -9 19 -27 38 -39
43 -30 145 -129 145 -141 0 -5 12 -12 28 -16 31 -6 137 -104 147 -134 3 -12
12 -21 20 -21 8 0 16 -9 20 -19 3 -11 22 -27 43 -36 20 -10 51 -31 67 -47 178
-173 178 -174 207 -140 9 10 12 26 9 39 -5 18 -85 94 -230 219 -19 16 -76 67
-126 114 -51 47 -105 97 -121 112 -16 14 -34 32 -40 40 -7 7 -31 29 -55 48
-23 19 -53 45 -66 58 -13 12 -28 22 -33 22 -9 0 -76 66 -158 154 -23 25 -49
46 -58 46 -16 0 -174 153 -174 169 0 5 -12 11 -27 14 -16 4 -64 40 -108 82
l-79 75 12 47 c18 64 66 172 119 267 25 43 51 95 58 115 17 49 105 220 116
227 5 3 9 15 9 28 0 31 77 187 101 204 10 7 19 21 19 31 0 28 50 132 66 138 8
3 14 15 14 27 0 12 11 37 24 55 14 18 22 39 20 45 -3 7 6 35 20 62 14 27 30
61 36 74 6 14 22 43 35 65 25 42 68 128 142 285 25 52 55 111 66 130 12 19 23
42 24 52 4 27 70 160 135 271 15 27 28 56 28 66 0 9 6 25 13 35 12 17 19 17
73 6 32 -7 79 -12 103 -12 25 1 50 -3 55 -7 14 -11 98 -22 196 -25 70 -2 122
-11 145 -25 6 -3 28 -7 50 -8 22 -2 76 -5 120 -9 44 -3 115 -7 157 -8 54 -1
83 -7 95 -18 11 -10 45 -18 88 -22 39 -3 95 -8 125 -10 30 -3 100 -12 155 -21
55 -9 163 -22 240 -30 149 -15 275 -31 314 -40 60 -15 125 41 78 67 -32 17
-133 36 -162 31 -14 -3 -31 0 -39 6 -8 7 -50 14 -93 17 -43 2 -118 9 -168 15
-49 6 -112 12 -140 13 -27 2 -72 8 -100 14 -80 17 -191 31 -315 38 -63 4 -123
11 -132 16 -10 5 -49 10 -87 13 -39 2 -78 8 -88 13 -10 5 -61 12 -113 16 -52
4 -111 11 -132 17 -20 5 -69 11 -110 13 -40 2 -95 9 -123 16 -27 6 -77 13
-110 16 -33 2 -61 9 -63 14 -2 5 -16 23 -31 40 -15 18 -36 48 -45 69 -10 20
-22 43 -27 51 -5 8 -18 33 -29 55 -11 22 -25 49 -32 60 -30 46 -62 102 -105
183 -25 48 -56 101 -69 118 -13 17 -24 37 -24 44 0 17 -66 139 -90 165 -10 11
-39 60 -65 110 -26 49 -56 102 -66 117 -10 14 -19 30 -19 36 0 5 -12 26 -26
47 -14 21 -32 56 -41 79 -9 22 -26 52 -38 66 -12 14 -37 57 -55 95 -19 39 -46
86 -62 106 -15 20 -28 43 -28 51 0 7 -13 28 -30 46 -16 18 -30 38 -30 44 0 18
-34 68 -46 68 -7 0 -14 -16 -16 -35z"/>
<path d="M25081 14444 c-18 -8 -50 -28 -70 -44 -20 -16 -63 -39 -96 -51 -33
-12 -67 -28 -76 -35 -8 -8 -23 -14 -32 -14 -9 0 -19 -5 -23 -11 -3 -6 -23 -18
-43 -26 -20 -8 -48 -24 -63 -34 -14 -11 -32 -19 -40 -19 -13 -1 -30 -9 -205
-98 -44 -23 -85 -42 -90 -42 -4 0 -30 -16 -57 -35 -27 -19 -60 -35 -73 -35
-13 0 -23 -4 -23 -8 0 -4 -26 -21 -57 -37 -32 -15 -70 -36 -85 -47 -14 -10
-31 -18 -38 -18 -6 0 -23 -9 -37 -20 -14 -11 -32 -20 -40 -20 -8 0 -27 -8 -41
-18 -15 -10 -43 -25 -62 -32 -19 -8 -66 -32 -105 -54 -38 -21 -99 -54 -135
-73 -36 -19 -81 -42 -100 -53 -19 -10 -83 -42 -142 -70 -60 -28 -108 -55 -108
-60 0 -6 -9 -10 -20 -10 -11 0 -36 -10 -57 -22 -21 -12 -63 -35 -93 -51 -30
-16 -62 -35 -71 -43 -8 -8 -19 -14 -22 -14 -4 0 -29 -14 -56 -30 -60 -37 -71
-64 -70 -170 1 -41 -4 -87 -9 -102 -6 -14 -13 -137 -16 -273 -3 -136 -9 -251
-12 -256 -3 -6 -8 -101 -11 -212 -3 -111 -7 -220 -10 -242 -3 -22 -7 -147 -8
-277 -1 -149 -6 -247 -13 -265 -7 -17 -14 -125 -17 -278 -3 -137 -8 -289 -12
-336 -7 -79 -10 -88 -38 -111 -16 -14 -41 -29 -55 -33 -14 -4 -43 -20 -65 -35
-42 -28 -428 -220 -443 -220 -4 0 -29 -13 -54 -29 -25 -16 -56 -32 -69 -36
-13 -4 -37 -18 -54 -30 -16 -12 -73 -43 -125 -70 -52 -26 -108 -55 -125 -65
-16 -10 -43 -21 -60 -24 -16 -4 -39 -15 -50 -25 -23 -21 -85 -54 -135 -72 -19
-7 -42 -18 -50 -24 -8 -6 -40 -22 -70 -34 -30 -13 -62 -29 -70 -36 -22 -19
-270 -145 -286 -145 -7 0 -33 -13 -56 -29 -24 -16 -57 -33 -73 -37 -33 -8 -75
-30 -235 -121 -131 -75 -172 -83 -241 -48 -28 14 -60 32 -72 40 -12 8 -32 15
-45 15 -13 0 -38 7 -55 16 -84 44 -96 50 -189 93 -36 17 -72 31 -80 31 -7 0
-40 14 -71 30 -32 17 -63 30 -69 30 -5 0 -22 8 -36 19 -15 10 -38 22 -52 26
-31 10 -160 67 -223 100 -26 14 -55 25 -65 25 -9 1 -31 9 -49 18 -110 60 -137
72 -156 72 -12 0 -57 20 -101 45 -43 25 -82 45 -87 45 -5 0 -50 20 -100 45
-50 25 -97 45 -105 45 -8 0 -14 5 -14 10 0 6 -9 10 -19 10 -11 0 -32 6 -48 14
-183 92 -321 156 -335 156 -9 0 -20 5 -23 10 -3 6 -14 10 -23 10 -9 0 -28 7
-42 15 -52 29 -95 48 -108 46 -7 -1 -15 5 -18 13 -3 9 -10 13 -15 10 -6 -3
-16 -1 -24 6 -15 13 -64 208 -70 279 -2 25 -8 71 -14 101 -6 30 -13 73 -16 96
-3 22 -12 63 -20 90 -8 27 -15 69 -15 94 0 25 -5 61 -11 80 -9 31 -23 94 -33
157 -2 11 -7 30 -11 42 -3 11 -12 58 -20 103 -7 46 -18 101 -25 123 -16 54
-28 116 -40 200 -6 38 -14 83 -19 100 -6 16 -15 66 -22 110 -6 44 -16 86 -22
93 -14 18 -45 15 -56 -6 -11 -20 -4 -133 10 -172 4 -14 10 -36 13 -50 2 -14
12 -52 22 -85 10 -33 18 -80 19 -105 0 -25 4 -52 7 -60 4 -8 14 -51 23 -95 9
-44 21 -98 26 -120 11 -41 28 -143 49 -295 6 -47 16 -99 21 -116 5 -17 9 -44
9 -62 0 -17 4 -33 9 -36 8 -5 22 -71 56 -261 9 -49 20 -110 25 -135 7 -37 5
-50 -9 -69 -18 -26 -19 -27 -101 -66 -57 -27 -91 -46 -100 -55 -3 -3 -25 -14
-50 -25 -25 -11 -58 -29 -75 -40 -16 -12 -48 -30 -70 -40 -22 -9 -53 -27 -70
-40 -16 -12 -56 -34 -88 -48 -32 -14 -70 -35 -85 -45 -15 -11 -60 -37 -100
-58 -111 -59 -130 -70 -170 -96 -20 -13 -62 -34 -92 -46 -31 -12 -76 -36 -100
-52 -25 -17 -52 -30 -61 -30 -8 0 -30 -11 -49 -25 -19 -14 -40 -25 -47 -25 -7
0 -13 -5 -13 -11 0 -5 -17 -17 -37 -25 -21 -8 -47 -20 -58 -26 -89 -51 -148
-82 -195 -103 -30 -14 -62 -29 -70 -35 -8 -5 -37 -22 -64 -36 l-50 -26 -30 34
c-50 56 -64 75 -70 95 -7 22 -134 98 -220 131 -108 41 -299 23 -396 -38 -8 -6
-33 -19 -55 -30 -23 -11 -48 -33 -57 -48 -9 -15 -28 -40 -43 -57 -74 -85 -105
-188 -105 -352 0 -69 4 -113 10 -113 6 0 10 -14 10 -30 0 -17 5 -39 10 -50 6
-11 15 -29 20 -40 6 -11 10 -25 10 -31 0 -6 15 -29 33 -52 18 -23 38 -54 45
-69 6 -16 18 -28 25 -28 7 0 23 -13 35 -30 18 -23 30 -30 57 -30 19 0 35 -4
35 -10 0 -5 5 -10 12 -10 6 0 19 -7 28 -15 10 -9 45 -17 86 -20 38 -2 86 -8
107 -11 22 -4 37 -3 37 4 0 5 21 13 48 16 56 8 102 25 102 38 0 5 9 7 19 3 11
-3 22 -1 26 5 3 5 16 10 28 10 14 0 36 18 62 50 22 27 48 59 57 71 18 22 49
82 68 134 29 75 45 275 26 322 -16 40 1 71 57 103 28 16 65 32 81 36 16 3 59
25 95 49 37 23 84 48 106 55 22 7 53 22 70 34 16 11 59 36 95 54 36 19 72 40
81 48 8 8 22 14 29 14 7 0 21 7 31 16 15 14 34 21 62 23 5 1 6 5 2 10 -3 6 10
13 30 17 19 3 35 10 35 14 0 5 10 10 23 12 12 2 21 9 20 15 -1 6 15 18 36 27
22 8 42 20 46 26 3 5 18 10 33 10 16 0 40 12 59 30 18 17 43 30 57 30 14 0 37
11 52 25 15 14 35 25 44 25 10 0 20 6 23 14 3 7 21 16 40 20 20 4 49 19 65 34
16 15 46 36 66 47 21 11 46 28 56 38 11 9 34 20 52 24 18 3 69 28 113 55 100
62 102 63 147 82 20 9 40 21 43 26 10 17 69 11 110 -10 22 -11 45 -20 52 -20
7 0 13 -6 13 -14 0 -9 7 -12 20 -9 14 4 34 -5 60 -26 21 -17 48 -31 59 -31 11
0 22 -4 26 -9 3 -5 28 -17 56 -26 35 -12 49 -21 45 -31 -4 -10 4 -14 29 -14
18 0 36 -4 39 -9 3 -4 24 -11 46 -15 22 -3 40 -10 40 -15 0 -5 14 -12 31 -16
17 -4 47 -18 66 -31 20 -13 46 -24 59 -24 12 0 26 -5 29 -10 8 -13 104 -60
122 -60 7 0 13 -4 13 -10 0 -5 9 -10 20 -10 21 0 52 -15 83 -39 9 -8 17 -10
17 -5 0 5 4 3 9 -5 5 -8 18 -16 28 -17 10 -1 43 -12 73 -24 30 -11 64 -23 74
-25 11 -3 36 -18 56 -34 20 -16 52 -31 71 -33 19 -1 36 -5 39 -8 3 -3 23 -14
45 -25 22 -11 57 -30 77 -42 21 -13 47 -23 58 -23 11 0 20 -4 20 -9 0 -6 27
-18 60 -28 33 -9 60 -23 60 -29 0 -6 14 -11 30 -12 41 -1 72 -11 92 -31 33
-31 43 -37 61 -33 10 2 28 -3 40 -11 12 -8 37 -18 55 -22 18 -4 36 -13 39 -21
3 -8 13 -14 23 -14 10 0 23 -7 30 -15 7 -8 23 -15 37 -15 13 0 31 -7 39 -15 9
-8 27 -18 42 -21 15 -3 39 -12 54 -20 14 -8 33 -14 42 -14 9 0 16 -5 16 -12 0
-6 3 -8 6 -5 4 3 16 0 28 -8 20 -15 38 -66 55 -165 12 -63 26 -131 50 -231 11
-47 20 -94 20 -105 0 -10 9 -46 20 -78 12 -33 21 -80 21 -105 1 -25 7 -64 15
-86 8 -22 17 -60 21 -85 4 -25 11 -54 17 -65 10 -20 21 -95 33 -225 4 -36 13
-72 21 -81 8 -10 18 -48 23 -85 5 -38 14 -85 19 -104 23 -84 41 -181 36 -190
-3 -5 -1 -19 4 -32 29 -72 52 -173 53 -234 1 -43 7 -75 16 -86 8 -9 11 -22 7
-28 -4 -7 -2 -16 5 -20 16 -10 45 -134 70 -302 l20 -138 -22 -34 c-13 -19 -36
-42 -53 -52 -16 -10 -63 -51 -104 -91 -41 -40 -96 -87 -122 -105 -26 -18 -53
-43 -60 -55 -7 -13 -19 -25 -28 -28 -9 -3 -44 -31 -78 -62 -68 -64 -71 -66
-126 -107 -21 -16 -59 -49 -85 -73 -26 -23 -50 -43 -53 -43 -4 0 -26 -19 -51
-42 -24 -24 -60 -55 -79 -69 -19 -15 -55 -47 -81 -73 -26 -25 -52 -46 -57 -46
-6 0 -39 -28 -74 -62 -69 -69 -167 -155 -237 -208 -44 -34 -143 -121 -250
-221 -30 -28 -68 -58 -85 -66 -16 -8 -55 -40 -86 -71 -31 -32 -88 -86 -127
-121 -98 -87 -105 -105 -84 -206 10 -44 20 -84 23 -90 4 -5 10 -36 13 -67 4
-32 11 -58 15 -58 7 0 34 -175 33 -214 -1 -10 5 -28 13 -39 8 -12 12 -31 9
-43 -3 -12 -1 -25 5 -28 6 -4 11 -17 11 -30 0 -12 16 -83 35 -157 20 -74 40
-159 46 -189 6 -30 16 -80 22 -110 7 -30 12 -64 12 -75 0 -11 6 -36 12 -55 7
-19 14 -52 18 -73 3 -21 9 -46 14 -56 14 -25 43 -200 36 -211 -3 -6 -1 -10 5
-10 7 0 10 -14 8 -35 -1 -20 2 -39 8 -43 12 -8 51 -147 60 -217 3 -27 12 -66
21 -85 8 -19 17 -62 20 -95 2 -33 13 -90 24 -126 10 -36 26 -104 34 -150 9
-46 17 -88 19 -94 2 -5 9 -32 16 -58 13 -48 42 -78 55 -56 5 7 12 3 21 -9 9
-13 21 -18 34 -15 11 3 20 0 20 -6 0 -6 9 -11 20 -11 11 0 23 -6 26 -14 3 -9
16 -13 32 -10 24 3 76 -12 123 -36 9 -5 38 -12 65 -15 27 -4 55 -12 62 -17 6
-6 12 -7 12 -3 0 5 8 1 18 -8 10 -9 27 -14 38 -11 12 3 27 -2 38 -15 15 -16
22 -18 33 -10 10 9 13 8 13 -5 0 -12 6 -15 23 -11 15 4 28 1 36 -9 8 -9 26
-16 41 -16 15 0 44 -7 64 -15 20 -8 36 -12 36 -9 0 4 6 1 14 -5 8 -7 20 -11
28 -9 21 4 109 -43 102 -54 -5 -7 9 -8 41 -4 26 4 45 4 42 -1 -3 -5 15 -15 41
-22 26 -7 54 -15 62 -18 8 -4 21 -5 29 -4 7 1 24 -7 36 -19 13 -12 31 -21 41
-20 44 5 63 -1 69 -21 5 -16 10 -18 21 -8 9 7 18 8 27 2 6 -5 31 -15 55 -23
23 -7 42 -19 42 -26 0 -11 5 -11 25 -2 19 8 31 8 48 0 12 -7 31 -14 42 -15 26
-5 50 -14 102 -38 23 -11 59 -21 80 -22 20 -2 38 -8 41 -15 2 -7 8 -10 13 -7
4 3 20 -2 35 -12 15 -9 40 -16 56 -15 16 1 27 -2 24 -6 -3 -5 6 -7 19 -4 15 2
25 0 25 -7 0 -6 3 -10 8 -10 17 3 30 -2 52 -21 14 -12 31 -18 42 -14 11 3 31
-2 46 -12 15 -10 36 -19 47 -20 39 -5 120 -24 140 -33 11 -5 35 -15 53 -23 17
-7 32 -16 32 -19 0 -4 22 -9 50 -13 27 -4 52 -11 55 -16 11 -17 39 -11 68 15
15 14 27 30 27 34 0 5 16 12 35 15 19 4 35 11 35 15 0 14 57 81 63 74 4 -3 9
2 13 11 3 9 10 16 15 16 5 0 22 14 37 31 15 17 38 41 51 52 13 12 27 32 32 45
5 12 20 27 34 32 14 5 28 17 31 25 4 8 13 15 20 15 8 0 19 11 26 24 6 14 25
30 42 37 17 7 39 23 49 36 10 12 23 22 30 20 6 -1 13 12 17 28 3 17 8 28 12
25 9 -6 68 41 68 54 0 9 47 57 107 108 18 15 43 30 57 34 14 3 28 14 31 24 10
30 45 70 63 70 9 0 26 14 37 30 11 16 25 30 30 30 6 0 23 18 39 40 17 22 35
40 42 40 6 0 14 9 17 20 3 13 11 18 20 14 10 -4 21 4 30 23 8 15 29 41 45 56
17 16 46 44 66 63 20 19 46 38 60 43 13 5 36 29 52 53 25 39 83 88 103 88 12
0 96 92 104 114 5 13 14 17 31 14 20 -4 23 -1 20 17 -3 17 1 22 13 21 10 0 23
11 31 27 7 15 21 27 32 27 11 0 28 12 37 27 23 35 92 103 105 103 19 0 94 96
103 131 3 13 1 51 -4 84 -18 106 -40 215 -46 226 -11 16 -45 191 -45 227 0 18
-5 42 -11 53 -6 11 -14 41 -19 67 -15 76 -59 269 -86 377 -14 55 -32 139 -39
186 -7 48 -18 96 -24 107 -6 11 -13 44 -16 73 -2 30 -11 79 -19 109 -32 126
-78 326 -102 450 -8 41 -19 89 -24 105 -5 17 -14 51 -20 78 -5 26 -15 68 -21
95 -5 26 -12 56 -13 67 -2 11 -6 27 -9 35 -2 8 -10 42 -17 75 -14 66 -49 108
-99 118 -16 4 -53 18 -82 32 -29 14 -61 25 -71 25 -11 0 -32 7 -47 15 -16 8
-51 19 -77 25 -27 5 -69 19 -94 29 -25 11 -79 30 -120 42 -41 12 -82 26 -90
30 -8 4 -42 13 -75 20 -33 7 -78 21 -99 31 -22 10 -47 18 -56 18 -9 0 -21 5
-26 10 -6 6 -39 17 -75 24 -35 8 -93 24 -129 36 -85 29 -183 63 -245 85 -27
10 -68 20 -90 23 -22 2 -52 13 -67 24 -15 10 -45 22 -65 24 -21 3 -72 19 -113
34 -41 16 -95 32 -120 35 -39 5 -97 24 -175 55 -38 15 -80 28 -150 45 -38 10
-75 21 -80 26 -15 11 -150 59 -167 59 -9 0 -27 12 -42 26 -20 20 -26 37 -26
69 0 23 -3 45 -7 48 -3 4 -7 18 -9 32 -1 13 -16 80 -32 147 -17 68 -36 155
-43 193 -6 39 -18 79 -26 91 -12 20 -28 104 -40 224 -3 30 -9 60 -13 65 -10
13 -25 80 -55 255 -15 80 -32 165 -40 190 -7 25 -16 63 -19 85 -2 22 -12 72
-21 110 -9 39 -21 97 -26 130 -5 33 -18 87 -28 120 -11 33 -27 110 -36 170
-10 61 -26 142 -36 181 -11 38 -19 81 -19 95 0 13 -7 37 -15 52 -19 36 -22
141 -5 162 7 8 29 23 49 32 20 10 51 28 70 40 19 13 64 37 100 54 137 63 217
104 247 126 17 12 44 25 60 29 16 4 36 12 44 18 31 24 80 47 92 44 7 -2 45 18
83 43 61 40 114 71 177 101 10 4 29 8 42 8 14 0 29 6 33 13 10 15 49 37 67 37
7 0 19 7 26 16 18 20 80 47 108 45 12 0 22 4 22 9 0 6 12 16 28 22 15 7 38 20
51 30 13 10 30 18 39 18 8 0 41 18 74 40 33 22 62 40 64 40 5 0 145 64 192 88
18 9 47 32 64 50 18 17 39 32 48 32 17 0 80 28 90 39 11 12 47 29 80 36 19 4
46 16 59 26 13 11 31 19 41 19 9 0 28 11 42 24 13 14 37 28 53 32 17 4 37 13
46 21 19 16 68 8 76 -13 3 -8 14 -14 24 -14 10 0 45 -20 78 -45 32 -25 63 -45
68 -45 4 0 21 -11 37 -25 16 -14 34 -25 40 -25 7 0 19 -8 27 -17 9 -10 29 -26
45 -35 55 -33 69 -43 111 -80 24 -21 48 -38 54 -38 20 0 113 -51 166 -90 28
-22 75 -52 104 -68 30 -16 56 -37 59 -48 3 -11 12 -20 20 -20 28 -1 66 -22 96
-51 16 -16 45 -37 64 -46 34 -18 85 -51 125 -83 11 -8 37 -23 58 -32 20 -9 37
-20 37 -24 0 -5 7 -8 15 -8 8 0 35 -16 61 -35 25 -19 56 -38 70 -41 13 -3 24
-12 24 -19 0 -8 27 -27 60 -44 73 -37 126 -71 188 -118 26 -20 58 -41 72 -47
36 -16 114 -69 123 -83 4 -7 18 -13 30 -13 13 0 30 -8 39 -17 19 -20 24 -25
90 -71 50 -35 117 -62 153 -62 12 0 30 8 39 19 9 10 30 21 46 24 15 4 40 18
55 32 16 14 34 25 42 25 15 0 40 11 98 43 17 9 50 26 75 38 25 12 54 30 65 40
11 10 45 25 75 32 30 8 56 19 58 26 5 14 179 101 186 93 4 -3 6 -1 6 5 0 5 17
15 39 21 21 7 44 19 51 27 7 8 18 15 25 15 19 0 75 30 75 41 0 5 5 9 11 9 6 0
22 9 36 20 14 11 29 17 34 14 5 -3 21 2 36 10 16 8 35 17 43 20 8 4 29 15 45
26 41 27 91 50 110 50 8 0 15 4 15 10 0 11 73 50 95 50 8 0 15 4 15 9 0 5 10
13 23 17 39 12 111 48 129 64 9 8 47 24 83 34 37 11 78 30 91 43 13 12 30 23
39 23 8 0 15 5 15 11 0 6 9 9 19 6 13 -3 29 5 46 23 15 16 46 33 69 39 23 6
61 24 84 41 23 16 51 30 62 30 11 0 23 7 26 15 4 8 12 15 19 15 7 0 24 9 38
20 14 11 35 20 47 20 26 0 74 32 112 74 21 25 28 44 33 96 9 112 25 203 37
218 9 10 9 15 -1 22 -11 6 -11 15 -3 39 7 20 7 29 1 26 -10 -7 -3 276 8 305 8
19 22 360 26 605 2 105 7 197 13 205 5 8 12 107 16 220 4 113 10 257 13 320 4
63 8 144 10 180 1 36 8 110 15 164 13 108 7 186 -14 186 -8 0 -19 7 -26 15 -7
9 -29 23 -49 32 -20 9 -38 20 -41 23 -7 8 -141 95 -160 103 -8 4 -28 16 -45
27 -16 11 -40 25 -52 31 -13 7 -23 16 -23 21 0 4 -8 8 -18 8 -10 0 -34 15 -53
33 -19 18 -68 48 -109 67 -63 28 -128 67 -150 90 -9 10 -95 64 -101 65 -4 0
-44 25 -89 55 -92 62 -198 120 -217 120 -7 0 -20 11 -29 25 -9 14 -23 25 -30
25 -8 0 -14 4 -14 9 0 5 -10 13 -22 17 -13 4 -69 35 -125 70 -55 35 -106 64
-112 64 -6 0 -15 9 -21 20 -6 11 -16 20 -23 20 -7 0 -24 11 -39 25 -15 14 -31
25 -35 25 -4 0 -44 22 -88 48 -44 26 -113 66 -154 88 -41 21 -85 49 -99 61
-13 12 -34 25 -46 29 -11 4 -33 16 -47 28 -14 12 -52 35 -85 50 -32 16 -67 32
-76 37 -26 13 -78 10 -117 -7z m95 -79 c4 -10 13 -13 25 -10 13 4 30 -3 51
-20 18 -15 41 -31 52 -36 40 -18 91 -51 99 -65 4 -8 18 -14 30 -14 25 0 177
-96 177 -112 0 -5 8 -8 18 -7 21 4 71 -22 96 -50 11 -12 24 -21 29 -21 25 0
86 -35 90 -52 3 -10 13 -18 22 -18 9 0 42 -17 73 -37 65 -43 107 -67 140 -82
12 -6 25 -17 28 -25 3 -8 18 -18 34 -21 15 -3 38 -17 50 -30 13 -14 42 -34 64
-46 23 -12 45 -27 49 -35 4 -8 18 -14 31 -14 13 0 54 -20 90 -45 37 -25 72
-45 76 -45 5 0 14 -9 20 -20 6 -11 20 -20 30 -20 11 0 20 -5 20 -11 0 -5 5 -7
10 -4 6 4 34 -14 64 -39 29 -25 68 -53 87 -61 19 -8 42 -20 52 -25 9 -6 25
-14 35 -20 69 -38 125 -74 154 -98 18 -16 52 -39 75 -51 23 -11 44 -25 47 -30
4 -5 27 -19 54 -31 69 -32 77 -37 74 -50 -1 -7 3 -10 10 -7 16 6 85 -31 92
-49 3 -7 0 -48 -5 -91 -6 -43 -13 -152 -15 -243 -3 -91 -9 -178 -13 -195 -4
-16 -9 -62 -10 -101 -1 -39 -7 -154 -12 -255 -6 -101 -11 -256 -13 -344 -1
-88 -8 -187 -15 -220 -9 -41 -12 -107 -8 -206 3 -93 1 -153 -6 -165 -11 -20
-13 -48 -21 -276 -2 -81 -7 -152 -11 -158 -3 -5 -8 -53 -11 -106 -2 -53 -7
-101 -10 -106 -3 -4 -36 -23 -72 -41 -37 -17 -86 -46 -110 -64 -23 -18 -57
-36 -75 -41 -17 -6 -57 -24 -87 -40 -30 -17 -80 -43 -110 -57 -61 -29 -65 -31
-199 -104 -52 -28 -98 -51 -102 -51 -4 0 -43 -19 -86 -42 -88 -46 -97 -51
-208 -104 -44 -21 -91 -45 -105 -55 -14 -9 -42 -22 -62 -28 -21 -7 -38 -16
-38 -20 0 -4 -18 -13 -40 -20 -21 -6 -42 -15 -44 -20 -3 -5 -45 -28 -93 -51
-151 -72 -283 -140 -321 -164 -20 -12 -68 -35 -107 -51 -38 -15 -86 -36 -105
-46 -19 -11 -39 -19 -43 -19 -5 0 -26 -13 -46 -28 -40 -32 -101 -62 -124 -62
-8 0 -26 -9 -40 -20 -34 -27 -46 -25 -98 10 -24 16 -47 30 -51 30 -4 0 -43 25
-87 55 -44 30 -86 55 -93 55 -6 0 -22 10 -34 21 -13 12 -32 27 -42 33 -11 6
-58 38 -106 71 -47 33 -99 67 -114 75 -15 9 -66 40 -112 70 -47 30 -97 60
-111 67 -15 6 -44 26 -65 45 -48 42 -89 68 -106 68 -8 0 -65 36 -128 80 -63
43 -140 94 -170 111 -30 18 -67 43 -82 55 -15 12 -53 35 -84 51 -32 15 -73 43
-93 62 -20 19 -49 42 -66 51 -16 10 -51 29 -76 43 -26 14 -75 46 -110 71 -35
25 -95 63 -134 85 -91 52 -167 110 -182 141 -14 28 -10 151 7 195 6 15 12 127
15 248 2 122 8 299 14 394 6 95 8 179 5 188 -4 8 -1 66 5 129 7 62 14 212 15
333 2 121 7 227 12 234 5 8 9 113 9 234 1 121 6 267 13 325 6 58 11 113 12
123 0 10 10 21 23 26 12 5 31 18 41 30 11 11 26 21 34 21 8 0 35 11 61 24 64
33 117 56 130 56 6 0 24 14 41 30 17 17 35 28 39 25 5 -2 14 2 21 10 7 8 25
15 41 15 16 0 29 5 29 10 0 6 12 15 28 22 68 28 92 39 97 49 8 11 137 78 162
82 30 6 76 31 100 55 12 12 29 22 38 22 9 0 23 7 31 15 9 8 26 15 40 15 13 0
32 7 42 16 21 19 133 86 194 116 10 4 29 8 42 8 14 0 32 8 42 17 10 10 25 22
34 28 10 5 41 24 71 42 36 22 61 30 76 27 16 -4 25 -1 29 10 3 9 10 14 15 11
4 -3 13 3 18 13 6 11 39 33 73 50 35 16 140 67 233 112 94 44 187 90 208 101
21 12 44 18 52 15 8 -3 16 3 20 14 4 12 26 25 58 36 29 9 56 20 62 25 14 13
25 11 31 -6z m-9326 -4503 c0 -4 16 -6 35 -4 19 2 41 0 48 -6 6 -5 28 -12 47
-16 20 -3 42 -15 50 -27 8 -11 28 -27 43 -35 15 -8 25 -18 23 -23 -3 -4 9 -25
26 -45 17 -21 35 -57 40 -79 27 -120 17 -280 -22 -372 -21 -47 -95 -113 -165
-145 -74 -33 -178 -38 -237 -11 -26 11 -57 21 -70 21 -15 0 -43 22 -83 63 -52
55 -63 73 -81 137 -35 121 -31 228 13 346 27 73 48 101 90 120 21 10 40 20 43
23 9 10 74 33 130 46 69 17 70 17 70 7z m5196 -2807 c4 -10 14 -13 29 -9 17 4
27 0 36 -15 10 -14 17 -17 26 -10 8 7 22 6 45 -4 52 -23 71 -29 102 -33 16 -3
37 -11 46 -19 9 -8 20 -12 24 -8 4 4 4 -1 0 -10 -5 -15 -3 -17 20 -11 16 4 26
2 26 -4 0 -11 42 -19 128 -25 24 -2 47 -8 50 -14 4 -6 23 -14 42 -18 19 -4 44
-14 55 -21 11 -7 40 -16 65 -19 25 -4 56 -15 70 -25 14 -9 46 -22 70 -28 25
-5 54 -13 65 -17 16 -5 17 -5 5 4 -8 6 -10 11 -5 11 6 0 21 -7 33 -16 12 -8
27 -12 32 -9 5 3 20 -1 32 -10 13 -8 40 -20 61 -26 20 -5 37 -14 37 -19 0 -6
17 -10 38 -10 53 0 87 -11 70 -21 -9 -6 -3 -9 17 -9 36 0 122 -25 141 -41 7
-6 18 -8 23 -5 5 4 24 -2 42 -13 18 -11 36 -18 40 -15 10 6 165 -44 208 -67
20 -10 43 -19 53 -19 9 0 37 -9 61 -19 25 -11 47 -17 50 -15 6 7 88 -16 104
-29 7 -5 21 -6 33 -2 11 4 20 2 20 -4 0 -6 11 -11 25 -11 14 0 28 -6 31 -14 4
-9 27 -17 61 -22 35 -4 63 -14 75 -26 17 -17 22 -18 29 -7 8 11 12 11 23 -4
10 -12 21 -17 34 -13 12 4 22 1 25 -8 3 -8 21 -19 40 -25 30 -10 35 -17 45
-62 7 -28 12 -62 12 -77 0 -15 9 -56 19 -92 11 -36 24 -94 30 -130 5 -36 17
-99 26 -140 8 -41 19 -98 24 -127 6 -29 14 -60 19 -70 5 -10 12 -45 16 -77 4
-33 11 -64 15 -70 5 -6 15 -40 21 -76 7 -36 20 -94 30 -130 10 -36 22 -90 25
-120 4 -30 13 -68 20 -85 6 -16 17 -59 23 -95 33 -186 45 -246 52 -255 4 -5
10 -28 14 -50 4 -22 18 -87 31 -145 28 -120 55 -259 61 -309 3 -19 9 -42 15
-52 5 -11 14 -47 19 -82 5 -34 14 -80 21 -103 7 -22 9 -51 6 -65 -7 -23 -114
-143 -135 -150 -6 -2 -72 -62 -148 -134 -75 -71 -146 -137 -158 -145 -12 -8
-62 -54 -110 -102 -49 -49 -91 -88 -94 -88 -3 0 -48 -44 -101 -97 -53 -53
-126 -123 -162 -154 -36 -31 -99 -90 -140 -131 -41 -40 -137 -129 -213 -198
-239 -215 -326 -299 -326 -315 0 -6 -24 -26 -52 -44 -29 -19 -85 -66 -125
-105 -79 -78 -125 -102 -158 -82 -11 7 -40 18 -65 25 -25 7 -52 16 -60 19 -8
3 -18 6 -22 6 -3 1 -10 4 -14 8 -4 5 -20 8 -36 8 -16 0 -31 6 -34 15 -4 9 -17
15 -33 14 -24 -1 -120 29 -131 41 -3 3 -14 7 -25 7 -23 2 -178 53 -185 62 -5
6 -19 9 -82 18 -21 3 -38 9 -38 14 0 5 -3 8 -7 7 -12 -4 -107 24 -117 33 -6 5
-19 9 -30 9 -12 0 -30 7 -40 15 -11 8 -32 15 -47 15 -15 0 -31 5 -34 10 -3 5
-14 10 -24 10 -10 0 -32 7 -47 15 -16 8 -38 15 -50 15 -11 0 -24 4 -30 8 -11
10 -132 51 -172 58 -14 3 -31 9 -37 13 -17 13 -239 84 -259 83 -10 0 -41 10
-69 24 -28 13 -59 24 -69 24 -10 0 -18 5 -18 10 0 6 -10 8 -24 4 -14 -3 -39 2
-62 13 -22 11 -59 25 -84 32 -115 32 -156 47 -166 60 -6 7 -30 15 -54 17 -24
1 -46 7 -49 12 -5 8 -36 21 -63 28 -5 1 -10 3 -13 4 -3 1 -9 4 -15 5 -5 1 -11
3 -12 4 -2 2 -13 4 -26 7 -34 6 -72 34 -72 53 0 9 -9 54 -19 101 -11 47 -27
123 -36 170 -9 47 -20 99 -26 116 -5 17 -9 40 -9 52 0 11 -5 33 -11 49 -7 15
-13 35 -14 43 -7 54 -18 106 -24 115 -4 6 -13 37 -20 70 -7 33 -16 74 -22 91
-5 17 -9 41 -9 54 0 13 -9 65 -20 115 -12 49 -25 110 -30 135 -21 111 -34 166
-42 175 -4 5 -8 25 -8 45 -1 19 -7 53 -15 75 -9 22 -24 87 -35 145 -11 58 -25
119 -30 136 -6 17 -14 62 -19 101 -5 38 -13 78 -19 89 -10 18 -43 164 -56 244
-3 19 -10 64 -16 99 -6 36 -15 69 -20 76 -5 6 -11 34 -13 63 -4 44 0 56 21 82
14 16 31 30 37 30 7 0 16 10 19 23 3 12 27 37 53 54 27 18 77 60 113 94 36 34
84 75 108 92 23 17 42 34 42 38 0 5 17 17 38 28 20 11 46 34 57 51 11 17 39
44 62 59 53 36 113 88 113 99 0 14 56 63 63 55 4 -3 7 -1 7 5 0 7 7 12 15 12
8 0 15 6 15 13 0 8 24 32 53 56 28 23 82 70 119 104 41 37 76 62 90 62 15 0
24 7 26 20 4 28 105 119 163 147 27 13 48 30 49 39 0 21 20 39 42 39 10 0 23
11 29 24 6 13 25 30 43 38 17 9 43 32 56 52 14 20 33 39 42 42 10 3 32 20 51
37 18 18 64 59 102 92 37 33 76 68 86 79 10 10 23 15 30 11 7 -5 10 -4 6 2 -9
14 30 63 49 63 7 0 26 14 41 30 15 17 33 28 40 26 7 -3 21 6 30 19 20 27 51
33 59 10z"/>
<path d="M24985 13904 c-66 -35 -140 -73 -165 -84 -119 -55 -179 -87 -260
-139 -14 -9 -48 -23 -76 -32 -28 -9 -71 -29 -95 -46 -24 -17 -54 -33 -66 -37
-11 -4 -27 -13 -33 -21 -7 -8 -19 -15 -26 -15 -18 0 -121 -48 -129 -59 -3 -5
-18 -12 -34 -16 -16 -3 -57 -25 -92 -48 -36 -23 -85 -51 -109 -61 -79 -33
-123 -55 -185 -91 -33 -20 -80 -44 -105 -55 -25 -11 -53 -24 -62 -30 -32 -18
-121 -49 -128 -45 -4 3 -10 -4 -13 -15 -3 -11 -13 -20 -24 -20 -10 0 -35 -15
-57 -33 -30 -26 -37 -38 -32 -54 6 -18 12 -20 49 -16 23 3 51 10 62 15 34 15
67 36 74 46 10 15 196 102 219 102 12 0 22 4 22 10 0 10 81 60 98 60 6 0 41
18 77 40 36 22 69 40 74 40 5 0 14 7 21 15 7 8 23 15 35 15 12 0 33 8 46 19
13 10 30 16 38 13 8 -3 11 0 7 7 -4 6 1 14 11 17 10 3 30 12 45 20 14 8 35 14
46 14 11 0 22 7 26 15 3 8 16 15 28 15 26 0 89 33 193 100 47 30 127 68 160
76 17 3 41 16 55 28 14 12 61 39 105 60 44 21 88 42 98 48 11 5 21 7 24 4 3
-3 29 13 59 35 29 21 58 39 64 39 5 0 10 5 10 10 0 6 5 10 12 10 7 0 31 7 54
16 34 13 43 22 46 45 5 31 -7 50 -31 48 -9 -1 -70 -30 -136 -65z"/>
<path d="M26878 12853 c-10 -12 -16 -42 -17 -91 -1 -40 -8 -90 -16 -111 -9
-26 -13 -91 -14 -204 0 -91 -5 -184 -11 -207 -6 -22 -10 -69 -10 -103 1 -34
-1 -118 -4 -187 -2 -69 -6 -192 -8 -275 -2 -91 -11 -188 -22 -245 -15 -77 -16
-101 -6 -127 15 -43 11 -189 -7 -231 -17 -42 -20 -190 -4 -220 13 -24 33 -29
48 -9 11 13 21 158 29 422 3 93 10 177 15 186 5 10 9 98 9 196 0 125 4 183 12
191 8 8 12 66 12 189 1 98 4 183 9 189 4 7 9 76 11 155 2 79 10 216 17 305 7
88 10 168 6 177 -8 22 -30 22 -49 0z"/>
<path d="M23210 11029 c-9 -15 -7 -26 10 -49 22 -31 100 -90 119 -90 11 0 52
-20 61 -30 3 -3 26 -19 52 -35 26 -16 52 -40 58 -53 6 -14 16 -22 24 -19 15 6
121 -44 117 -56 -1 -5 24 -22 56 -39 32 -16 69 -40 83 -52 26 -23 62 -48 114
-80 17 -10 41 -27 55 -37 13 -10 32 -19 42 -19 11 0 19 -4 19 -8 0 -4 24 -21
53 -36 51 -28 77 -46 140 -97 18 -14 56 -37 85 -50 28 -13 52 -27 52 -31 0 -5
7 -8 15 -8 9 0 18 -7 21 -15 4 -8 14 -15 24 -15 10 0 31 -13 47 -29 16 -16 56
-41 88 -56 33 -15 80 -44 105 -65 25 -20 63 -46 86 -58 22 -11 46 -27 53 -36
7 -8 25 -18 41 -21 15 -3 41 -19 56 -35 34 -35 45 -36 68 -11 16 17 16 22 4
40 -18 25 -58 57 -107 85 -21 11 -64 39 -96 61 -32 22 -70 46 -84 53 -32 16
-33 17 -122 76 -40 26 -80 51 -88 54 -9 3 -25 13 -36 23 -36 31 -248 169 -261
169 -6 0 -14 6 -17 14 -3 8 -30 25 -60 39 -30 14 -69 39 -87 55 -17 17 -48 39
-68 50 -104 55 -155 85 -244 143 -53 35 -136 90 -185 122 -48 32 -106 71 -128
87 -38 28 -99 60 -137 73 -12 4 -21 -1 -28 -14z"/>
<path d="M20995 6585 c-43 -41 -83 -75 -87 -75 -9 0 -119 -97 -202 -177 -27
-27 -62 -55 -79 -64 -31 -16 -92 -71 -241 -214 -77 -74 -158 -145 -236 -205
-18 -14 -59 -50 -92 -80 -33 -30 -71 -61 -84 -68 -14 -7 -48 -38 -77 -69 -28
-30 -65 -64 -81 -73 -33 -21 -123 -101 -237 -212 -68 -66 -79 -81 -73 -102 8
-32 35 -57 41 -38 3 6 11 12 19 12 8 0 14 8 14 18 0 23 127 135 145 128 9 -3
15 0 15 9 0 15 101 105 119 105 6 0 11 5 11 11 0 15 90 94 104 91 7 -1 18 9
26 22 7 14 22 27 34 30 11 4 38 28 58 55 21 27 52 55 70 64 18 9 55 41 82 71
27 31 54 56 60 56 6 0 46 33 87 73 42 41 94 84 117 97 23 13 44 31 47 39 3 9
22 31 42 49 109 94 136 116 129 105 -4 -8 -1 -13 9 -13 11 0 15 6 11 18 -4 12
9 30 46 62 29 25 55 45 58 46 3 0 34 28 70 62 35 34 72 62 82 62 9 0 20 9 23
21 4 11 16 24 28 29 27 10 72 91 64 114 -12 30 -42 16 -122 -59z"/>
<path d="M23024 6015 c-9 -24 14 -195 29 -219 8 -11 17 -45 20 -75 4 -29 10
-58 15 -65 5 -6 14 -42 21 -81 7 -38 19 -90 26 -115 8 -25 26 -106 41 -180 14
-74 31 -146 36 -160 11 -28 24 -88 44 -200 7 -41 17 -95 23 -120 5 -25 15 -76
22 -115 7 -38 21 -97 32 -130 10 -33 27 -105 37 -160 10 -55 25 -118 34 -140
8 -22 15 -54 16 -72 0 -17 5 -35 10 -38 6 -3 10 -23 10 -43 1 -54 31 -115 57
-117 12 -1 25 5 27 12 6 14 -6 104 -24 183 -6 25 -15 73 -20 107 -5 34 -16 81
-24 105 -27 80 -37 123 -51 217 -8 52 -19 99 -23 105 -9 12 -24 72 -42 171 -7
33 -19 80 -27 105 -8 25 -19 68 -23 95 -5 28 -13 82 -20 120 -17 106 -52 258
-66 280 -6 11 -15 43 -18 72 -4 28 -14 69 -22 89 -9 21 -14 50 -12 66 3 16 1
31 -4 34 -4 3 -8 18 -8 33 0 16 -6 47 -14 69 -8 22 -17 61 -19 87 -7 67 -66
124 -83 80z"/>
<path d="M19602 4860 c0 -14 2 -19 5 -12 2 6 2 18 0 25 -3 6 -5 1 -5 -13z"/>
<path d="M19962 3267 c-7 -8 -10 -27 -6 -46 6 -28 10 -32 30 -27 17 5 23 2 22
-6 -2 -8 6 -12 20 -11 12 2 22 -2 22 -7 0 -6 16 -10 35 -10 24 0 35 -5 35 -15
0 -8 8 -15 19 -15 10 0 30 -9 44 -21 20 -15 35 -18 61 -14 46 9 79 -2 73 -25
-4 -15 0 -16 27 -10 37 8 56 3 56 -15 0 -13 16 -16 88 -15 12 0 22 -4 22 -9 0
-5 14 -11 31 -15 17 -3 28 -10 25 -15 -3 -5 3 -7 14 -4 11 3 36 -4 55 -16 21
-12 47 -19 66 -17 16 2 27 1 25 -2 -9 -8 43 -32 75 -34 16 -1 29 -8 29 -14 0
-9 11 -11 33 -8 21 3 46 -2 72 -15 21 -12 54 -21 72 -21 18 0 33 -4 33 -10 0
-5 14 -10 30 -10 17 0 30 -5 30 -13 0 -13 57 -35 108 -41 18 -2 39 -11 45 -20
7 -10 23 -15 37 -14 14 2 24 -2 23 -8 -1 -7 15 -9 47 -6 40 4 50 1 61 -15 8
-13 19 -18 35 -15 13 2 30 -1 38 -7 11 -9 15 -9 19 1 4 8 6 9 6 1 1 -6 24 -17
51 -24 28 -7 50 -19 50 -26 0 -18 15 -16 31 3 11 14 13 14 21 -1 6 -10 17 -14
29 -10 13 4 19 2 19 -9 0 -9 9 -16 20 -16 11 0 20 -4 20 -9 0 -4 12 -7 27 -5
15 1 32 0 38 -4 19 -13 80 -32 101 -32 29 0 48 24 41 52 -6 22 -56 48 -97 50
-8 0 -19 4 -25 8 -5 4 -35 13 -65 20 -30 7 -64 19 -75 26 -11 8 -29 14 -40 14
-12 0 -25 4 -31 8 -5 5 -43 19 -84 31 -41 13 -84 27 -95 31 -11 5 -36 12 -55
15 -46 8 -121 32 -194 62 -32 13 -75 26 -95 29 -20 3 -47 12 -61 19 -14 6 -56
20 -95 30 -38 10 -82 24 -97 32 -15 7 -36 13 -48 13 -11 0 -20 4 -20 9 0 5
-25 12 -56 16 -44 5 -54 10 -50 22 5 12 1 14 -20 10 -26 -5 -130 26 -148 44
-6 5 -19 9 -30 9 -12 1 -39 8 -61 16 -22 9 -47 17 -55 18 -8 2 -35 12 -60 23
-25 11 -57 23 -73 27 -15 3 -36 14 -47 24 -12 10 -33 15 -51 14 -16 -2 -37 2
-45 9 -8 7 -25 13 -37 14 -12 2 -36 6 -53 10 -21 5 -34 2 -42 -8z"/>
<path d="M17192 13667 c-9 -10 -14 -138 -18 -458 -7 -614 -12 -565 56 -570 48
-3 75 7 87 34 5 13 8 157 7 345 -2 273 0 324 12 329 18 7 51 -22 71 -61 8 -16
26 -41 39 -55 13 -14 31 -41 40 -59 8 -18 37 -62 65 -98 27 -36 59 -84 72
-106 31 -57 37 -66 85 -130 23 -31 42 -62 42 -67 0 -14 54 -93 80 -116 16 -14
36 -20 70 -19 57 1 76 13 84 57 3 18 6 238 7 489 2 360 0 460 -11 473 -14 17
-115 22 -125 5 -4 -6 -8 -161 -9 -346 -2 -199 -7 -339 -13 -345 -12 -12 -55
30 -77 74 -8 18 -29 51 -47 73 -37 47 -179 258 -196 294 -7 14 -33 52 -58 85
-25 33 -54 76 -64 95 -32 58 -60 77 -127 85 -46 5 -63 3 -72 -8z"/>
<path d="M15219 13102 c-9 -9 -25 -38 -37 -63 -11 -26 -25 -50 -31 -53 -6 -4
-11 -17 -11 -29 0 -13 -7 -33 -16 -46 -32 -45 -95 -166 -121 -231 -15 -36 -36
-81 -49 -100 -13 -19 -26 -47 -29 -62 -4 -15 -13 -32 -21 -39 -8 -6 -14 -19
-14 -28 0 -14 -74 -169 -118 -246 -6 -11 -48 -96 -92 -190 -45 -93 -93 -192
-107 -218 -13 -26 -46 -89 -72 -140 -26 -51 -52 -101 -57 -112 -30 -57 -34
-66 -34 -78 0 -17 -61 -139 -74 -149 -6 -4 -5 -16 2 -32 16 -36 54 -35 69 2 6
15 18 38 26 52 8 14 23 45 33 70 11 24 28 56 40 70 11 14 26 41 34 60 7 19 30
67 50 105 21 39 41 81 45 95 13 43 233 479 265 523 16 23 31 56 33 72 2 17 7
37 12 45 15 24 84 154 96 180 6 14 19 44 29 68 37 82 64 137 81 159 9 13 20
38 23 57 4 19 24 68 45 108 21 40 39 75 39 78 0 3 6 18 12 34 6 16 9 35 6 43
-7 18 -38 15 -57 -5z"/>
<path d="M17225 12379 c-9 -14 -4 -18 33 -25 25 -5 32 -3 32 9 0 24 -52 38
-65 16z"/>
<path d="M17415 12350 c-6 -10 1 -95 9 -108 2 -4 7 -36 10 -72 8 -71 36 -202
46 -210 4 -3 12 -39 18 -80 6 -41 15 -100 21 -130 5 -30 17 -94 26 -142 9 -49
13 -92 10 -98 -3 -5 -1 -19 6 -31 6 -12 18 -62 26 -112 8 -50 18 -96 23 -102
9 -12 26 -125 36 -240 3 -44 12 -93 19 -110 7 -16 16 -42 19 -57 8 -35 49 -39
66 -7 12 22 -3 183 -19 204 -11 14 -31 97 -25 106 2 4 -1 20 -6 34 -6 15 -13
46 -16 69 -13 103 -38 247 -54 304 -6 23 -8 47 -5 53 4 5 1 17 -6 25 -7 8 -16
39 -20 67 -5 29 -17 93 -29 142 -11 50 -25 124 -30 165 -15 107 -49 259 -68
302 -16 36 -44 50 -57 28z"/>
<path d="M18370 11985 c0 -8 2 -15 4 -15 2 0 6 7 10 15 3 8 1 15 -4 15 -6 0
-10 -7 -10 -15z"/>
<path d="M18206 11931 c-3 -5 1 -11 9 -15 8 -3 15 -1 15 4 0 13 -18 22 -24 11z"/>
<path d="M9560 11255 c-11 -6 -18 -14 -14 -18 4 -4 2 -37 -5 -74 -8 -45 -9
-97 -4 -153 4 -47 5 -116 2 -155 -4 -41 -2 -73 3 -76 6 -4 6 -14 -1 -27 -14
-26 -14 -62 -1 -62 15 0 12 -56 -4 -69 -15 -12 -13 -49 4 -118 6 -23 5 -33 -3
-33 -8 0 -8 -3 -2 -8 6 -4 10 -55 10 -122 0 -132 4 -140 83 -132 68 7 74 26
68 240 -3 97 -3 186 0 198 11 44 46 51 234 49 180 -2 254 -14 277 -43 9 -12
11 -36 7 -80 -4 -41 -2 -67 5 -76 7 -8 8 -17 3 -20 -5 -3 -8 -52 -8 -110 1
-57 -2 -102 -6 -99 -16 9 -7 -23 10 -38 25 -22 82 -41 82 -28 0 6 5 7 10 4 6
-3 10 -1 10 4 0 6 7 11 15 11 9 0 19 10 24 23 13 36 11 985 -3 996 -6 5 -32
12 -57 16 -56 8 -70 -5 -77 -75 -2 -28 -8 -50 -13 -50 -5 0 -9 -7 -9 -15 0 -8
5 -15 11 -15 11 0 8 -145 -4 -215 -10 -51 -19 -53 -255 -50 -119 1 -227 3
-240 4 l-23 1 1 197 c1 180 0 197 -17 207 -29 17 -90 23 -113 11z"/>
<path d="M11537 11237 c-15 -15 -17 -39 -17 -218 1 -110 -3 -206 -8 -212 -5
-7 -6 -41 -2 -77 4 -36 3 -66 -1 -68 -4 -2 -6 -9 -4 -15 10 -30 12 -76 4 -88
-7 -11 -9 -9 -9 6 0 15 -2 17 -9 6 -15 -24 -33 0 -228 288 -35 51 -63 96 -63
98 0 3 -15 24 -32 46 -18 23 -37 49 -43 59 -5 9 -36 56 -68 103 l-59 85 -73 0
c-58 0 -74 -3 -79 -16 -4 -9 -6 -61 -5 -116 1 -58 -3 -104 -10 -112 -7 -8 -8
-23 -1 -46 13 -44 13 -502 0 -535 -7 -17 -7 -24 0 -20 6 4 10 -26 10 -83 0
-84 1 -91 25 -106 35 -23 87 -21 109 6 18 20 19 45 20 359 1 185 4 341 8 345
4 4 19 -5 32 -19 14 -15 20 -27 14 -27 -6 0 6 -17 28 -38 21 -21 48 -56 59
-77 11 -22 27 -47 36 -55 25 -24 69 -93 64 -101 -3 -4 2 -9 10 -12 7 -3 22
-21 31 -39 9 -18 24 -40 33 -49 37 -37 52 -62 47 -75 -3 -8 1 -14 9 -14 8 0
15 -5 15 -10 0 -6 16 -33 35 -60 19 -27 35 -53 35 -57 1 -5 18 -27 38 -50 33
-37 43 -42 90 -45 33 -3 52 -1 52 6 0 6 9 17 19 23 18 11 20 24 20 140 0 280
-1 479 -2 508 0 17 1 86 2 155 4 168 3 183 -13 205 -18 25 -94 27 -119 2z"/>
<path d="M9531 11214 c0 -11 3 -14 6 -6 3 7 2 16 -1 19 -3 4 -6 -2 -5 -13z"/>
<path d="M11008 9893 c-10 -2 -18 -14 -18 -26 0 -12 -9 -39 -19 -59 -11 -19
-18 -38 -15 -40 2 -3 -2 -11 -10 -17 -8 -7 -13 -18 -10 -25 3 -8 -10 -53 -29
-102 -19 -49 -40 -111 -47 -139 -7 -27 -19 -60 -26 -72 -8 -12 -14 -30 -14
-39 0 -9 -6 -28 -14 -42 -18 -34 -46 -132 -46 -160 0 -11 -4 -24 -10 -27 -5
-3 -10 -13 -10 -22 0 -8 -9 -27 -19 -42 -11 -14 -22 -48 -26 -74 -4 -26 -11
-47 -16 -47 -4 0 -11 -16 -15 -35 -3 -19 -11 -35 -16 -35 -5 0 -8 -8 -6 -17 1
-10 -2 -25 -7 -33 -13 -20 -35 -81 -35 -98 0 -7 -9 -25 -20 -40 -11 -15 -21
-44 -22 -65 -1 -20 -5 -37 -10 -37 -5 0 -8 -6 -6 -12 7 -38 -32 -145 -56 -154
-7 -3 -13 -18 -13 -35 0 -20 -10 -41 -32 -63 l-33 -34 -267 0 c-146 -1 -300 3
-341 8 -41 6 -329 12 -640 15 -311 3 -641 9 -735 14 -93 5 -254 8 -357 7 -178
-2 -189 -4 -211 -24 -13 -12 -27 -19 -30 -15 -4 3 -7 1 -7 -6 0 -7 -11 -27
-25 -45 -14 -18 -25 -38 -25 -44 0 -6 -10 -23 -23 -39 -12 -15 -35 -53 -49
-84 -15 -31 -43 -75 -62 -98 -19 -22 -40 -57 -46 -76 -7 -21 -16 -32 -23 -28
-6 4 -8 1 -5 -9 4 -8 -2 -20 -13 -27 -11 -6 -17 -16 -14 -22 7 -10 -15 -49
-47 -83 -10 -11 -23 -35 -30 -53 -7 -18 -16 -33 -20 -33 -4 0 -8 -9 -8 -20 0
-12 -11 -31 -25 -44 -14 -13 -30 -45 -38 -74 -7 -28 -22 -59 -33 -69 -12 -10
-19 -25 -16 -33 3 -8 1 -12 -3 -8 -17 16 -69 -59 -79 -114 -4 -21 -15 -42 -26
-48 -10 -5 -22 -20 -25 -32 -4 -13 -18 -37 -31 -54 -13 -17 -20 -34 -17 -38 4
-4 -10 -22 -30 -41 -20 -19 -37 -44 -37 -54 0 -27 -96 -191 -120 -206 -6 -3
-10 -14 -10 -25 0 -10 -7 -20 -15 -24 -8 -3 -15 -12 -15 -21 0 -8 -4 -15 -10
-15 -5 0 -10 -14 -10 -31 0 -16 -4 -28 -9 -25 -5 3 -11 -5 -15 -17 -5 -21 -15
-36 -56 -84 -6 -7 -8 -13 -5 -13 4 0 -4 -18 -16 -40 -12 -21 -26 -37 -30 -35
-4 3 -10 -13 -14 -35 -6 -37 -20 -59 -67 -111 -10 -10 -15 -25 -12 -34 4 -10
0 -15 -10 -15 -9 0 -20 -8 -23 -17 -4 -10 -11 -21 -16 -24 -5 -4 -9 -18 -9
-33 0 -14 -3 -24 -7 -22 -3 2 -15 -2 -26 -10 -13 -10 -15 -14 -4 -14 21 -1 -9
-17 -47 -26 -37 -8 -443 -11 -446 -3 -5 11 -163 19 -371 20 -108 1 -200 5
-203 10 -3 5 -9 7 -13 4 -18 -10 -731 -7 -731 3 0 9 -30 10 -371 16 l-286 5
-42 -27 c-22 -14 -41 -32 -41 -38 0 -15 -35 -54 -48 -54 -10 0 -25 -37 -23
-58 1 -7 -5 -15 -13 -18 -9 -3 -14 -9 -11 -13 2 -4 -9 -23 -25 -42 -16 -19
-29 -39 -30 -46 0 -6 -5 -13 -10 -15 -6 -2 -12 -13 -13 -25 0 -12 -4 -20 -8
-17 -4 2 -12 -10 -18 -26 -5 -17 -17 -33 -26 -37 -12 -4 -13 -8 -4 -13 9 -6 5
-15 -14 -34 -15 -14 -32 -43 -40 -64 -18 -50 -47 -101 -76 -130 -13 -14 -24
-31 -25 -38 -1 -6 -7 -18 -13 -25 -5 -8 -18 -33 -29 -56 -10 -24 -24 -43 -31
-43 -8 0 -13 -6 -12 -12 4 -34 -2 -47 -18 -41 -11 4 -14 3 -9 -5 4 -7 3 -12
-1 -12 -5 0 -9 -8 -10 -18 -2 -19 -39 -83 -67 -114 -9 -10 -16 -20 -16 -23 0
-3 0 -12 0 -20 0 -8 -5 -14 -10 -13 -6 2 -20 -12 -31 -29 -13 -21 -16 -33 -9
-33 7 0 -7 -22 -29 -49 -26 -31 -37 -51 -29 -53 8 -3 4 -13 -13 -30 -15 -14
-29 -33 -32 -42 -4 -9 -11 -16 -17 -16 -6 0 -8 -5 -5 -11 4 -6 -3 -21 -16 -35
-12 -13 -17 -24 -10 -24 9 0 9 -3 -1 -14 -7 -8 -17 -13 -23 -13 -5 1 -10 -8
-10 -19 -1 -12 -7 -30 -15 -39 -8 -10 -14 -27 -12 -38 2 -10 -1 -17 -6 -13
-19 12 -48 -42 -54 -101 -1 -7 -4 -13 -8 -13 -12 0 -104 -131 -105 -149 -1
-10 -11 -32 -23 -48 -12 -17 -22 -36 -22 -42 0 -15 -17 -14 -23 2 -3 6 -5 -1
-4 -18 0 -38 -11 -65 -29 -65 -8 0 -14 -9 -14 -21 0 -11 -4 -17 -10 -14 -6 3
-7 -1 -4 -9 3 -9 1 -16 -5 -16 -6 0 -11 -9 -11 -20 0 -12 -5 -26 -10 -33 -41
-48 -49 -60 -45 -67 3 -4 -1 -10 -9 -13 -17 -7 -16 -58 3 -81 7 -9 10 -16 6
-16 -5 0 2 -9 14 -19 12 -10 20 -25 19 -32 -2 -8 3 -13 10 -11 6 1 11 -1 11
-5 -4 -24 4 -45 23 -63 16 -14 18 -20 7 -21 -8 0 -3 -5 10 -10 20 -8 21 -12
10 -25 -7 -8 -8 -14 -3 -12 14 5 57 -39 50 -51 -4 -5 2 -15 13 -20 10 -6 22
-22 25 -37 4 -15 14 -33 21 -41 8 -8 15 -23 15 -34 0 -10 7 -19 15 -19 8 0 17
-11 21 -25 3 -14 16 -32 28 -40 11 -9 19 -18 18 -20 -7 -11 17 -65 29 -65 7 0
9 -9 6 -21 -3 -12 -3 -18 0 -15 10 10 33 -15 33 -35 0 -11 4 -19 10 -19 5 0 6
-8 3 -17 -5 -13 -2 -15 11 -10 11 4 15 3 11 -4 -9 -14 14 -66 32 -73 8 -4 13
-13 10 -20 -3 -8 1 -20 9 -26 8 -7 14 -21 14 -31 0 -11 5 -19 10 -19 6 0 10
-8 8 -17 -2 -10 3 -17 10 -15 6 1 12 -6 12 -15 0 -10 11 -31 25 -47 13 -16 27
-37 30 -47 7 -22 21 -25 29 -6 3 6 2 -1 -1 -17 -5 -22 -3 -27 7 -21 8 5 11 4
6 -3 -9 -15 14 -62 31 -62 8 0 11 -4 8 -10 -3 -5 -1 -10 5 -10 6 0 9 -4 5 -9
-3 -5 -1 -12 5 -16 5 -3 10 -14 10 -24 0 -10 7 -24 15 -31 8 -7 15 -23 15 -36
0 -13 6 -24 13 -24 8 0 19 -22 27 -54 11 -46 17 -55 40 -60 18 -3 30 -13 33
-28 4 -13 7 -24 7 -25 1 -1 7 -15 15 -30 8 -14 12 -30 9 -35 -3 -4 2 -5 11 -2
9 4 15 3 13 -2 -3 -15 14 -57 30 -73 10 -10 11 -16 3 -19 -6 -2 -1 -12 14 -24
14 -11 25 -25 25 -31 0 -22 45 -106 58 -107 12 0 16 -12 13 -37 -1 -7 3 -13 8
-13 6 0 8 -7 5 -15 -4 -10 0 -15 12 -16 11 0 14 -3 7 -6 -7 -2 -13 -9 -13 -14
0 -4 7 -6 15 -3 11 4 16 -5 21 -35 4 -23 10 -42 15 -42 5 -1 13 -2 17 -3 5 0
16 -9 25 -18 12 -12 14 -18 4 -21 -9 -4 -9 -6 1 -6 6 -1 12 -12 12 -25 0 -13
7 -27 16 -30 13 -5 14 -9 4 -21 -10 -12 -9 -15 4 -15 13 0 16 -5 11 -20 -4
-14 -2 -18 7 -15 8 3 19 -10 30 -36 10 -22 21 -38 26 -35 5 3 20 -5 34 -18 13
-13 39 -27 58 -30 71 -12 120 -14 120 -5 0 5 11 9 25 9 14 0 25 -4 25 -8 0 -4
30 -8 68 -9 37 -1 108 -4 157 -7 159 -10 459 -12 479 -3 12 6 21 5 25 -2 9
-13 287 -21 300 -8 5 5 27 5 54 -1 30 -6 49 -6 55 0 6 6 16 7 22 3 12 -8 102
-18 147 -17 13 0 21 -4 18 -9 -3 -4 5 -5 17 -2 13 3 64 7 113 9 50 2 99 6 108
10 10 3 21 4 24 0 4 -3 -2 -6 -13 -6 -16 -1 -16 -2 -4 -9 9 -5 39 -5 70 0 30
5 71 7 90 4 26 -3 30 -2 15 5 -33 15 3 11 40 -4 19 -8 35 -12 35 -8 0 4 36 8
80 8 44 1 77 -2 74 -7 -5 -9 0 -10 76 -11 99 -1 131 2 125 12 -3 6 3 10 14 10
10 0 22 -6 24 -12 4 -10 8 -9 17 2 8 10 13 11 16 4 10 -24 84 15 84 43 0 7 7
13 15 13 9 0 20 11 25 25 5 13 19 34 30 45 12 12 28 37 36 56 8 19 19 34 24
34 6 0 10 11 10 25 0 15 12 38 31 56 24 23 28 33 19 44 -9 10 -6 15 10 20 13
4 23 18 27 36 3 16 14 35 24 42 10 7 21 25 24 40 4 15 10 25 15 22 4 -2 13 14
19 37 7 23 24 55 37 72 14 17 25 35 24 39 0 4 6 15 15 23 8 9 15 24 15 33 0
10 7 24 15 31 8 7 15 17 15 22 0 5 11 21 25 35 13 15 27 40 30 55 4 15 11 28
17 28 6 0 8 3 5 6 -7 7 17 44 51 79 10 12 22 33 26 48 3 15 13 27 22 27 8 0
13 4 10 9 -4 5 10 33 29 62 19 30 35 57 35 61 0 5 7 8 15 8 9 0 15 9 15 24 0
13 7 29 15 36 8 7 15 18 15 26 0 18 15 52 45 99 13 22 31 55 40 73 8 18 19 31
23 28 5 -3 7 5 5 17 -3 15 10 40 41 81 25 32 46 63 46 68 0 6 7 7 16 4 8 -3
13 -2 9 3 -3 5 6 30 19 55 13 25 22 46 19 46 -4 0 2 9 13 21 10 12 17 22 15
23 -5 1 10 50 18 56 25 20 74 103 84 140 0 3 9 13 18 24 10 10 15 24 12 32 -3
8 0 14 6 14 6 0 16 10 21 23 14 32 33 59 53 78 10 9 17 21 15 25 -1 5 1 18 5
30 9 25 -13 82 -42 108 -12 11 -21 25 -21 33 0 20 -30 77 -46 86 -8 4 -14 17
-14 27 0 10 -8 24 -17 29 -10 6 -15 11 -10 11 12 0 -18 52 -52 88 -33 35 -42
53 -16 32 10 -8 15 -9 15 -2 0 6 -6 15 -13 19 -17 11 -77 119 -70 127 3 3 -5
10 -19 15 -17 6 -27 20 -31 41 -4 17 -11 29 -17 25 -9 -6 -14 8 -11 28 1 4 -6
10 -14 13 -9 4 -15 19 -15 35 0 19 -5 29 -15 29 -8 0 -16 5 -16 10 -1 6 -2 14
-3 19 0 5 -4 13 -8 17 -5 4 -8 16 -8 26 0 10 -5 17 -10 15 -11 -2 -16 6 -84
137 -27 53 -52 96 -56 96 -3 0 -14 16 -24 35 -11 19 -23 35 -28 35 -4 0 -7 3
-6 8 1 4 -6 22 -15 40 -10 18 -16 40 -15 49 2 9 -3 18 -11 21 -9 3 -11 0 -7
-9 4 -8 -1 -4 -11 9 -10 13 -25 44 -32 68 -8 25 -22 51 -32 57 -11 7 -19 20
-19 30 0 25 -29 67 -47 67 -9 0 -13 6 -10 14 3 8 -1 20 -9 26 -8 7 -14 19 -14
26 0 8 -3 14 -8 14 -7 0 -32 48 -31 63 0 4 -7 15 -16 23 -8 9 -15 24 -15 35 0
10 -4 19 -9 19 -5 0 -17 20 -27 44 -10 24 -22 42 -26 40 -4 -3 -17 15 -29 38
-12 24 -32 57 -45 74 -13 17 -22 33 -19 36 3 3 -1 11 -10 18 -8 7 -15 20 -15
30 0 10 -7 23 -15 30 -9 7 -13 15 -10 18 3 3 -4 12 -16 20 -13 9 -19 21 -16
33 3 11 1 17 -4 13 -5 -3 -9 0 -9 7 0 7 -8 22 -18 33 -26 29 -45 101 -33 123
5 10 23 35 40 57 17 21 28 42 25 47 -3 5 0 9 6 9 6 0 15 10 20 23 6 12 18 36
29 52 18 31 21 38 21 55 0 5 13 24 28 42 41 48 84 127 78 143 -2 7 2 16 10 19
8 3 14 12 14 21 0 8 4 15 10 15 5 0 9 3 8 8 -2 10 33 70 63 106 25 31 43 65
41 78 -1 3 5 12 13 18 8 7 15 18 15 24 0 7 9 22 21 34 11 12 17 26 14 32 -6 9
59 116 119 195 20 25 36 54 36 64 0 10 19 44 42 77 24 32 42 61 41 64 -1 3 8
21 19 40 33 53 67 123 68 137 0 7 9 18 20 25 11 7 20 21 20 31 0 10 11 30 25
45 14 15 25 32 25 38 0 6 8 22 19 35 19 25 21 29 21 53 0 7 10 17 23 21 14 4
18 8 9 12 -10 4 -6 13 13 33 15 16 28 32 28 37 1 4 5 7 9 6 5 -2 8 6 8 17 0
11 5 20 10 20 6 0 10 6 10 14 0 8 12 28 26 45 14 17 23 38 20 46 -3 8 -1 15 4
15 6 0 10 7 10 15 0 8 4 15 10 15 5 0 7 6 4 14 -3 8 3 22 14 32 11 11 36 52
57 92 40 80 67 103 117 103 18 0 62 1 98 2 146 3 463 -8 478 -17 9 -6 754 -15
1245 -15 42 0 59 -4 63 -15 3 -9 11 -13 18 -9 15 11 456 11 462 1 3 -5 10 -6
15 -2 6 3 31 7 57 8 107 7 115 11 150 85 18 37 32 73 32 80 0 7 8 25 18 39 10
15 19 40 20 56 1 17 7 33 13 37 7 4 9 11 6 16 -3 5 1 22 9 37 7 16 14 33 14
40 0 6 7 24 16 41 8 16 20 52 26 80 6 27 17 62 24 77 8 15 14 34 14 44 0 9 12
39 26 68 15 28 28 65 31 82 2 18 16 58 29 90 14 33 31 71 37 87 6 15 15 27 19
27 4 0 8 8 8 19 0 10 7 35 15 54 8 20 17 53 19 74 5 37 63 218 90 278 8 17 17
41 21 55 4 14 12 30 17 37 5 7 7 17 3 23 -3 5 -1 10 6 10 7 0 9 3 6 6 -3 4 -1
16 5 28 7 11 11 24 10 28 -1 4 5 22 13 41 8 19 11 37 8 41 -7 7 -38 6 -65 -1z
m-6748 -3782 c47 0 132 1 190 2 58 0 125 -2 150 -6 25 -4 75 -7 113 -8 45 -1
72 -6 82 -16 8 -8 15 -11 15 -6 0 4 50 8 110 8 61 0 110 4 110 9 0 4 8 5 18 0
9 -4 166 -9 347 -10 182 -1 365 -4 408 -7 42 -2 77 0 77 4 0 13 17 11 32 -4 9
-9 40 -13 98 -13 47 1 95 -4 108 -10 15 -8 35 -9 55 -4 39 10 197 19 197 11 0
-3 45 -6 100 -5 79 1 100 -2 100 -13 0 -7 7 -16 15 -19 8 -4 15 -14 15 -24 0
-11 5 -22 10 -25 6 -4 8 -11 5 -16 -4 -5 -1 -9 4 -9 6 0 11 -6 11 -14 0 -8 7
-16 15 -20 8 -3 15 -12 15 -21 0 -8 5 -15 11 -15 5 0 7 -4 4 -10 -3 -5 0 -10
7 -10 18 0 45 -49 43 -77 -2 -14 2 -20 11 -16 8 3 14 0 14 -7 0 -6 7 -18 15
-26 8 -9 15 -24 15 -35 0 -10 5 -19 10 -19 6 0 10 -6 10 -14 0 -8 6 -21 13
-28 7 -7 19 -27 26 -45 7 -17 20 -34 28 -37 9 -4 13 -13 9 -22 -4 -9 -2 -13 5
-8 7 4 9 0 5 -14 -4 -11 -2 -23 4 -27 6 -3 8 -11 5 -16 -4 -5 1 -9 9 -9 9 0
18 -11 22 -25 3 -14 12 -25 20 -25 13 0 19 -13 14 -35 -1 -5 5 -14 12 -20 7
-5 23 -30 36 -55 12 -25 36 -60 53 -78 16 -17 28 -36 25 -40 -2 -4 2 -16 10
-27 8 -10 14 -15 14 -11 0 4 5 4 11 0 8 -5 8 -9 -1 -14 -16 -10 -4 -81 13 -77
7 1 11 -4 9 -11 -1 -6 1 -11 5 -11 20 3 26 -2 13 -11 -11 -7 -11 -10 -2 -10 7
0 10 -4 7 -10 -3 -5 1 -10 9 -10 9 0 16 -7 16 -15 0 -8 5 -15 11 -15 5 0 8 -4
5 -9 -3 -5 1 -12 10 -15 8 -3 13 -10 9 -15 -3 -5 11 -27 30 -48 31 -34 37 -46
34 -69 0 -4 3 -10 8 -13 15 -11 34 -52 28 -61 -4 -6 -1 -10 4 -10 6 0 11 -8
11 -18 0 -10 9 -25 20 -35 11 -9 20 -23 20 -30 0 -8 9 -22 20 -32 11 -10 20
-28 20 -41 0 -14 8 -25 19 -29 12 -4 18 -12 14 -21 -3 -7 0 -14 7 -14 7 0 10
-7 6 -16 -3 -8 -2 -13 3 -10 9 6 34 -19 37 -38 4 -25 23 -62 44 -86 20 -23 20
-25 3 -31 -16 -7 -16 -8 2 -9 27 -1 53 -22 48 -37 -3 -7 3 -13 12 -13 12 0 16
-6 12 -20 -3 -11 -1 -23 4 -26 5 -3 9 -14 9 -25 0 -10 5 -19 10 -19 6 0 10 -9
10 -21 0 -12 14 -34 30 -49 17 -15 30 -33 30 -39 0 -6 8 -20 18 -30 34 -39 42
-50 42 -66 0 -8 5 -15 11 -15 6 0 9 -7 5 -15 -3 -9 0 -15 10 -15 11 0 14 -5 9
-17 -4 -10 -10 -26 -12 -35 -3 -10 -9 -15 -14 -12 -5 3 -9 -3 -9 -13 0 -10
-13 -29 -29 -43 -17 -13 -28 -27 -25 -31 2 -4 -16 -41 -41 -82 -25 -41 -45
-79 -45 -85 0 -5 -7 -13 -16 -16 -9 -4 -14 -9 -11 -12 7 -7 -40 -102 -60 -122
-7 -8 -10 -19 -6 -25 4 -7 0 -8 -11 -4 -14 6 -16 3 -11 -13 4 -14 -2 -27 -21
-45 -15 -14 -24 -25 -20 -25 11 0 -43 -93 -65 -112 -10 -9 -19 -21 -19 -27 0
-6 -5 -11 -12 -11 -6 0 -9 -3 -5 -6 7 -7 -38 -99 -53 -109 -5 -3 -10 -15 -10
-26 0 -11 -6 -22 -14 -25 -8 -3 -18 -19 -21 -35 -4 -16 -11 -27 -16 -23 -5 3
-9 -4 -9 -15 0 -12 -5 -18 -12 -16 -8 3 -14 -5 -15 -21 0 -15 -7 -30 -15 -35
-7 -5 -9 -9 -5 -9 5 0 1 -7 -7 -16 -9 -8 -16 -23 -16 -32 -1 -21 -34 -62 -50
-62 -7 0 -10 -6 -7 -14 3 -8 -1 -20 -9 -26 -11 -10 -14 -10 -14 -1 0 7 -5 9
-11 6 -6 -5 -4 -11 7 -19 16 -12 16 -13 0 -19 -10 -4 -14 -11 -11 -17 3 -5 2
-10 -3 -10 -5 0 -12 -9 -15 -20 -4 -14 -10 -18 -22 -14 -14 6 -16 1 -10 -36 6
-37 4 -42 -11 -36 -13 5 -15 2 -11 -13 3 -13 -1 -21 -15 -25 -15 -3 -19 -10
-15 -26 4 -16 2 -20 -8 -16 -9 3 -12 0 -9 -8 3 -7 -1 -16 -9 -19 -17 -6 -49
-66 -42 -77 2 -4 -7 -17 -20 -30 -13 -13 -22 -27 -19 -32 3 -4 -2 -11 -10 -14
-9 -3 -14 -9 -11 -14 2 -4 -5 -17 -16 -29 -11 -12 -27 -38 -36 -59 -8 -20 -24
-43 -35 -50 -11 -8 -17 -20 -14 -28 3 -7 -6 -22 -19 -33 -14 -10 -25 -24 -25
-30 0 -6 -4 -11 -9 -11 -9 0 -21 -28 -30 -75 -4 -21 -11 -29 -24 -27 -12 2
-17 -4 -17 -22 0 -14 -4 -27 -9 -31 -5 -3 -12 -19 -16 -35 -5 -21 -12 -30 -23
-28 -11 2 -16 -3 -16 -15 2 -15 -6 -17 -77 -13 -43 2 -81 1 -83 -3 -3 -4 -36
-4 -73 0 -37 3 -156 6 -263 5 -107 -1 -223 0 -257 4 -35 3 -63 2 -63 -3 0 -5
-12 -6 -27 -3 -26 6 -168 10 -733 21 -107 2 -233 4 -280 3 -203 -2 -525 7
-562 17 -18 5 -28 3 -28 -4 0 -10 -46 28 -47 39 0 3 -1 10 -2 16 0 6 -12 24
-26 40 -13 15 -27 41 -31 57 -3 16 -13 37 -23 47 -30 34 -39 46 -45 66 -9 27
-38 59 -60 67 -14 6 -16 11 -8 19 8 8 8 17 1 30 -5 10 -7 24 -3 30 5 8 2 9
-10 5 -14 -6 -17 -3 -12 9 5 12 2 15 -9 10 -9 -3 -14 -2 -11 3 8 12 -18 73
-27 64 -4 -3 -7 7 -8 23 0 16 -3 23 -6 15 -3 -8 -29 33 -59 94 -29 59 -63 118
-75 131 -14 15 -18 24 -9 24 8 0 3 8 -10 20 -13 11 -20 20 -15 20 4 0 2 7 -5
15 -7 8 -9 15 -5 15 4 0 2 7 -5 15 -7 8 -16 13 -20 10 -4 -3 -11 6 -14 20 -10
40 -47 95 -64 96 -10 0 -12 3 -5 5 20 9 -12 85 -32 78 -8 -3 -15 8 -20 33 -7
40 -34 93 -47 93 -4 0 -8 9 -8 20 0 11 -4 20 -8 20 -13 0 -32 48 -26 65 5 11
2 13 -10 9 -11 -4 -16 -1 -16 10 0 9 -8 24 -18 34 -10 10 -16 24 -14 30 2 7
-6 12 -18 12 -18 0 -20 3 -11 14 7 8 8 16 3 18 -12 4 -67 119 -65 135 0 7 -3
11 -7 8 -10 -6 -35 23 -27 32 4 3 -7 23 -23 43 -16 20 -27 40 -24 42 3 3 -6
18 -20 33 -15 16 -26 36 -26 45 0 10 -7 20 -15 24 -8 3 -15 13 -15 22 0 22
-30 75 -57 99 -20 18 -48 71 -45 86 0 3 -12 20 -29 38 -16 18 -29 41 -29 51 0
10 -9 25 -20 33 -27 19 -22 58 18 127 17 30 42 76 54 102 13 26 28 48 33 48 6
0 27 34 48 75 23 47 43 75 53 75 10 0 14 5 10 15 -3 8 -2 15 3 15 4 0 12 17
17 38 5 20 15 36 22 35 6 -2 9 4 6 12 -4 8 -2 15 4 15 12 0 42 45 47 70 2 10
12 28 22 39 35 38 48 56 44 58 -9 8 11 61 34 87 14 16 25 35 25 43 0 7 5 13
10 13 6 0 10 8 10 18 0 9 13 33 28 52 28 35 45 66 47 85 0 6 10 21 21 33 12
13 29 41 39 62 10 22 22 40 27 40 5 0 6 5 3 10 -6 10 29 68 48 81 5 4 6 12 3
18 -4 6 -3 11 3 11 6 0 22 25 37 55 15 30 35 63 45 74 11 11 19 24 19 29 0 4
11 23 25 42 14 19 25 41 25 50 0 8 14 30 30 48 17 18 30 39 30 47 0 8 9 20 19
27 11 8 23 27 27 43 4 17 15 41 24 55 9 14 20 33 23 43 4 10 10 16 15 13 4 -2
8 4 9 14 1 10 11 28 22 39 12 12 21 27 21 34 1 6 14 27 30 46 16 19 27 38 23
43 -3 6 8 28 25 51 16 23 32 52 36 65 4 12 15 22 26 22 11 0 23 6 27 14 10 16
33 25 53 21 8 -2 53 -4 100 -4z"/>
<path d="M4350 5767 c-30 -16 -50 -48 -32 -54 6 -3 12 -11 12 -19 0 -17 -8
-17 240 -20 113 -2 228 -8 255 -14 68 -15 443 -21 533 -9 50 7 77 7 85 0 7 -5
57 -10 112 -9 55 0 134 -3 175 -7 41 -4 100 -8 130 -8 30 1 105 -3 165 -8 120
-10 282 3 301 24 7 7 15 22 18 34 10 31 -20 35 -273 37 -130 1 -223 6 -235 12
-11 7 -34 8 -59 3 -25 -4 -44 -3 -48 2 -3 6 -37 10 -75 9 -213 -4 -781 4 -795
11 -9 5 -119 11 -243 13 -125 3 -230 7 -234 10 -5 3 -19 -1 -32 -7z"/>
<path d="M3290 3990 c0 -29 23 -77 44 -91 5 -4 5 -12 2 -18 -4 -6 -2 -11 4
-11 7 0 10 -7 6 -15 -3 -9 3 -19 15 -26 24 -12 54 -75 50 -104 -3 -16 -1 -17
13 -6 14 11 16 11 16 -3 0 -9 4 -16 9 -16 5 0 20 -21 32 -47 13 -27 29 -54 36
-61 7 -7 13 -22 13 -32 0 -10 5 -22 11 -26 8 -4 7 -9 -2 -15 -10 -6 -11 -9 -1
-9 6 0 12 -6 12 -14 0 -7 18 -32 41 -54 31 -31 39 -46 34 -62 -4 -14 -2 -20 7
-18 7 2 12 -3 10 -9 -1 -7 2 -13 8 -13 5 0 7 -7 4 -15 -4 -9 0 -15 10 -15 9 0
16 -7 16 -16 0 -9 12 -25 26 -36 14 -11 23 -26 20 -33 -3 -8 2 -19 9 -25 10
-8 13 -21 8 -38 -4 -16 -2 -23 5 -18 6 3 16 -7 24 -24 7 -16 16 -30 19 -30 3
0 11 -18 18 -40 6 -21 21 -46 34 -55 12 -8 18 -15 14 -15 -4 0 1 -10 13 -22
11 -12 20 -32 20 -44 0 -26 16 -40 24 -22 3 7 4 1 1 -13 -3 -18 0 -29 9 -32 8
-3 23 -23 32 -44 10 -21 24 -44 31 -51 7 -7 13 -22 13 -31 0 -10 10 -26 23
-35 15 -12 18 -18 10 -22 -18 -8 -16 -24 3 -24 12 0 15 -6 11 -21 -4 -15 -2
-19 9 -15 8 3 14 -1 14 -8 0 -8 5 -16 11 -18 5 -2 11 -10 13 -18 2 -15 8 -28
48 -98 10 -18 18 -39 18 -46 0 -8 6 -17 13 -19 10 -4 10 -6 0 -6 -7 -1 -13 -6
-13 -12 0 -5 4 -7 10 -4 5 3 12 -5 15 -17 3 -13 24 -39 46 -57 21 -19 39 -40
39 -48 0 -8 4 -12 9 -9 5 4 7 -3 4 -14 -7 -25 12 -49 38 -47 21 1 21 2 24 67
1 34 -4 53 -22 76 -13 17 -23 36 -23 42 0 7 -4 12 -10 12 -5 0 -10 12 -10 26
0 14 -4 23 -10 19 -6 -3 -15 6 -21 22 -5 15 -16 31 -22 35 -9 6 -8 11 3 18 11
7 12 10 2 10 -18 0 -33 17 -57 63 -11 20 -23 37 -27 37 -5 0 -8 5 -8 11 0 5 6
7 13 3 6 -5 4 3 -6 16 -9 14 -22 35 -29 48 -6 12 -15 22 -19 22 -5 0 -20 22
-34 49 -13 27 -29 52 -34 55 -5 3 -7 15 -4 26 4 14 0 20 -11 20 -9 0 -16 7
-16 15 0 8 -8 15 -17 15 -15 0 -14 2 3 16 10 8 13 13 7 9 -7 -3 -13 -1 -13 5
0 6 -4 9 -9 5 -6 -3 -8 6 -5 21 3 16 1 23 -6 19 -5 -3 -10 1 -10 10 0 8 -7 18
-15 21 -9 4 -14 11 -13 18 3 19 -13 56 -24 56 -6 0 -9 2 -6 5 3 3 -7 19 -22
35 -21 22 -26 36 -22 61 3 22 1 30 -7 25 -6 -4 -11 -1 -11 9 0 9 -4 13 -10 10
-5 -3 -10 0 -10 8 0 7 -13 31 -29 52 -18 24 -26 46 -23 58 3 12 1 18 -5 14 -6
-4 -17 8 -26 26 -45 94 -53 110 -70 128 -10 10 -14 19 -10 19 4 0 -1 7 -11 15
-11 8 -20 25 -21 37 -1 13 -7 22 -13 21 -6 -2 -9 3 -6 11 3 7 -8 27 -25 45
-16 17 -32 45 -36 60 -3 16 -13 32 -21 35 -8 3 -14 12 -14 19 0 8 -7 20 -15
27 -8 7 -15 21 -15 31 0 10 -8 24 -19 31 -10 7 -18 15 -18 18 2 16 -24 70 -33
70 -6 0 -8 5 -5 10 3 6 -1 10 -10 10 -9 0 -13 5 -10 10 9 15 -35 49 -62 50
-19 0 -23 -5 -23 -30z"/>
<path d="M7349 3942 c-1 -4 -1 -10 0 -14 0 -5 -8 -8 -19 -8 -14 0 -20 -7 -20
-21 0 -12 -4 -17 -11 -13 -8 4 -9 0 -4 -15 5 -15 2 -21 -9 -21 -9 0 -16 -8
-16 -20 0 -10 -12 -31 -27 -45 -15 -14 -24 -25 -20 -25 4 0 -8 -21 -28 -46
-19 -26 -35 -53 -35 -61 0 -8 -4 -12 -8 -9 -5 3 -17 -14 -27 -37 -19 -42 -21
-48 -24 -67 0 -5 -7 -10 -15 -10 -8 0 -15 -8 -15 -17 -1 -43 -5 -54 -17 -49
-7 3 -14 -6 -16 -22 -8 -46 -12 -53 -55 -99 -24 -26 -43 -52 -43 -59 0 -6 -6
-14 -14 -17 -7 -3 -16 -20 -20 -39 -3 -19 -18 -43 -35 -57 -16 -13 -27 -30
-25 -36 6 -14 -27 -95 -38 -95 -5 0 -8 -7 -8 -15 0 -8 -7 -15 -16 -15 -12 0
-15 -6 -11 -21 4 -15 2 -18 -7 -10 -13 11 -15 8 -19 -44 -1 -14 -8 -25 -15
-25 -7 0 -18 -11 -24 -25 -6 -14 -15 -25 -21 -25 -5 0 -7 -7 -3 -15 3 -8 -5
-25 -17 -37 -13 -13 -26 -31 -30 -41 -3 -9 -13 -17 -22 -17 -11 0 -14 -7 -11
-26 3 -15 0 -27 -9 -30 -7 -3 -16 -21 -19 -39 -6 -32 -26 -59 -26 -35 0 6 -4
9 -10 5 -5 -3 -7 -12 -4 -19 3 -8 -7 -23 -21 -34 -14 -12 -27 -33 -29 -47 -2
-14 -8 -31 -14 -37 -7 -7 -12 -18 -12 -24 0 -7 -12 -22 -26 -33 -14 -11 -23
-24 -20 -30 8 -13 -4 -42 -15 -35 -5 3 -9 0 -9 -6 0 -6 -4 -9 -9 -6 -5 4 -7
-4 -3 -16 4 -16 2 -20 -10 -15 -12 4 -14 1 -11 -13 3 -12 -5 -28 -23 -45 -20
-19 -28 -34 -26 -52 3 -16 0 -23 -7 -19 -6 4 -11 1 -11 -6 0 -7 16 -18 35 -24
30 -9 39 -8 55 6 11 9 17 19 15 22 -3 3 1 11 10 18 8 7 15 19 15 26 0 8 4 14
8 14 5 0 18 23 30 50 12 28 25 50 30 50 4 0 13 9 20 21 8 12 9 18 3 14 -6 -3
-11 1 -11 9 0 9 7 16 16 16 10 0 14 6 11 14 -4 9 2 17 14 21 10 4 17 11 14 16
-4 5 -2 9 4 9 6 0 13 11 17 25 3 14 9 23 13 21 4 -3 8 4 8 16 1 11 10 32 20
46 9 15 16 31 15 35 -1 5 2 5 8 2 7 -4 14 2 17 14 3 11 9 18 14 15 5 -3 6 2 3
10 -4 9 1 18 10 22 9 3 16 14 16 23 1 20 25 53 33 44 4 -3 7 -1 7 6 0 7 9 24
20 38 11 14 20 34 20 44 0 9 11 31 25 47 14 17 25 37 25 46 0 9 4 16 9 16 5 0
11 10 13 23 2 12 9 21 15 20 6 -1 14 9 17 22 4 14 11 25 17 25 6 0 7 5 4 10
-3 6 -2 10 2 10 5 0 10 10 10 22 1 13 7 24 13 26 5 2 8 8 4 13 -3 5 2 12 10
15 9 3 13 10 10 15 -3 5 0 9 7 9 7 0 9 8 6 21 -4 15 -2 19 8 15 9 -3 12 0 9 8
-3 8 7 23 22 35 16 12 29 28 30 36 1 8 9 21 17 30 9 8 19 24 22 35 3 11 10 20
14 20 4 0 7 10 8 21 1 12 9 29 17 38 9 10 16 23 16 29 0 12 35 70 72 116 12
16 33 50 45 75 13 25 34 64 48 86 13 21 22 42 19 46 -2 4 3 9 11 13 8 3 15 13
15 21 0 9 5 13 10 10 6 -3 10 2 10 12 0 10 6 27 13 38 7 11 14 34 15 51 2 24
-3 33 -18 37 -11 3 -21 2 -21 -1z"/>
<path d="M11560 8849 c0 -5 5 -7 10 -4 6 3 10 8 10 11 0 2 -4 4 -10 4 -5 0
-10 -5 -10 -11z"/>
<path d="M17190 4690 c0 -5 5 -10 10 -10 6 0 10 5 10 10 0 6 -4 10 -10 10 -5
0 -10 -4 -10 -10z"/>
<path d="M16895 4519 c-4 -6 -4 -13 -1 -16 3 -4 6 -1 6 5 0 7 5 12 11 12 5 0
8 -4 5 -8 -3 -5 1 -9 9 -9 8 0 15 6 15 14 0 16 -36 18 -45 2z"/>
<path d="M12620 1183 c0 -9 -3 -13 -7 -10 -7 8 -43 -21 -43 -35 0 -12 58 32
64 49 3 7 1 13 -4 13 -6 0 -10 -7 -10 -17z"/>
</g>
</svg>
