<?xml version="1.0" standalone="no"?>
<!DOCTYPE svg PUBLIC "-//W3C//DTD SVG 20010904//EN"
 "http://www.w3.org/TR/2001/REC-SVG-20010904/DTD/svg10.dtd">
<svg version="1.0" xmlns="http://www.w3.org/2000/svg"
 width="2710.000000pt" height="2268.000000pt" viewBox="0 0 2710.000000 2268.000000"
 preserveAspectRatio="xMidYMid meet">

<g transform="translate(0.000000,2268.000000) scale(0.100000,-0.100000)"
fill="#000000" stroke="none">
<path d="M16420 21854 c-15 -7 -30 -19 -33 -27 -3 -9 -6 -72 -7 -139 0 -68 -2
-281 -4 -475 -4 -336 -4 -352 14 -368 24 -22 70 -28 88 -12 30 25 35 63 33
248 -2 165 0 187 15 200 13 11 59 14 211 15 l195 1 23 29 c23 28 25 75 5 97
-4 4 -102 9 -218 10 -181 2 -212 4 -220 18 -11 17 -16 138 -9 202 3 22 14 48
26 60 21 21 29 22 255 22 266 0 273 2 274 75 1 31 -4 41 -21 47 -36 12 -596
10 -627 -3z"/>
<path d="M16730 20430 c-7 -13 -8 -37 -3 -68 5 -26 6 -67 2 -92 -4 -25 -4 -49
-2 -53 3 -4 5 -80 5 -168 0 -87 4 -161 8 -164 4 -3 4 -22 -1 -42 -5 -24 -4
-39 2 -41 5 -2 6 -9 2 -15 -8 -13 -11 -177 -3 -177 10 0 1 -125 -12 -170 -14
-50 -43 -81 -104 -109 -23 -11 -70 -40 -105 -64 -64 -45 -78 -53 -219 -121
-41 -20 -80 -40 -86 -44 -6 -4 -31 -20 -55 -36 -42 -28 -77 -48 -249 -138 -76
-39 -123 -66 -223 -125 -30 -18 -60 -33 -66 -33 -6 0 -11 -3 -11 -8 0 -4 -27
-20 -60 -35 -33 -16 -66 -34 -73 -40 -7 -7 -37 -25 -67 -41 -53 -27 -130 -75
-140 -86 -6 -7 -76 -40 -84 -40 -4 0 -31 -18 -60 -40 -40 -30 -55 -49 -60 -73
-7 -42 -6 -171 2 -270 4 -43 4 -84 0 -90 -4 -7 -4 -39 -1 -72 9 -71 9 -97 -2
-405 -10 -275 -10 -311 0 -371 12 -74 8 -169 -6 -169 -4 0 -5 -17 -2 -37 3
-21 6 -128 8 -238 2 -110 6 -211 10 -225 3 -14 7 -31 9 -37 4 -22 47 -61 74
-68 14 -3 37 -18 51 -31 13 -14 30 -23 37 -20 6 2 20 -3 30 -13 11 -9 47 -31
81 -47 35 -17 61 -33 58 -35 -2 -3 4 -5 15 -6 26 -2 71 -33 64 -44 -3 -5 8 -9
24 -9 17 0 40 -10 56 -25 16 -14 49 -37 74 -51 26 -14 68 -41 95 -60 26 -19
57 -35 70 -37 12 -1 33 -14 46 -29 13 -16 28 -28 33 -28 6 0 22 -9 36 -19 15
-10 30 -18 33 -17 12 3 85 -40 101 -61 11 -13 39 -26 70 -32 32 -7 62 -22 80
-40 16 -15 55 -41 86 -56 95 -47 115 -57 171 -94 29 -20 61 -40 70 -46 9 -5
19 -14 23 -19 6 -9 32 -24 98 -58 14 -7 37 -25 53 -40 15 -15 32 -28 37 -28
11 0 12 -37 11 -375 0 -121 0 -281 1 -355 1 -74 0 -322 -1 -550 -2 -228 -2
-428 -2 -444 2 -32 -42 -106 -62 -106 -7 0 -20 -8 -29 -17 -46 -48 -54 -53
-66 -41 -9 9 -12 9 -12 -1 0 -7 -6 -11 -12 -8 -7 2 -27 -11 -45 -28 -17 -18
-34 -31 -37 -28 -5 5 -84 -39 -131 -73 -16 -12 -70 -41 -120 -65 -49 -23 -92
-46 -93 -51 -2 -4 -7 -6 -12 -3 -4 2 -15 -4 -25 -15 -10 -11 -24 -20 -32 -20
-7 0 -13 -5 -13 -10 0 -10 -39 -29 -66 -34 -6 -1 -19 -9 -28 -18 -9 -9 -25
-20 -36 -23 -11 -3 -20 -11 -20 -16 0 -6 -4 -7 -10 -4 -5 3 -10 1 -10 -4 0 -6
-13 -11 -30 -11 -21 0 -35 -8 -46 -26 -11 -16 -20 -22 -27 -15 -11 11 -39 3
-31 -10 3 -5 -10 -16 -30 -24 -19 -8 -38 -19 -41 -25 -4 -6 -11 -8 -16 -4 -5
3 -23 -6 -40 -20 -17 -14 -35 -26 -41 -26 -17 0 -53 -44 -56 -69 -4 -26 14
-51 36 -51 20 0 92 32 92 41 0 4 12 10 28 14 15 3 50 21 77 39 28 18 58 36 68
39 9 4 17 11 17 16 0 6 16 13 35 17 21 4 35 12 35 21 0 7 6 13 13 11 17 -3
117 50 117 63 0 6 6 9 13 6 13 -4 111 45 142 73 11 9 33 20 49 24 16 4 37 18
47 30 10 13 32 29 49 36 16 7 30 17 30 22 0 6 6 8 14 5 8 -3 20 0 26 8 6 8 24
17 40 20 16 3 34 13 41 21 6 8 40 28 75 45 35 16 64 35 64 40 0 6 4 8 9 5 4
-3 16 3 26 14 10 11 21 17 26 14 9 -5 53 23 98 61 54 46 57 75 47 470 -8 313
-15 721 -13 850 0 61 0 142 -2 180 -2 39 -4 141 -5 228 l-1 157 37 35 c20 19
40 35 44 35 4 0 29 14 56 30 26 17 55 30 63 30 8 0 15 4 15 8 0 4 26 19 57 32
31 14 75 35 97 48 23 12 53 27 69 33 15 6 27 15 27 19 0 11 67 50 86 50 9 0
48 22 87 49 103 70 216 134 262 150 22 8 42 17 45 20 8 12 105 68 128 75 12 4
22 11 22 16 0 4 11 11 25 14 14 4 25 11 25 16 0 6 6 10 13 10 7 0 40 17 73 39
32 21 91 51 129 66 39 16 75 34 80 41 6 7 36 23 68 34 32 12 61 28 64 36 3 8
10 14 17 14 15 0 41 30 64 77 17 33 19 54 15 163 -3 69 -6 307 -8 530 -1 223
-3 412 -4 420 0 8 -1 98 0 200 0 102 -2 277 -5 390 l-5 205 -53 47 c-29 26
-66 53 -83 59 -26 11 -54 30 -102 69 -7 6 -14 10 -17 10 -3 0 -17 11 -32 25
-15 14 -34 25 -43 25 -10 0 -21 4 -26 8 -6 5 -34 18 -63 30 -30 12 -63 33 -74
47 -11 14 -29 25 -40 25 -11 0 -34 11 -52 25 -17 14 -36 29 -42 34 -6 5 -30
18 -55 29 -24 11 -59 34 -78 51 -19 17 -41 31 -48 31 -17 0 -49 19 -81 48 -14
12 -37 25 -51 29 -14 3 -28 9 -31 12 -3 4 -16 12 -30 19 -14 7 -45 26 -70 42
-25 17 -67 41 -95 55 -27 14 -59 31 -70 37 -104 67 -194 114 -207 110 -5 -1
-8 2 -8 6 0 9 -143 104 -172 115 -10 3 -27 21 -37 38 -18 29 -20 49 -18 172 1
76 0 140 -4 142 -3 2 -6 166 -6 364 -1 198 -4 365 -8 371 -11 17 -44 11 -55
-10z m79 -1131 c17 -6 31 -14 31 -19 0 -6 116 -74 130 -75 12 -1 70 -40 70
-47 0 -4 4 -8 10 -8 5 0 54 -27 108 -60 55 -33 104 -60 110 -60 5 0 15 -6 21
-14 7 -8 32 -24 57 -35 24 -12 44 -26 44 -31 0 -6 8 -10 18 -10 11 0 32 -11
48 -25 16 -14 62 -42 102 -62 40 -20 75 -40 78 -44 3 -5 22 -13 42 -18 20 -6
52 -24 70 -40 17 -17 32 -27 32 -23 0 4 4 2 8 -4 10 -15 77 -55 142 -84 30
-14 60 -28 65 -33 30 -23 145 -92 173 -104 17 -7 32 -18 32 -23 0 -6 9 -10 19
-10 11 0 48 -24 83 -52 35 -29 64 -52 66 -50 14 14 59 -69 47 -88 -3 -5 -3
-10 2 -10 4 0 7 -66 6 -147 -2 -82 0 -155 3 -163 4 -8 7 -109 6 -223 0 -163 3
-211 14 -222 11 -10 11 -14 1 -18 -9 -3 -12 -67 -11 -273 1 -148 2 -298 3
-334 1 -36 0 -142 -2 -237 -4 -173 -10 -203 -43 -203 -8 0 -14 -4 -14 -10 0
-5 -12 -13 -27 -16 -14 -4 -45 -19 -67 -34 -23 -15 -95 -56 -161 -90 -66 -35
-142 -77 -170 -93 -27 -17 -84 -48 -125 -69 -41 -22 -85 -49 -97 -60 -13 -12
-23 -18 -23 -14 0 4 -13 -2 -29 -13 -16 -12 -34 -21 -41 -21 -6 0 -28 -11 -48
-25 -20 -14 -45 -25 -54 -25 -10 0 -18 -4 -18 -8 0 -4 -28 -21 -62 -36 -35
-16 -76 -39 -93 -51 -16 -12 -49 -30 -72 -40 -24 -10 -43 -21 -43 -24 0 -4
-21 -18 -47 -31 -27 -14 -50 -28 -53 -31 -3 -3 -21 -11 -41 -18 -20 -6 -45
-20 -57 -31 -11 -11 -51 -34 -89 -51 -37 -16 -90 -42 -116 -55 -48 -24 -49
-25 -75 -7 -15 9 -29 18 -32 19 -18 4 -59 24 -71 36 -8 7 -64 37 -124 67 -61
30 -112 58 -115 61 -3 4 -18 15 -35 24 -16 9 -43 25 -60 36 -16 11 -46 28 -65
37 -19 10 -41 24 -48 31 -7 6 -19 12 -26 12 -7 0 -21 9 -31 20 -9 10 -20 19
-24 18 -19 -4 -142 66 -185 105 -11 9 -27 17 -36 17 -9 0 -24 8 -33 18 -9 9
-37 28 -64 42 -26 14 -49 28 -51 32 -2 4 -20 12 -40 19 -20 6 -49 20 -64 30
-14 11 -29 19 -32 19 -4 0 -19 11 -34 25 -15 14 -34 25 -42 25 -8 0 -30 13
-49 29 -19 17 -46 33 -60 36 -14 4 -37 15 -53 26 -15 11 -28 18 -28 14 0 -3
-10 3 -22 14 -11 11 -25 18 -29 15 -4 -2 -23 9 -42 26 -19 16 -40 30 -46 30
-6 0 -11 5 -11 11 0 6 -7 9 -15 5 -9 -3 -15 0 -15 9 0 8 -4 15 -10 15 -5 0
-17 14 -25 30 -21 41 -28 198 -25 605 2 305 2 680 -1 1035 0 80 4 157 9 171
14 35 61 89 78 89 8 0 14 5 14 10 0 6 7 10 15 10 17 0 66 25 110 56 17 12 75
45 130 74 55 29 108 59 118 68 9 8 17 12 17 8 0 -8 84 38 125 69 17 12 48 31
70 42 179 91 212 109 229 125 11 10 23 18 26 18 8 0 220 118 235 130 24 20
138 80 152 80 8 0 28 11 44 25 46 38 236 140 270 144 3 1 20 -4 38 -10z"/>
<path d="M16774 18987 c-13 -14 11 -67 31 -67 8 0 18 -6 22 -13 18 -27 149
-107 177 -107 4 0 15 -8 24 -18 10 -10 37 -27 62 -37 25 -10 59 -29 77 -42 17
-13 35 -23 39 -23 4 0 21 -10 38 -23 17 -13 70 -42 119 -66 48 -23 87 -45 87
-49 0 -9 58 -42 74 -42 7 0 26 -12 42 -26 37 -33 74 -58 88 -60 6 -1 27 -11
46 -23 19 -11 55 -32 80 -46 25 -14 72 -44 105 -66 33 -21 67 -42 75 -46 8 -4
33 -18 55 -32 46 -29 74 -33 92 -15 16 15 17 44 2 44 -6 0 -20 11 -31 25 -11
14 -26 25 -35 25 -9 0 -38 16 -65 35 -27 20 -53 33 -58 30 -6 -4 -10 -1 -10 5
0 7 -5 10 -11 8 -6 -2 -26 11 -44 29 -18 18 -40 33 -49 33 -9 0 -16 5 -16 10
0 6 -8 10 -19 10 -10 0 -30 9 -44 20 -14 11 -30 20 -36 20 -6 0 -11 4 -11 9 0
5 -14 14 -31 20 -18 6 -50 26 -73 44 -23 19 -62 42 -89 52 -26 10 -59 28 -75
42 -15 13 -46 33 -69 44 -24 11 -43 25 -43 30 0 5 -6 9 -14 9 -8 0 -21 6 -28
14 -14 14 -71 46 -85 47 -5 1 -20 10 -34 20 -15 10 -53 31 -86 47 -32 15 -75
40 -96 56 -41 31 -145 86 -162 85 -5 0 -15 -5 -21 -12z"/>
<path d="M15419 18219 c-10 -19 -12 -73 -9 -309 0 -47 0 -96 -1 -110 -1 -14 1
-74 5 -135 6 -106 7 -286 3 -615 -1 -85 0 -168 4 -185 3 -16 2 -44 -1 -62 -8
-36 13 -88 40 -103 26 -14 30 18 24 195 -3 83 -7 335 -9 560 -3 226 -7 427
-10 449 -3 21 -1 44 5 51 7 9 6 21 -4 41 -11 19 -12 32 -5 40 10 12 11 124 2
177 -6 32 -28 35 -44 6z"/>
<path d="M18044 16638 c-16 -13 -35 -28 -42 -35 -7 -7 -21 -13 -30 -13 -9 0
-27 -6 -39 -13 -12 -6 -43 -23 -70 -37 -26 -13 -57 -32 -68 -41 -11 -9 -39
-23 -62 -32 -23 -9 -66 -32 -97 -52 -30 -19 -61 -35 -68 -35 -7 0 -28 -9 -46
-20 -18 -11 -39 -20 -47 -20 -8 0 -25 -10 -39 -23 -14 -13 -42 -32 -63 -43
-21 -10 -39 -22 -41 -26 -2 -5 -10 -8 -18 -8 -8 0 -14 -5 -14 -12 0 -6 -3 -9
-6 -6 -3 3 -51 -21 -107 -53 -56 -33 -157 -87 -223 -120 -134 -66 -151 -80
-156 -124 -3 -28 -1 -30 28 -29 17 1 49 13 72 28 23 14 47 27 54 28 7 2 31 14
53 28 22 14 58 35 80 45 22 11 48 28 59 37 20 19 120 68 137 68 6 0 29 15 52
33 23 19 58 40 77 47 19 8 68 36 109 62 40 26 78 48 84 48 6 0 18 6 26 14 19
15 80 47 136 70 22 10 48 21 57 26 10 6 22 10 28 10 13 0 72 41 83 57 4 7 38
27 75 44 37 18 73 40 80 51 7 10 19 18 26 18 9 0 12 9 8 25 -6 33 -48 34 -88
3z"/>
<path d="M13285 16176 c-33 -6 -73 -17 -88 -24 -16 -7 -38 -12 -50 -12 -46 -1
-159 -105 -199 -185 -56 -110 -73 -181 -70 -305 2 -123 6 -160 20 -186 5 -11
10 -22 11 -26 1 -5 2 -11 2 -15 1 -5 1 -15 0 -24 -1 -9 5 -22 14 -29 8 -7 15
-19 15 -26 0 -8 5 -14 10 -14 6 0 10 -7 10 -15 0 -8 9 -19 20 -25 11 -6 20
-19 20 -30 0 -10 6 -23 13 -27 7 -4 20 -20 29 -34 9 -14 31 -31 50 -38 18 -7
40 -17 48 -22 8 -5 25 -13 38 -19 12 -5 22 -14 22 -20 0 -6 4 -9 8 -6 4 3 26
1 48 -4 85 -17 192 -20 207 -5 8 8 25 16 38 17 13 2 35 10 47 17 13 7 26 10
29 8 21 -21 212 168 228 226 4 12 10 31 15 42 33 76 50 260 34 374 -9 65 -74
197 -128 258 -58 65 -179 133 -266 150 -55 10 -123 10 -175 -1z m170 -146 c56
-22 119 -57 138 -77 44 -45 67 -73 67 -83 0 -5 5 -10 11 -10 6 0 9 -7 5 -15
-3 -8 -1 -15 4 -15 6 0 10 -8 10 -18 0 -10 3 -22 7 -26 16 -15 23 -170 11
-231 -20 -100 -84 -225 -115 -225 -4 0 -22 -13 -39 -30 -18 -16 -34 -26 -37
-23 -4 3 -21 -4 -40 -15 -28 -16 -49 -19 -119 -17 -87 2 -86 2 -183 64 -52 33
-105 90 -105 113 0 10 -4 18 -10 18 -5 0 -10 9 -10 21 0 11 -5 29 -10 40 -15
27 -21 225 -8 279 14 63 33 98 80 153 44 53 113 101 128 92 6 -4 10 -2 10 4 0
19 158 20 205 1z"/>
<path d="M13630 14712 c-40 -14 -57 -59 -51 -131 1 -13 -1 -31 -4 -40 -9 -21
-14 -501 -5 -496 3 2 4 -9 2 -26 -2 -16 0 -35 5 -42 5 -6 8 -43 6 -82 -6 -125
-11 -210 -12 -217 -1 -12 -59 -10 -82 3 -27 14 -102 14 -107 0 -2 -6 -13 -11
-25 -11 -11 0 -29 -8 -39 -17 -39 -35 -45 -5 -53 237 -9 287 -10 625 -2 716 7
77 -5 110 -35 99 -21 -8 -35 -46 -42 -115 -4 -30 -10 -80 -15 -110 -5 -30 -6
-113 -4 -185 3 -71 5 -214 6 -317 1 -104 5 -188 8 -188 5 0 2 -121 -4 -177 -2
-24 -50 -66 -62 -55 -5 4 -5 2 -2 -5 4 -7 -11 -20 -39 -35 -25 -12 -61 -31
-80 -41 -19 -10 -37 -24 -40 -32 -4 -8 -14 -15 -24 -15 -10 0 -20 -6 -23 -14
-3 -8 -19 -17 -36 -21 -17 -4 -31 -11 -31 -16 0 -5 -6 -9 -12 -9 -21 -1 -124
-55 -165 -87 -21 -17 -43 -28 -49 -26 -6 2 -17 -3 -24 -12 -7 -8 -18 -15 -25
-15 -7 0 -15 -6 -18 -14 -3 -8 -24 -17 -46 -21 -21 -3 -42 -13 -45 -21 -3 -9
-10 -13 -14 -10 -5 3 -25 -9 -46 -25 -20 -17 -42 -29 -50 -26 -7 3 -18 -4 -24
-14 -7 -10 -20 -19 -30 -19 -9 0 -26 -7 -36 -15 -10 -8 -23 -12 -27 -9 -5 3
-9 1 -9 -5 0 -6 -22 -20 -49 -32 -27 -11 -52 -27 -55 -35 -3 -8 -12 -14 -19
-14 -8 0 -33 -14 -56 -30 -22 -17 -52 -31 -65 -32 -14 -1 -22 -6 -20 -10 3 -4
-4 -8 -14 -8 -11 0 -25 -7 -32 -15 -7 -9 -35 -25 -62 -37 -26 -11 -48 -24 -48
-29 0 -5 -8 -9 -18 -9 -10 0 -23 -5 -29 -11 -11 -11 -51 3 -63 22 -3 4 -18 10
-34 13 -16 3 -32 9 -35 13 -6 8 -38 27 -83 50 -15 8 -30 18 -33 24 -4 5 -14 9
-24 9 -10 0 -24 7 -31 15 -7 8 -21 15 -31 15 -11 0 -19 7 -19 17 0 9 -3 14 -6
10 -7 -6 -81 30 -90 44 -3 5 -16 9 -29 9 -13 0 -25 3 -27 8 -8 18 -175 121
-198 122 -8 0 -39 16 -68 35 -28 20 -62 40 -74 45 -13 6 -30 14 -38 19 -8 5
-29 15 -47 22 -17 7 -30 16 -27 20 2 4 -8 10 -24 14 -15 3 -38 17 -52 30 -14
12 -36 26 -50 30 -14 5 -42 19 -62 31 -21 13 -44 24 -52 24 -8 0 -16 7 -20 15
-3 8 -13 15 -21 15 -9 0 -23 6 -30 13 -35 31 -48 39 -80 52 -18 8 -36 19 -40
25 -3 5 -15 10 -26 10 -10 0 -19 4 -19 9 0 5 -10 13 -22 17 -13 3 -31 13 -41
22 -10 9 -24 17 -31 18 -8 1 -28 13 -46 25 -44 33 -138 34 -173 1 -13 -12 -29
-22 -35 -22 -7 0 -12 -3 -12 -8 0 -4 -21 -19 -47 -32 -27 -14 -49 -28 -51 -32
-2 -5 -9 -8 -16 -8 -22 0 -109 -50 -124 -71 -7 -10 -19 -19 -27 -19 -22 0 -96
-41 -102 -56 -3 -8 -14 -14 -25 -14 -24 0 -80 -28 -74 -38 5 -8 -20 -33 -27
-26 -8 8 -113 -42 -136 -65 -12 -12 -21 -18 -21 -15 0 3 -7 -2 -16 -10 -8 -9
-24 -16 -35 -16 -10 0 -19 -4 -19 -10 0 -5 -27 -21 -60 -37 -33 -15 -60 -32
-60 -39 0 -6 -32 -23 -70 -38 -39 -16 -78 -35 -87 -44 -9 -10 -19 -17 -22 -18
-17 -1 -100 -45 -111 -59 -7 -8 -19 -15 -26 -15 -7 0 -45 -20 -84 -46 -38 -25
-75 -42 -82 -38 -6 4 -8 3 -5 -3 4 -7 -12 -19 -38 -30 -25 -10 -45 -24 -45
-30 0 -7 -4 -13 -8 -13 -16 0 -75 -55 -84 -80 -6 -14 -12 -242 -15 -540 -2
-283 -6 -573 -7 -645 -4 -203 -5 -516 -1 -555 2 -19 4 -67 4 -105 1 -68 3 -73
40 -113 22 -23 44 -42 50 -42 6 0 11 -7 11 -15 0 -9 6 -12 15 -9 8 4 15 1 15
-5 0 -6 6 -11 13 -11 8 0 22 -9 32 -20 10 -11 21 -18 24 -15 4 2 15 -7 25 -20
11 -15 24 -21 37 -18 10 3 19 0 19 -6 0 -6 8 -11 18 -11 10 0 27 -7 38 -15 12
-8 24 -11 28 -8 3 3 6 1 6 -5 0 -7 6 -12 14 -12 8 0 23 -10 33 -22 10 -13 41
-34 68 -48 28 -14 66 -35 86 -47 20 -12 40 -19 43 -16 3 4 18 -8 32 -25 15
-17 30 -29 35 -26 5 3 9 -2 9 -11 0 -9 6 -15 13 -14 25 4 68 -14 86 -37 10
-13 21 -21 24 -18 3 3 13 -6 22 -20 10 -14 21 -24 25 -21 5 3 10 0 12 -6 2 -5
18 -11 37 -11 18 -1 35 -7 38 -15 3 -7 11 -13 19 -13 8 0 14 -4 14 -10 0 -5
12 -13 28 -16 15 -4 38 -14 52 -24 14 -9 42 -24 63 -34 20 -9 37 -21 37 -25 0
-5 13 -14 28 -20 15 -7 40 -23 54 -36 14 -13 29 -21 32 -18 3 4 6 -2 6 -12 0
-14 3 -16 11 -8 9 9 18 5 36 -13 13 -13 31 -24 39 -24 8 0 17 -6 20 -14 3 -8
13 -12 23 -9 9 2 23 -3 30 -11 8 -9 20 -16 27 -16 8 0 14 -5 14 -11 0 -6 9 -8
21 -4 15 5 19 4 15 -4 -4 -6 -3 -11 2 -11 4 0 17 -8 28 -18 11 -11 44 -31 74
-46 51 -26 58 -27 95 -15 41 13 50 16 72 18 7 0 12 4 12 9 -3 20 3 30 21 35
11 3 20 1 20 -3 0 -5 11 1 25 14 14 13 38 26 53 29 15 3 42 20 60 36 18 17 39
31 46 31 7 0 21 9 31 20 11 13 25 18 37 14 10 -3 18 0 18 6 0 12 70 57 83 52
4 -1 7 3 7 8 0 6 7 10 15 10 7 0 18 6 22 14 4 7 23 21 41 30 17 9 32 21 32 27
0 6 4 8 9 4 5 -3 12 -1 16 5 3 5 14 10 24 10 10 0 26 9 35 19 10 11 29 22 42
25 13 4 34 16 45 27 11 11 24 17 28 14 5 -2 14 2 21 10 7 8 18 15 25 15 6 0
18 12 25 26 9 17 20 24 32 21 10 -3 16 -1 12 4 -3 5 2 9 11 9 9 0 13 5 10 10
-3 6 -2 10 4 10 5 0 11 -6 13 -12 3 -9 26 3 64 31 32 25 60 48 62 53 2 4 10 8
19 8 8 0 29 11 46 24 18 13 48 31 67 39 40 17 80 49 80 65 0 6 15 12 33 14 17
2 31 8 30 13 -1 6 25 21 57 33 32 13 70 34 86 49 24 22 39 30 67 32 5 1 6 5 3
9 -3 5 22 8 55 7 41 0 63 -5 69 -15 5 -8 7 -17 5 -21 -3 -3 7 -4 20 -1 18 3
25 0 25 -11 0 -8 8 -21 17 -28 10 -8 14 -9 10 -2 -4 6 -3 14 2 17 5 3 12 -5
15 -19 4 -16 11 -22 21 -19 8 4 15 1 15 -6 0 -7 8 -9 22 -5 17 6 20 4 14 -11
-4 -10 -4 -15 0 -12 4 4 16 1 28 -7 11 -8 30 -15 41 -15 17 0 18 -2 5 -11 -12
-8 -9 -9 11 -5 17 4 31 1 39 -9 7 -8 17 -15 22 -15 5 0 19 -9 31 -21 12 -11
30 -18 39 -16 18 5 43 -15 32 -26 -3 -3 4 -8 15 -12 12 -3 21 -10 21 -15 0 -4
10 -10 23 -14 13 -3 34 -14 46 -25 13 -11 44 -28 70 -37 82 -29 91 -33 91 -47
0 -17 42 -54 67 -59 10 -2 17 -10 15 -17 -2 -9 3 -9 17 -1 24 12 51 3 51 -17
0 -8 4 -12 9 -8 5 3 12 1 16 -5 3 -5 13 -10 22 -10 8 0 27 -9 43 -20 15 -11
30 -17 34 -13 3 3 14 -3 23 -14 10 -11 24 -18 31 -16 6 3 12 -2 12 -10 0 -14
43 -32 67 -28 8 1 10 -5 6 -15 -4 -11 -3 -15 5 -10 6 3 13 2 16 -3 4 -5 14 -8
23 -7 9 2 26 -7 38 -18 23 -24 49 -41 83 -56 12 -5 22 -14 22 -20 0 -5 5 -10
11 -10 5 0 7 5 4 10 -3 6 -4 10 -1 10 3 0 13 -14 21 -31 9 -17 19 -28 22 -25
4 3 12 1 19 -5 8 -7 14 -7 19 1 4 7 18 2 40 -14 18 -14 39 -27 46 -28 7 -2 22
-13 32 -25 10 -13 28 -23 39 -23 14 0 18 -5 14 -16 -4 -12 -2 -15 9 -10 17 6
18 -7 6 -71 -5 -26 -5 -43 1 -43 5 0 6 -5 2 -11 -8 -14 -8 -330 0 -356 3 -11
2 -40 -3 -66 -4 -26 -5 -47 -1 -47 9 0 8 -19 -2 -35 -3 -5 -5 -39 -3 -75 1
-36 -2 -87 -6 -115 -4 -27 -4 -54 0 -60 4 -5 8 -23 10 -40 2 -16 7 -35 12 -41
5 -6 6 -21 3 -35 -9 -36 -10 -362 -2 -554 9 -212 10 -471 3 -509 -3 -16 -3
-36 1 -45 4 -9 6 -97 6 -196 0 -99 3 -201 7 -226 5 -31 3 -49 -5 -57 -13 -12
-10 -54 7 -110 8 -24 8 -37 -1 -47 -10 -12 -10 -15 1 -15 10 0 10 -3 1 -12
-15 -15 -16 -42 0 -32 7 4 8 3 4 -5 -4 -6 -11 -9 -16 -6 -5 3 -25 -6 -46 -20
-20 -14 -45 -25 -56 -25 -10 0 -36 -11 -58 -25 -22 -14 -44 -25 -50 -25 -5 0
-10 -4 -10 -10 0 -5 -5 -10 -11 -10 -6 0 -17 -7 -25 -15 -8 -8 -21 -12 -30 -8
-9 3 -14 0 -12 -8 2 -8 -7 -15 -19 -17 -13 -2 -23 -8 -23 -13 0 -5 -11 -9 -25
-9 -14 0 -25 -4 -25 -10 0 -5 -9 -10 -20 -10 -11 0 -23 -6 -26 -14 -3 -8 -16
-17 -29 -20 -14 -4 -29 -15 -35 -26 -6 -11 -20 -20 -31 -20 -12 0 -23 -8 -26
-19 -3 -13 -11 -17 -25 -13 -11 3 -24 -1 -29 -9 -4 -8 -13 -15 -19 -15 -5 -1
-15 -2 -21 -3 -5 0 -8 -5 -5 -10 4 -5 -2 -7 -13 -4 -11 3 -29 -6 -47 -22 -16
-15 -44 -33 -62 -41 -18 -7 -40 -20 -48 -29 -9 -8 -22 -15 -30 -15 -8 0 -14
-4 -14 -10 0 -5 -7 -10 -15 -10 -9 0 -34 -12 -58 -27 -23 -14 -44 -25 -46 -24
-2 2 -7 -1 -10 -6 -11 -15 -75 -56 -87 -56 -7 0 -15 -6 -18 -14 -3 -7 -13 -13
-22 -13 -10 0 -32 -11 -50 -25 -41 -31 -68 -32 -81 -2 -5 12 -8 74 -7 138 3
106 1 117 -19 143 -19 23 -32 28 -75 31 -29 2 -50 0 -47 -5 3 -4 -2 -10 -10
-14 -8 -3 -15 -1 -15 5 0 5 -9 1 -21 -9 -20 -19 -20 -28 -18 -328 2 -222 0
-315 -9 -329 -8 -15 -11 -16 -12 -5 0 9 -8 23 -17 32 -31 29 -48 52 -45 61 1
5 -7 11 -18 14 -11 3 -20 10 -20 15 0 5 5 6 12 2 6 -4 -2 10 -18 32 -16 21
-35 43 -42 47 -7 5 -10 12 -7 18 4 5 1 9 -4 9 -6 0 -11 7 -11 15 0 8 -7 15
-15 15 -9 0 -15 10 -15 26 0 28 -24 59 -39 50 -5 -3 -7 3 -4 13 3 13 -2 23
-16 30 -12 7 -21 20 -21 31 0 13 -5 18 -15 14 -11 -5 -13 -2 -9 9 8 22 -6 43
-17 26 -7 -11 -9 -9 -9 6 0 11 -9 27 -20 35 -11 8 -20 22 -20 32 0 9 -6 21
-13 25 -7 4 -21 22 -31 38 -44 68 -68 85 -121 85 -75 0 -89 -7 -108 -51 -16
-37 -17 -77 -12 -472 3 -238 8 -447 11 -464 3 -22 11 -33 22 -33 15 0 15 -2 2
-10 -18 -11 -5 -37 26 -54 10 -6 21 -14 24 -18 3 -3 22 -8 44 -9 33 -3 42 1
66 30 l28 33 -4 132 c-2 72 -5 191 -6 264 0 73 -4 135 -9 137 -15 10 4 45 24
45 11 0 25 7 32 16 11 15 12 15 17 -4 4 -12 1 -20 -4 -19 -6 1 -13 -4 -15 -10
-3 -7 1 -13 9 -13 7 0 19 -9 26 -20 6 -11 17 -18 24 -16 7 1 10 1 6 -1 -14 -8
36 -71 52 -66 10 3 9 -1 -4 -11 -17 -13 -17 -16 -4 -16 9 0 20 -9 23 -20 4
-12 11 -17 18 -14 7 4 9 4 5 -1 -13 -14 32 -85 73 -112 29 -19 36 -29 27 -34
-10 -7 -10 -9 0 -9 6 0 12 -9 12 -21 0 -11 4 -17 10 -14 6 4 7 -1 3 -11 -5
-14 -3 -16 11 -11 16 6 17 3 11 -20 -5 -22 -4 -25 8 -15 12 10 15 8 15 -13 0
-24 10 -39 55 -83 9 -9 17 -22 17 -29 0 -10 31 -34 50 -39 3 0 14 -5 24 -9 53
-23 152 5 161 45 3 14 5 99 5 190 0 91 0 174 0 185 0 11 -3 52 -6 90 -7 80 5
141 27 138 8 -1 26 -5 41 -9 42 -10 98 4 91 21 -4 11 -1 13 11 9 9 -3 16 -1
16 6 0 7 8 9 19 5 21 -6 38 20 18 29 -7 3 -2 3 11 0 13 -3 22 -1 22 6 0 6 4 9
9 5 5 -3 12 -1 16 4 9 15 66 41 89 41 12 0 32 14 46 30 14 17 30 30 36 30 6 0
17 7 24 15 7 9 19 14 26 11 7 -3 20 6 28 20 9 13 25 24 36 24 10 0 22 5 25 10
4 6 10 8 15 5 5 -3 20 5 33 17 45 41 57 49 67 43 6 -3 15 6 20 21 8 20 14 24
22 16 8 -8 17 -6 34 5 13 8 24 12 24 8 0 -4 11 0 25 9 14 9 25 14 25 10 0 -3
8 3 18 14 9 11 41 33 71 48 30 16 65 39 77 51 25 25 82 38 122 28 15 -4 39 -8
54 -8 14 -1 24 -5 22 -8 -6 -10 41 -46 58 -43 9 1 27 -9 41 -22 15 -14 32 -21
41 -18 11 4 16 0 16 -12 0 -14 8 -20 31 -21 17 -1 37 -10 44 -20 8 -10 17 -18
22 -19 18 -2 61 -23 68 -33 3 -6 17 -11 31 -11 13 0 24 -4 24 -10 0 -17 34
-50 50 -50 9 0 20 -4 25 -8 6 -4 36 -16 67 -26 32 -11 55 -23 52 -27 -3 -5 1
-6 8 -4 7 3 33 -12 57 -34 60 -54 209 -108 251 -91 27 11 49 40 31 40 -4 0 -6
10 -4 23 3 17 -5 28 -33 47 -21 14 -42 24 -46 22 -4 -1 -8 2 -8 8 0 5 -6 10
-14 10 -8 0 -16 6 -19 14 -6 15 -103 52 -126 47 -9 -2 -12 3 -7 14 3 9 2 13
-4 10 -6 -3 -10 -1 -10 4 0 6 -7 11 -17 11 -9 0 -13 3 -10 7 7 6 -20 25 -53
38 -8 3 -44 21 -80 39 -36 19 -71 31 -77 29 -7 -3 -13 0 -13 6 0 6 -6 11 -13
11 -8 0 -22 9 -31 19 -10 11 -31 23 -47 26 -16 4 -29 10 -29 14 0 4 -15 12
-33 19 -18 7 -43 21 -55 32 -12 12 -27 18 -34 14 -7 -4 -8 -3 -4 4 5 8 -1 12
-16 12 -30 1 -58 22 -59 46 0 18 -1 18 -9 -1 -8 -19 -9 -19 -9 3 -1 15 5 22
18 22 11 0 23 5 26 10 4 6 12 7 18 4 7 -4 9 -3 4 1 -4 5 -1 15 7 24 17 21 31
78 35 150 1 19 4 21 16 11 8 -6 19 -9 25 -5 5 3 10 -1 10 -9 0 -9 6 -16 14
-16 7 0 19 -7 26 -15 7 -9 19 -14 26 -11 8 3 13 0 11 -7 -1 -7 7 -11 21 -10
13 2 21 -1 18 -6 -3 -5 8 -14 24 -20 17 -5 30 -15 30 -20 0 -6 6 -11 14 -11 8
0 22 -10 30 -22 9 -12 18 -19 22 -15 3 3 13 -1 21 -9 9 -8 28 -18 44 -21 16
-3 29 -9 29 -14 0 -4 16 -11 35 -15 19 -3 40 -14 45 -23 5 -9 10 -13 10 -8 0
4 11 0 25 -9 13 -8 29 -13 35 -9 6 3 10 -3 10 -15 0 -16 5 -20 15 -16 8 3 15
1 15 -5 0 -10 38 -27 71 -32 11 -2 25 -9 31 -15 18 -18 56 -14 68 7 18 34 11
84 -15 114 -13 15 -29 27 -36 27 -7 0 -27 11 -45 25 -18 14 -47 28 -64 31 -16
4 -30 10 -30 15 0 5 -4 9 -9 9 -8 0 -44 20 -133 73 -16 9 -33 15 -39 12 -5 -3
-14 -1 -21 5 -46 39 -109 80 -122 80 -8 0 -19 6 -23 13 -4 7 -28 21 -53 32
-25 11 -54 28 -64 37 -11 10 -26 18 -33 18 -7 0 -13 5 -13 10 0 6 -8 10 -17 8
-21 -4 -23 15 -29 302 -2 118 -6 292 -8 385 -5 220 -5 271 -1 322 1 24 -1 41
-4 38 -4 -2 -8 5 -8 16 -1 12 2 17 9 13 8 -5 9 -1 4 12 -5 10 -9 67 -11 126
-2 58 -6 111 -9 116 -4 6 -2 13 3 16 5 3 8 23 8 43 0 21 3 55 7 76 4 20 4 42
0 48 -3 6 -8 90 -10 187 -2 97 -4 182 -4 187 -1 6 -1 33 0 60 0 28 -1 116 -3
198 -2 81 0 147 4 147 4 0 6 10 3 23 -3 12 -7 64 -9 115 -3 52 -8 98 -11 103
-3 6 0 16 6 24 6 8 9 18 6 23 -8 14 21 35 35 26 7 -4 9 -3 6 3 -7 12 20 27 41
24 6 -1 12 3 12 9 0 5 8 10 19 10 10 0 24 7 31 15 7 8 19 15 27 15 7 0 16 7
19 15 4 8 12 15 20 15 8 0 14 5 14 11 0 5 3 8 8 6 12 -8 54 12 47 23 -3 5 2
10 11 10 9 0 32 11 50 25 18 14 37 25 42 25 6 0 12 3 14 8 6 15 74 59 100 65
14 4 45 19 67 34 23 15 51 28 63 30 12 2 25 7 28 12 3 5 14 11 25 13 11 2 19
10 17 17 -2 8 4 10 18 6 11 -3 20 -3 20 2 0 9 8 13 84 51 25 12 54 32 65 43
10 11 25 21 32 23 30 5 105 44 123 65 11 11 29 21 41 21 12 0 30 9 41 21 22
24 69 51 77 43 2 -3 21 11 41 29 21 20 52 38 73 42 20 3 47 14 62 23 14 9 28
16 31 14 3 -1 6 7 8 18 3 15 9 19 21 15 10 -3 28 3 41 15 13 11 27 21 32 21 4
1 13 2 18 3 6 0 15 7 19 15 5 7 14 10 20 6 7 -4 18 -1 26 5 8 7 15 9 15 4 0
-5 18 -9 40 -8 22 0 40 -3 40 -8 0 -4 16 -8 35 -8 24 0 35 -5 35 -15 0 -8 8
-15 19 -15 10 0 25 -9 32 -20 8 -11 25 -23 38 -25 14 -2 27 -9 30 -14 3 -5 26
-15 51 -22 25 -8 60 -28 79 -46 20 -18 42 -32 51 -30 8 1 14 -3 13 -10 -1 -6
8 -10 22 -8 13 1 22 -1 20 -6 -3 -4 6 -16 20 -27 14 -11 25 -25 25 -31 0 -6 9
-12 20 -12 35 -2 38 -4 65 -27 14 -12 30 -20 35 -17 5 3 24 -8 42 -25 17 -17
37 -29 44 -26 6 2 21 -4 31 -14 12 -11 25 -15 34 -10 16 9 63 -23 51 -35 -4
-3 -2 -6 3 -4 16 4 45 -12 39 -22 -3 -5 6 -9 20 -9 14 0 28 -5 31 -11 4 -6 13
-8 21 -5 8 3 14 1 14 -4 0 -6 6 -10 14 -10 8 0 21 -9 29 -20 8 -11 17 -17 20
-14 4 4 9 -1 13 -10 3 -9 13 -16 21 -16 21 0 86 -31 101 -50 8 -8 11 -9 7 -2
-3 6 -1 12 4 12 6 0 11 -7 11 -15 0 -9 8 -18 18 -22 9 -3 29 -15 44 -25 14
-10 38 -18 53 -18 14 0 24 -4 20 -9 -3 -6 4 -15 15 -21 14 -8 20 -8 20 0 0 6
5 8 10 5 6 -4 8 -10 5 -15 -3 -5 7 -13 22 -16 15 -4 32 -11 38 -15 53 -43 75
-57 103 -68 17 -8 32 -20 32 -28 0 -8 5 -11 10 -8 6 3 11 0 11 -7 1 -7 3 -28
5 -46 2 -18 1 -31 -4 -29 -4 3 -7 -26 -7 -64 0 -39 4 -69 10 -69 5 0 3 -5 -5
-10 -13 -9 -13 -10 0 -10 11 0 12 -2 3 -8 -9 -6 -10 -17 -5 -38 5 -16 5 -91 1
-167 -4 -77 -5 -149 -2 -160 8 -34 7 -123 -2 -227 -8 -93 -9 -130 -6 -220 3
-109 -6 -468 -13 -478 -4 -7 -4 -12 1 -12 4 0 7 -20 6 -45 -1 -29 2 -43 9 -39
6 4 6 -2 -1 -15 -9 -15 -9 -32 -2 -58 6 -20 8 -47 5 -60 -4 -16 -2 -23 7 -23
8 0 22 -14 31 -30 9 -17 24 -30 32 -30 10 0 13 -6 10 -15 -4 -8 -1 -15 5 -15
6 0 11 5 11 10 0 6 10 2 22 -10 12 -11 30 -20 40 -20 11 0 16 -4 13 -10 -3 -5
6 -12 20 -16 14 -3 25 -10 25 -16 0 -5 5 -6 10 -3 6 3 10 1 10 -4 0 -6 7 -11
15 -11 8 0 15 -4 15 -10 0 -5 6 -10 14 -10 8 0 24 -11 37 -25 13 -13 32 -25
41 -25 23 0 85 -38 92 -55 3 -8 15 -15 26 -15 11 0 29 -9 40 -20 11 -11 23
-19 28 -18 12 2 59 -20 67 -31 3 -6 15 -11 26 -11 10 0 19 -5 19 -11 0 -6 9
-8 20 -4 11 4 20 2 20 -4 0 -6 4 -11 10 -11 5 0 20 -11 34 -25 14 -14 34 -25
45 -25 13 0 18 -5 15 -13 -3 -8 2 -14 11 -14 8 0 15 4 15 9 0 4 5 8 10 8 6 0
9 -3 9 -7 -3 -19 2 -33 12 -33 6 0 30 -14 55 -31 32 -22 50 -28 67 -23 19 6
20 5 8 -9 -11 -14 -11 -18 3 -23 9 -3 23 -4 31 0 8 3 15 1 15 -5 0 -6 9 -8 21
-4 15 5 19 4 15 -4 -4 -7 1 -11 12 -11 12 0 22 -9 26 -22 4 -17 8 -20 17 -11
9 9 16 7 28 -7 9 -11 22 -20 30 -22 12 -3 27 -15 82 -64 9 -8 21 -14 27 -14 7
0 12 -4 12 -8 0 -5 29 -17 64 -27 36 -10 63 -22 60 -27 -3 -4 -1 -8 3 -8 5 0
40 -20 78 -45 39 -25 75 -43 82 -40 7 2 15 -5 18 -16 4 -11 9 -18 12 -15 3 2
18 -4 35 -14 21 -13 38 -16 61 -10 44 10 87 31 87 43 0 5 7 4 15 -3 8 -7 15
-8 15 -2 0 5 9 12 20 15 14 4 18 10 13 23 -4 12 -3 15 5 10 14 -8 82 11 82 23
0 4 25 20 56 36 31 16 58 34 61 42 3 7 14 13 26 13 11 0 17 3 14 7 -9 9 41 33
57 27 7 -3 19 2 26 11 7 8 16 15 21 15 5 0 18 9 29 20 11 11 27 20 35 20 8 0
15 7 15 15 0 8 3 14 8 14 18 -3 33 2 28 9 -2 4 5 9 16 9 12 1 24 6 27 10 3 4
17 13 31 20 147 67 195 97 184 114 -3 5 -2 8 3 7 14 -4 53 13 53 23 0 5 7 9
16 9 23 0 104 39 104 50 0 6 9 10 20 10 10 0 23 6 27 13 4 7 24 19 43 27 45
18 81 45 72 55 -4 4 3 5 16 2 12 -3 28 0 35 6 6 7 29 21 50 32 20 11 37 23 37
27 0 5 10 8 23 8 12 0 33 10 47 23 14 13 31 22 38 19 6 -2 12 1 12 7 0 6 6 11
14 11 8 0 21 8 28 18 7 10 29 24 48 31 56 19 90 35 90 43 0 24 94 -5 120 -37
7 -9 29 -23 49 -32 20 -9 38 -19 41 -22 9 -11 45 -31 72 -42 16 -6 26 -15 23
-20 -3 -4 5 -11 19 -15 13 -3 45 -17 72 -30 26 -13 53 -24 59 -24 6 0 22 -10
35 -22 14 -13 28 -22 32 -20 5 1 8 -2 8 -6 0 -5 21 -20 48 -33 26 -13 50 -28
53 -33 4 -5 12 -5 18 -2 6 4 11 3 11 -3 0 -6 7 -7 17 -4 11 4 14 3 9 -5 -6
-11 5 -17 27 -13 4 0 6 -5 5 -11 -2 -7 3 -12 10 -10 6 1 12 -2 12 -8 0 -5 7
-10 15 -10 9 0 18 -6 21 -14 3 -8 12 -12 20 -9 8 3 14 -1 14 -11 0 -9 7 -16
15 -16 8 0 15 -4 15 -9 0 -11 39 -26 57 -23 7 2 10 -3 8 -10 -6 -15 46 -38 84
-38 28 0 96 28 88 36 -4 4 -2 15 3 24 7 13 5 21 -5 30 -8 7 -15 18 -15 24 0
14 -43 40 -132 82 -32 15 -58 31 -58 36 0 4 -7 8 -15 8 -8 0 -15 5 -15 10 0 6
-6 10 -14 10 -7 0 -19 7 -26 15 -7 8 -16 12 -21 9 -5 -3 -9 -1 -9 5 0 6 -12
14 -27 17 -15 4 -38 18 -51 31 -12 12 -31 23 -42 23 -10 0 -20 4 -22 8 -1 4
-30 20 -63 36 -33 15 -73 38 -90 50 -28 21 -66 39 -90 41 -5 0 -9 6 -8 13 2 6
-4 9 -12 6 -8 -4 -15 -1 -15 5 0 6 -4 11 -10 11 -5 0 -20 11 -34 25 -14 14
-35 25 -48 25 -13 0 -43 16 -67 35 -25 20 -54 38 -67 41 -12 3 -25 15 -29 27
-5 16 -16 630 -15 847 0 8 0 47 -1 85 0 39 -1 165 -2 282 -1 116 -5 209 -9
206 -5 -2 -8 1 -8 6 0 6 4 11 8 11 9 0 7 304 -3 348 -4 21 -18 39 -41 52 -19
12 -34 26 -34 31 0 5 -3 8 -7 7 -13 -2 -59 19 -74 34 -8 8 -45 30 -84 49 -85
43 -115 60 -137 78 -10 8 -18 11 -18 7 0 -4 -16 6 -36 22 -20 17 -43 28 -50
25 -8 -3 -14 0 -14 6 0 6 -16 17 -35 25 -19 8 -35 20 -35 25 0 6 -9 11 -20 11
-21 0 -123 56 -128 71 -2 5 -8 9 -13 9 -14 0 -124 53 -127 62 -2 4 -8 8 -14 8
-5 0 -21 9 -35 20 -14 11 -32 20 -40 20 -8 0 -32 14 -53 31 -21 17 -43 28 -49
24 -6 -3 -11 -2 -11 2 0 8 -9 14 -66 43 -16 8 -31 18 -34 21 -9 12 -95 56
-122 63 -16 3 -28 11 -28 16 0 6 -5 10 -11 10 -6 0 -29 14 -50 31 -21 17 -39
28 -39 25 0 -4 -17 4 -37 17 -21 13 -52 29 -70 36 -17 7 -34 19 -37 27 -3 8
-14 14 -25 14 -11 0 -27 7 -36 16 -9 9 -19 14 -22 11 -3 -3 -12 0 -20 8 -8 8
-22 15 -31 16 -9 0 -32 1 -50 2 -19 1 -36 -2 -39 -6 -3 -5 -16 -12 -30 -18
-13 -5 -21 -13 -18 -19 3 -5 0 -10 -9 -10 -23 0 -99 -35 -125 -59 -13 -11 -27
-18 -32 -15 -5 3 -6 -3 -2 -12 4 -11 2 -15 -7 -12 -8 2 -22 -4 -32 -14 -9 -9
-24 -15 -32 -12 -8 3 -27 -6 -43 -20 -15 -14 -33 -26 -40 -26 -7 0 -13 -4 -13
-8 0 -9 -62 -42 -112 -61 -16 -6 -28 -15 -28 -21 0 -7 -8 -9 -20 -5 -15 5 -18
3 -14 -9 4 -11 0 -13 -17 -9 -14 4 -20 2 -15 -5 4 -6 -8 -16 -29 -23 -19 -7
-35 -17 -35 -22 0 -5 -7 -7 -15 -3 -8 3 -14 0 -12 -7 1 -7 -8 -12 -20 -11 -13
0 -21 -1 -18 -4 9 -9 -24 -32 -49 -34 -14 -1 -26 -6 -26 -10 0 -5 -12 -14 -27
-21 -15 -6 -36 -20 -46 -30 -10 -10 -24 -16 -30 -14 -7 2 -19 -4 -27 -13 -8
-9 -49 -33 -90 -53 -41 -20 -69 -37 -62 -37 7 0 12 -5 12 -11 0 -5 -10 -9 -22
-7 -14 2 -22 -2 -21 -9 2 -7 -4 -10 -13 -6 -9 3 -19 1 -23 -6 -4 -7 -20 -13
-36 -15 -17 -2 -33 -13 -44 -29 -8 -15 -24 -27 -35 -27 -11 0 -33 -12 -48 -27
-17 -16 -28 -21 -28 -13 0 9 -7 8 -22 -7 -31 -27 -96 -63 -113 -63 -8 0 -20
-9 -27 -20 -7 -11 -21 -20 -30 -20 -10 0 -18 -5 -18 -11 0 -6 -7 -8 -16 -5 -9
4 -22 2 -28 -3 -7 -6 -27 -1 -56 13 -65 32 -143 76 -160 91 -8 7 -26 16 -40
20 -14 4 -34 14 -45 21 -11 8 -25 14 -32 14 -13 0 -106 60 -111 73 -2 4 -12 7
-21 7 -10 0 -29 8 -42 18 -13 10 -42 27 -64 37 -22 11 -41 23 -43 28 -2 4 -10
7 -18 7 -8 0 -14 5 -14 11 0 6 -7 9 -15 6 -8 -4 -17 -2 -20 4 -4 5 -10 7 -15
4 -4 -3 -10 2 -14 10 -3 8 -15 15 -26 15 -11 0 -20 5 -20 10 0 6 -5 10 -11 10
-7 0 -18 8 -25 18 -9 11 -13 13 -14 4 0 -9 -13 -4 -37 15 -49 36 -79 53 -97
53 -7 0 -19 6 -26 14 -6 8 -18 12 -26 9 -8 -3 -14 0 -14 5 0 6 -8 13 -18 16
-10 4 -36 22 -57 40 -36 33 -87 52 -106 40 -5 -3 -9 2 -9 10 0 9 -11 18 -25
22 -14 3 -32 15 -39 26 -7 10 -17 18 -22 17 -16 -4 -58 18 -87 45 -15 14 -34
23 -42 20 -8 -4 -15 -1 -15 5 0 6 -7 11 -15 11 -7 0 -18 6 -22 14 -8 14 -51
39 -68 41 -45 4 -95 65 -82 99 3 7 1 18 -4 23 -5 5 -9 27 -9 48 0 22 -1 101
-1 175 -1 218 0 547 3 652 3 84 0 100 -16 115 -13 13 -20 15 -23 6 -3 -7 -10
-13 -17 -13 -18 0 -56 -86 -43 -99 7 -7 6 -15 -2 -25 -7 -8 -11 -20 -10 -28 4
-30 -2 -49 -12 -42 -6 3 -5 -4 3 -17 11 -18 14 -52 12 -139 -1 -63 -5 -134 -8
-157 -3 -24 -2 -43 2 -43 4 0 5 -33 3 -72 -2 -40 -3 -113 -2 -163 2 -91 3
-166 2 -219 0 -16 -6 -33 -13 -38 -10 -6 -10 -8 0 -8 6 0 12 -5 12 -11 0 -6
-7 -8 -16 -5 -12 5 -15 2 -10 -9 3 -9 2 -14 -3 -11 -4 3 -24 -4 -45 -15 -20
-11 -42 -16 -48 -13 -7 4 -8 3 -4 -4 5 -8 0 -12 -13 -12 -12 0 -20 -5 -18 -12
1 -6 -13 -16 -30 -21 -18 -5 -33 -14 -33 -18 0 -5 -5 -9 -11 -9 -7 0 -17 -7
-23 -15 -6 -9 -21 -17 -34 -18 -12 0 -22 -5 -22 -9 0 -4 -7 -8 -15 -8 -8 0
-23 -9 -32 -20 -10 -11 -21 -20 -26 -20 -5 0 -15 -7 -24 -16 -9 -8 -21 -13
-28 -10 -7 2 -17 -6 -23 -19 -8 -17 -17 -22 -31 -18 -12 3 -21 1 -21 -6 0 -6
-3 -10 -7 -9 -5 1 -18 -3 -29 -10 -12 -6 -24 -8 -28 -4 -4 3 -4 -1 -1 -10 5
-12 -2 -17 -30 -22 -19 -4 -33 -11 -30 -17 4 -5 0 -9 -8 -9 -8 0 -17 -6 -20
-14 -4 -9 -14 -12 -26 -9 -13 3 -21 1 -21 -7 0 -7 -7 -10 -15 -6 -8 3 -14 0
-12 -7 1 -9 -45 -27 -93 -36 -3 -1 2 -6 10 -11 12 -8 9 -10 -14 -10 -22 0 -27
-4 -22 -16 5 -13 1 -15 -19 -12 -14 3 -25 1 -25 -3 0 -5 -7 -9 -15 -9 -8 0
-24 -9 -35 -20 -11 -11 -31 -20 -45 -20 -14 0 -28 -6 -31 -14 -3 -8 -19 -18
-35 -21 -16 -4 -29 -13 -29 -21 0 -8 -6 -14 -13 -14 -25 0 -77 -31 -77 -46 0
-8 -3 -13 -7 -12 -18 3 -63 -15 -79 -33 -9 -10 -23 -19 -31 -19 -7 0 -16 -7
-19 -15 -4 -9 -11 -14 -18 -13 -18 3 -56 -12 -56 -23 0 -6 -4 -8 -9 -4 -5 3
-12 1 -16 -5 -3 -5 -15 -10 -26 -10 -10 0 -19 -5 -19 -10 0 -6 -17 -17 -37
-26 -21 -9 -54 -24 -73 -33 -37 -18 -60 -19 -100 -3 -14 5 -27 9 -30 8 -3 0
-19 11 -35 27 -16 15 -37 27 -46 27 -8 0 -24 8 -35 18 -20 19 -54 36 -66 34
-5 -1 -8 2 -8 8 0 5 -7 7 -15 4 -8 -4 -15 -2 -15 4 0 5 -10 12 -23 16 -13 3
-34 15 -47 26 -13 11 -31 20 -42 20 -10 0 -18 5 -18 10 0 6 -34 27 -75 47 -41
19 -72 39 -69 44 3 5 -8 12 -25 15 -17 4 -28 10 -25 15 5 8 -9 13 -28 10 -5 0
-8 4 -8 10 0 5 -4 7 -10 4 -5 -3 -10 -1 -10 5 0 7 -7 9 -15 6 -9 -3 -18 1 -21
9 -4 8 -10 12 -15 9 -5 -3 -12 2 -15 11 -4 9 -12 14 -19 11 -7 -2 -21 4 -31
15 -9 10 -21 19 -26 19 -17 0 -143 64 -151 77 -4 7 -15 13 -22 13 -8 0 -15 4
-15 10 0 11 -89 52 -99 45 -4 -2 -14 5 -21 16 -8 10 -19 19 -24 19 -5 0 -17
10 -27 22 -11 11 -19 18 -19 14 0 -8 -96 41 -122 62 -9 8 -22 11 -27 7 -6 -3
-11 0 -11 8 0 18 -54 42 -104 46 -5 1 -3 7 3 15 9 11 6 14 -16 14 -14 0 -31 6
-37 14 -6 8 -23 18 -38 22 -16 3 -28 11 -28 17 0 6 -4 8 -8 5 -5 -3 -15 7 -23
22 -8 15 -21 32 -29 39 -11 9 -12 12 -2 13 7 0 10 5 6 11 -4 7 -8 192 -9 413
-1 220 -3 473 -4 561 0 88 0 167 0 175 1 8 -2 67 -5 130 -14 253 -13 422 1
452 19 38 76 80 97 72 9 -3 16 -1 16 5 0 6 7 11 15 11 7 0 18 6 22 14 4 8 15
16 23 18 8 2 21 9 28 16 7 6 20 12 28 12 8 0 14 4 14 9 0 6 23 22 50 37 28 15
50 31 50 36 0 5 11 6 25 2 19 -5 25 -2 25 10 0 9 3 15 8 14 12 -2 62 21 105
50 60 40 115 64 130 56 6 -4 9 -4 5 1 -4 4 9 17 30 27 20 11 46 29 57 39 12
10 36 24 55 30 19 7 52 25 73 41 20 17 37 27 37 23 0 -3 13 3 29 14 16 12 34
21 40 21 6 0 10 6 8 13 -1 6 5 12 13 12 8 0 23 8 34 17 10 9 47 27 82 39 39
14 80 38 105 61 22 21 49 38 60 38 10 0 19 5 19 10 0 6 6 10 13 10 8 0 22 9
31 19 10 10 33 22 52 25 19 4 34 12 34 18 0 6 10 8 25 4 20 -5 25 -3 25 14 0
11 5 21 10 21 6 1 15 2 21 3 6 0 16 8 22 17 19 26 76 51 99 43 15 -5 19 -3 13
7 -5 9 -1 8 11 -2 10 -9 30 -20 44 -24 35 -11 92 -42 100 -55 7 -11 27 -17 58
-19 7 -1 10 -5 7 -11 -3 -5 0 -10 8 -10 7 0 62 -29 122 -65 60 -36 119 -68
132 -71 13 -4 29 -15 37 -25 7 -10 15 -17 18 -14 7 7 88 -34 88 -45 0 -5 6 -7
13 -4 7 2 22 -5 34 -16 12 -11 26 -20 30 -20 4 0 19 -9 33 -20 14 -11 33 -20
42 -20 9 0 25 -11 36 -25 11 -13 22 -22 25 -18 4 3 13 1 20 -5 8 -7 17 -9 20
-5 4 3 7 1 7 -6 0 -6 11 -16 25 -21 14 -5 25 -13 25 -18 0 -11 110 -43 134
-39 11 2 23 13 27 24 10 27 -32 79 -71 88 -17 4 -30 13 -30 20 0 7 -12 18 -27
24 -28 10 -95 48 -143 79 -14 9 -31 15 -37 14 -7 -2 -22 6 -33 16 -23 21 -119
72 -137 72 -6 0 -14 7 -17 16 -3 8 -10 13 -14 10 -5 -3 -32 10 -61 29 -29 19
-58 35 -64 35 -5 0 -17 7 -26 15 -22 22 -91 66 -91 58 0 -3 -6 0 -13 6 -8 6
-16 9 -18 6 -8 -7 -63 45 -65 62 -8 52 -15 233 -20 498 -3 165 -7 318 -9 340
-2 22 1 60 7 85 14 64 17 179 4 189 -6 5 -18 6 -26 3z m-3504 -1145 c4 -4 13
-7 21 -7 7 0 22 -9 33 -20 11 -11 27 -20 36 -20 9 0 31 -16 49 -34 18 -19 35
-32 38 -29 3 3 23 -5 43 -18 20 -12 59 -33 85 -47 27 -13 47 -27 44 -32 -6 -9
19 -20 46 -20 11 0 22 -7 25 -15 4 -8 12 -15 19 -15 7 0 18 -7 25 -15 7 -8 28
-17 49 -21 20 -4 38 -10 41 -14 7 -10 109 -80 116 -80 4 0 31 -16 60 -35 29
-19 57 -35 63 -35 6 0 28 -10 49 -23 20 -13 54 -31 74 -40 20 -10 40 -22 43
-27 3 -6 15 -10 25 -10 10 0 23 -6 27 -14 4 -7 32 -26 61 -41 28 -15 52 -32
53 -39 0 -7 2 -7 6 1 3 9 16 3 42 -17 20 -16 49 -31 65 -32 16 -2 30 -8 33
-15 3 -6 11 -9 19 -6 8 3 14 0 14 -7 0 -19 24 -37 58 -45 18 -3 32 -10 32 -15
0 -5 18 -16 40 -26 21 -10 37 -21 34 -26 -3 -4 -1 -8 4 -8 4 0 18 -9 31 -21
18 -17 25 -19 39 -8 9 7 14 9 9 4 -4 -4 -1 -15 7 -24 15 -18 27 -83 14 -74 -5
3 -6 -12 -1 -34 4 -21 7 -99 6 -173 -1 -81 2 -137 8 -141 7 -4 7 -24 2 -55 -5
-27 -7 -121 -5 -209 7 -343 6 -731 -2 -750 -6 -16 -6 -17 3 -5 7 11 10 -24 8
-125 -1 -77 2 -155 6 -172 7 -28 6 -33 -10 -34 -17 0 -17 -1 1 -8 18 -7 18 -8
3 -14 -9 -3 -17 -16 -17 -27 0 -18 -21 -27 -53 -21 -5 1 -6 -2 -3 -7 6 -11
-61 -35 -74 -27 -5 3 -10 1 -10 -5 0 -5 -13 -24 -28 -40 -22 -22 -31 -27 -40
-18 -8 8 -12 8 -12 1 0 -6 -9 -13 -21 -16 -13 -4 -18 -10 -13 -18 4 -8 3 -10
-4 -5 -14 9 -93 -33 -86 -45 3 -5 -7 -11 -21 -15 -14 -3 -22 -11 -18 -17 4 -6
0 -8 -9 -4 -9 3 -21 0 -27 -6 -7 -7 -15 -12 -19 -12 -15 0 -61 -43 -54 -50 4
-4 -5 -5 -19 -1 -19 4 -29 1 -33 -9 -3 -8 -12 -15 -20 -15 -7 0 -16 -7 -20
-15 -3 -8 -9 -14 -13 -13 -5 2 -19 -7 -33 -19 -13 -13 -32 -23 -42 -23 -10 0
-21 -7 -24 -15 -4 -8 -13 -15 -21 -15 -7 0 -26 -11 -40 -24 -15 -14 -30 -23
-33 -21 -4 3 -15 -4 -25 -15 -13 -14 -21 -17 -26 -9 -7 11 -44 -10 -96 -54
-12 -11 -26 -16 -31 -13 -6 3 -12 0 -15 -7 -3 -6 -22 -21 -43 -32 -22 -10 -47
-25 -56 -33 -9 -8 -22 -11 -29 -6 -8 4 -10 3 -5 -4 4 -7 1 -12 -9 -12 -10 0
-13 -5 -9 -12 5 -7 3 -8 -5 -3 -7 4 -22 -2 -36 -15 -22 -21 -119 -77 -178
-102 -15 -7 -25 -18 -23 -24 3 -7 -2 -10 -13 -7 -15 4 -27 -4 -78 -47 -7 -5
-15 -10 -19 -10 -4 0 -15 -7 -25 -16 -23 -20 -66 -25 -80 -8 -6 8 -15 12 -19
9 -4 -3 -13 2 -20 10 -7 8 -18 15 -26 15 -7 0 -19 6 -26 13 -15 15 -81 47 -96
47 -6 0 -24 12 -39 26 -15 14 -50 37 -78 51 -27 14 -60 34 -73 44 -13 10 -31
16 -41 14 -11 -2 -29 7 -41 20 -12 13 -28 21 -35 19 -7 -3 -15 2 -18 10 -3 8
-22 22 -41 31 -20 10 -36 21 -36 26 0 5 -11 9 -24 9 -13 0 -29 6 -35 14 -7 8
-24 17 -38 21 -14 3 -40 17 -57 29 -17 13 -41 27 -53 30 -13 4 -29 13 -36 19
-31 29 -109 77 -125 77 -18 0 -94 44 -122 71 -32 30 -72 50 -105 51 -20 1 -35
6 -35 13 0 7 -17 21 -37 30 -20 10 -61 33 -90 51 -28 19 -56 34 -60 34 -4 0
-30 16 -57 35 -27 19 -54 35 -60 35 -6 1 -24 12 -41 25 l-30 25 -5 237 c-5
219 -5 522 1 898 1 83 0 267 -2 411 -3 257 -3 261 19 284 12 13 22 29 22 36 0
6 16 15 35 18 19 4 38 13 42 20 9 15 70 46 90 46 7 0 13 4 13 10 0 5 11 12 25
16 13 3 29 12 35 19 6 8 18 11 26 8 7 -3 17 2 20 11 3 9 14 16 25 16 10 0 24
8 31 18 7 9 32 26 55 36 23 10 44 24 47 32 3 7 21 16 41 20 20 3 39 13 42 20
3 8 12 14 21 14 14 0 117 56 182 99 14 10 40 23 58 30 17 8 32 17 32 22 0 5 7
9 15 9 8 0 15 4 15 10 0 5 18 15 40 21 21 7 37 15 35 20 -3 4 4 5 15 2 11 -3
20 -1 20 4 0 5 19 20 43 33 23 13 44 26 47 30 3 3 22 14 43 23 20 10 37 22 37
28 0 6 4 8 8 5 5 -3 32 13 60 35 29 21 56 39 61 39 13 0 144 70 164 87 9 9 17
13 17 8 0 -4 7 -1 16 6 42 35 103 53 120 36z m8377 -2831 c3 3 18 -8 34 -24
16 -17 41 -34 56 -37 16 -4 26 -10 23 -12 -3 -3 5 -14 17 -23 15 -13 24 -15
29 -7 4 7 15 2 30 -16 13 -15 29 -27 36 -27 7 0 12 -4 12 -10 0 -5 9 -10 19
-10 11 0 23 -5 26 -11 4 -5 14 -9 23 -7 9 2 32 -12 52 -31 19 -19 63 -47 97
-63 33 -16 73 -40 86 -52 14 -13 28 -22 30 -20 7 7 57 -18 57 -28 0 -4 9 -8
20 -8 11 0 20 -5 20 -11 0 -8 4 -8 13 0 11 8 19 5 36 -15 13 -14 29 -23 37
-20 8 3 14 0 14 -6 0 -6 3 -9 6 -6 3 3 16 -4 29 -16 40 -36 53 -45 58 -39 8 7
67 -29 67 -42 0 -5 5 -3 10 5 6 10 10 11 10 3 0 -7 6 -13 14 -13 8 0 17 -7 20
-16 3 -9 13 -14 20 -11 8 3 17 -1 20 -9 3 -8 17 -19 31 -24 14 -5 25 -14 25
-20 0 -5 9 -10 21 -10 13 0 18 -4 13 -12 -4 -6 -3 -8 4 -4 12 7 132 -60 132
-74 0 -6 4 -9 8 -7 11 3 82 -36 82 -45 0 -5 9 -8 19 -8 11 0 22 -6 24 -12 4
-10 8 -9 16 2 8 11 11 12 11 2 0 -20 25 -41 56 -46 15 -3 32 -12 36 -21 5 -8
15 -15 23 -15 9 0 12 -6 9 -15 -4 -8 -2 -15 4 -15 6 0 10 -115 12 -307 1 -170
3 -339 3 -378 1 -38 0 -97 -1 -130 -4 -108 -3 -139 8 -194 5 -29 7 -58 2 -65
-7 -11 -12 -50 -13 -96 -1 -129 4 -227 13 -237 6 -7 8 -20 4 -28 -7 -19 -8
-169 -2 -214 4 -24 0 -42 -15 -62 -11 -16 -24 -27 -29 -24 -4 3 -10 -2 -14
-10 -3 -8 -12 -15 -21 -15 -8 0 -15 -4 -15 -10 0 -5 -15 -13 -34 -19 -19 -5
-54 -22 -78 -38 -24 -16 -56 -35 -73 -43 -16 -8 -32 -18 -35 -22 -3 -3 -12 -8
-20 -10 -8 -2 -23 -11 -32 -21 -9 -10 -19 -18 -22 -18 -14 1 -42 -14 -57 -31
-9 -10 -23 -18 -31 -18 -9 0 -21 -7 -28 -15 -7 -8 -21 -15 -31 -15 -11 0 -28
-9 -39 -20 -12 -12 -25 -18 -30 -15 -6 4 -10 2 -10 -3 0 -8 -66 -45 -83 -46
-4 -1 -11 -6 -15 -11 -4 -6 -20 -17 -37 -25 -16 -8 -37 -19 -45 -26 -8 -6 -36
-19 -62 -29 -26 -9 -49 -24 -52 -32 -3 -8 -10 -12 -15 -8 -5 3 -12 1 -16 -4
-3 -6 -28 -22 -55 -37 -28 -15 -50 -30 -50 -34 0 -4 -12 -7 -26 -7 -15 0 -29
-5 -33 -11 -10 -17 -79 -61 -106 -68 -14 -3 -25 -10 -25 -14 0 -5 -10 -12 -22
-16 -13 -4 -26 -11 -29 -16 -3 -5 -12 -11 -20 -12 -29 -6 -85 -35 -106 -56
-13 -11 -23 -18 -23 -15 0 3 -13 -1 -30 -10 -16 -9 -30 -20 -30 -25 0 -6 -11
-10 -24 -10 -13 0 -26 -5 -28 -10 -4 -14 -82 -41 -86 -30 -2 5 -10 6 -18 3 -8
-3 -14 1 -14 11 0 9 -6 16 -14 16 -8 0 -58 27 -113 60 -54 33 -103 60 -109 60
-6 0 -28 14 -49 30 -21 17 -44 30 -51 30 -8 0 -14 4 -14 9 0 5 -15 12 -33 15
-19 3 -43 15 -54 26 -12 10 -24 16 -28 12 -3 -4 -11 1 -16 11 -6 9 -17 17 -24
17 -8 0 -15 5 -15 10 0 6 -9 10 -21 10 -11 0 -18 4 -14 9 3 5 -12 15 -32 21
-21 7 -42 16 -48 21 -5 5 -19 9 -32 9 -13 0 -23 4 -23 8 0 5 -18 18 -40 31
-22 12 -40 26 -40 31 0 5 -17 14 -37 21 -40 13 -115 58 -122 73 -2 4 -7 3 -10
-3 -5 -8 -18 -2 -38 18 -17 16 -45 32 -62 36 -17 4 -31 10 -31 15 0 9 -69 44
-90 45 -8 0 -14 6 -12 13 1 6 -3 12 -10 12 -6 0 -26 11 -45 26 -18 14 -37 23
-42 20 -5 -3 -11 1 -15 9 -3 8 -13 15 -22 15 -18 0 -77 31 -82 43 -2 4 -10 7
-18 7 -9 0 -13 4 -9 9 3 6 -10 13 -30 17 -19 3 -35 10 -35 15 0 5 -7 6 -15 3
-9 -4 -15 0 -15 10 0 9 -4 16 -9 16 -16 0 -24 61 -22 153 1 48 -1 92 -4 97 -7
12 -10 363 -3 376 2 5 3 27 1 49 -7 64 -6 117 2 165 4 25 8 230 10 455 1 226
5 424 9 442 5 22 12 30 22 26 8 -3 14 0 14 6 0 6 -5 11 -12 11 -27 0 9 16 45
19 4 1 7 7 7 14 0 21 22 38 35 27 13 -11 45 -3 45 11 0 4 -8 6 -17 3 -15 -5
-15 -4 -3 4 8 6 17 9 21 6 4 -2 20 3 35 11 16 8 35 15 41 15 7 0 12 3 12 8 -4
21 4 30 26 30 14 0 32 8 39 17 8 11 20 16 29 12 9 -3 22 3 33 18 10 13 21 22
26 19 4 -3 8 2 8 11 0 9 6 15 13 14 19 -2 57 12 57 22 0 5 7 6 15 3 8 -4 15
-2 15 3 0 5 16 17 36 26 21 11 32 22 28 29 -4 7 -3 8 4 4 7 -4 12 -2 12 4 0 6
4 9 8 6 5 -3 19 1 33 8 13 7 31 10 38 8 8 -3 11 0 7 7 -4 6 -1 11 7 11 8 0 29
14 47 30 18 17 40 30 49 30 10 0 26 6 36 14 11 8 26 11 34 8 10 -4 12 -1 6 8
-6 10 -4 12 8 7 10 -3 17 -2 17 3 0 5 10 12 22 15 11 4 32 19 46 34 13 14 30
25 37 23 7 -1 15 4 19 13 3 8 14 15 25 15 11 0 27 10 35 22 11 16 16 18 17 8
0 -11 2 -11 6 -2 2 6 11 12 19 12 8 0 14 7 14 16 0 8 4 13 9 9 5 -3 12 -1 16
5 3 5 15 10 26 10 10 0 19 5 19 10 0 6 9 10 20 10 10 0 23 7 28 16 5 9 11 15
13 13 8 -4 49 26 49 36 0 6 22 18 49 28 26 9 60 28 74 42 16 17 28 22 32 15 4
-7 18 1 38 20 17 17 37 28 43 26 7 -3 25 -1 41 3 15 5 33 4 39 0 6 -5 13 -6
17 -3z m-5108 -3776 c-3 -5 -12 -10 -18 -10 -7 0 -6 4 3 10 19 12 23 12 15 0z
m-1214 -658 c-7 -2 -18 1 -23 6 -8 8 -4 9 13 5 13 -4 18 -8 10 -11z"/>
<path d="M10010 13280 c-99 -60 -150 -89 -150 -83 0 4 -7 -3 -16 -15 -8 -12
-19 -22 -24 -22 -5 0 -31 -13 -58 -29 -27 -16 -60 -32 -73 -36 -13 -4 -42 -20
-64 -35 -22 -14 -57 -34 -77 -44 -21 -9 -38 -20 -38 -25 0 -8 -81 -46 -93 -43
-4 1 -18 -3 -30 -9 -23 -12 -33 -20 -79 -63 -16 -14 -28 -20 -28 -13 -1 7 -10
1 -20 -12 -11 -13 -20 -20 -20 -16 0 4 -6 2 -13 -4 -8 -6 -17 -8 -20 -4 -4 3
-7 1 -7 -5 0 -7 -7 -12 -15 -12 -8 0 -15 -4 -15 -9 0 -10 -39 -27 -52 -23 -5
1 -8 -5 -8 -14 0 -11 -6 -15 -18 -12 -10 3 -23 0 -29 -6 -29 -27 -43 -36 -56
-36 -8 0 -20 -7 -27 -15 -7 -8 -16 -12 -21 -9 -5 3 -8 0 -7 -7 2 -7 -3 -13
-10 -14 -7 0 -17 -7 -22 -15 -5 -8 -10 -12 -10 -8 0 18 -120 -52 -120 -69 0
-7 -4 -13 -8 -13 -10 0 -12 -25 -6 -62 5 -27 11 -28 57 -10 16 7 30 12 33 12
3 0 16 11 29 24 13 14 34 27 45 31 11 3 20 10 20 14 0 5 19 16 43 25 23 8 66
32 95 51 29 19 69 42 88 51 19 9 34 20 34 24 0 5 17 14 38 21 35 11 103 56
110 72 2 4 8 5 13 2 12 -8 77 27 119 64 19 17 45 31 58 31 12 0 22 5 22 12 0
6 3 8 6 5 7 -7 97 42 102 55 2 4 10 8 17 8 8 0 20 6 27 13 22 23 58 38 70 31
7 -4 8 -3 4 4 -4 7 -1 12 6 13 34 2 51 10 105 51 32 24 71 51 88 59 66 32 95
79 71 117 -8 14 -44 15 -66 2z"/>
<path d="M8802 11008 c-24 -24 -4 -88 29 -88 5 0 28 -18 50 -40 23 -22 48 -40
56 -40 7 0 42 -18 75 -40 34 -22 68 -40 75 -40 7 0 13 -4 13 -10 0 -5 5 -10
12 -10 6 0 52 -25 102 -56 50 -31 96 -57 103 -57 7 0 10 -4 7 -8 -6 -10 31
-31 40 -22 3 3 6 1 6 -5 0 -7 5 -12 10 -12 6 0 22 -8 36 -17 14 -9 37 -18 52
-19 14 -2 28 -7 31 -11 3 -5 33 -30 66 -56 33 -26 65 -52 72 -57 7 -6 17 -10
23 -10 9 0 69 -34 136 -78 10 -7 34 -19 52 -27 17 -9 32 -20 32 -26 0 -7 11
-9 25 -7 14 3 25 1 25 -4 0 -5 4 -7 9 -3 6 3 15 -4 21 -15 12 -22 68 -49 113
-54 15 -2 31 -6 34 -10 8 -8 33 41 33 64 0 18 -80 90 -80 73 0 -4 -6 -1 -13 8
-7 9 -27 23 -44 33 -18 9 -33 20 -33 25 0 5 -16 12 -35 15 -19 4 -35 11 -35
16 0 6 -6 10 -13 10 -7 0 -18 9 -25 20 -7 11 -21 20 -32 20 -10 0 -23 7 -28
16 -6 10 -17 15 -29 12 -10 -3 -24 0 -30 6 -31 29 -45 37 -63 39 -11 1 -20 5
-20 9 0 4 -8 8 -17 8 -9 0 -14 3 -10 6 6 6 -30 27 -160 94 -35 17 -67 39 -72
48 -5 9 -12 16 -15 15 -17 -8 -38 1 -77 32 -24 19 -51 35 -60 35 -9 0 -22 7
-29 15 -7 8 -18 15 -24 15 -7 0 -21 8 -32 18 -10 10 -23 20 -29 21 -27 9 -40
15 -45 21 -3 4 -32 20 -65 36 -33 16 -66 37 -73 47 -7 9 -18 14 -24 11 -6 -4
-16 -1 -22 7 -28 35 -82 49 -104 27z"/>
<path d="M18439 10483 c-15 -17 -16 -34 -5 -78 2 -11 5 -23 5 -27 1 -5 10 -8
21 -8 11 0 20 -6 20 -14 0 -16 21 -26 54 -26 12 0 27 -5 33 -11 13 -13 37 -27
113 -66 30 -15 62 -35 70 -44 8 -9 21 -14 28 -12 11 4 16 -8 13 -29 0 -4 5 -5
13 -2 8 3 17 1 21 -5 3 -6 13 -11 22 -11 9 0 30 -10 47 -23 17 -13 45 -30 61
-39 17 -8 47 -24 68 -36 20 -12 37 -19 37 -16 0 5 17 -8 51 -39 11 -10 29 -20
39 -22 28 -5 90 -36 90 -45 0 -4 11 -6 25 -5 14 2 27 -1 31 -6 3 -5 0 -9 -6
-9 -6 0 -8 -5 -4 -11 4 -8 9 -7 15 2 6 11 13 9 31 -7 13 -12 30 -25 38 -29 13
-8 13 -7 1 8 -12 15 -12 17 3 11 9 -3 16 -10 16 -15 0 -13 42 -49 52 -43 4 3
8 0 8 -6 0 -7 7 -10 14 -7 9 4 31 -9 53 -29 21 -19 57 -39 81 -45 23 -6 42
-15 42 -20 0 -4 16 -16 35 -25 19 -9 35 -20 35 -25 0 -5 7 -6 15 -3 8 4 15 1
15 -5 0 -6 9 -11 21 -11 15 0 19 4 15 16 -5 13 -2 15 14 11 11 -3 18 -1 14 4
-3 5 -2 15 2 21 26 41 -9 87 -101 133 -22 11 -49 27 -60 36 -21 18 -80 50
-127 70 -16 6 -28 15 -28 19 0 12 -121 84 -147 88 -35 4 -86 29 -113 54 -26
25 -245 138 -267 138 -7 0 -13 5 -13 10 0 6 -6 10 -14 10 -7 0 -18 6 -24 13
-6 7 -42 28 -79 47 -37 18 -75 39 -83 45 -8 7 -28 15 -43 19 -16 4 -39 18 -51
31 -13 14 -30 25 -37 25 -8 0 -32 12 -53 26 -51 35 -106 42 -127 17z"/>
<path d="M17140 9733 c-18 -13 -22 -13 -16 -2 4 8 -5 0 -20 -18 -25 -28 -28
-40 -31 -120 -1 -48 -2 -124 -2 -168 2 -301 -1 -426 -11 -445 -13 -24 -10
-341 3 -333 10 6 9 -5 -5 -30 -12 -23 -20 -117 -9 -117 3 0 7 -56 8 -125 1
-96 5 -128 17 -140 8 -8 19 -15 24 -15 6 0 12 -5 14 -12 6 -16 54 -2 64 19 8
17 12 309 17 1123 2 308 0 358 -14 377 -15 21 -17 22 -39 6z"/>
<path d="M19731 8295 c-18 -6 -49 -26 -68 -43 -19 -17 -40 -29 -47 -26 -7 3
-21 -4 -31 -16 -10 -11 -23 -20 -29 -20 -7 0 -18 -9 -26 -20 -8 -11 -22 -20
-32 -20 -10 0 -18 -4 -18 -10 0 -5 -3 -9 -7 -8 -15 3 -123 -53 -123 -63 0 -6
-7 -8 -15 -5 -9 3 -18 -1 -21 -9 -3 -8 -12 -11 -21 -8 -11 4 -14 2 -9 -5 4 -7
-3 -14 -19 -18 -14 -3 -25 -10 -25 -15 0 -5 -9 -9 -20 -9 -11 0 -23 -7 -26
-15 -4 -8 -15 -15 -25 -15 -10 0 -19 -4 -19 -10 0 -5 -7 -7 -15 -4 -10 4 -15
0 -15 -11 0 -9 -5 -13 -11 -10 -6 4 -16 -1 -24 -11 -7 -11 -17 -19 -22 -20
-17 -1 -63 -27 -63 -36 0 -4 -9 -8 -20 -8 -11 0 -20 -4 -20 -8 0 -9 -102 -59
-157 -77 -13 -4 -20 -11 -17 -16 3 -5 -4 -9 -15 -9 -12 0 -21 -3 -21 -8 0 -4
-15 -13 -32 -21 -18 -8 -43 -26 -55 -40 -14 -16 -22 -21 -23 -12 0 10 -8 7
-26 -10 -14 -13 -27 -23 -30 -22 -9 3 -44 -10 -44 -17 0 -4 -10 -10 -22 -14
-35 -9 -78 -48 -83 -75 -2 -13 1 -33 7 -45 7 -11 11 -24 11 -27 -1 -4 16 -7
38 -7 21 -1 37 3 34 8 -3 4 5 6 17 2 14 -3 19 -2 14 6 -5 8 1 12 18 12 13 0
31 6 38 13 7 7 21 16 31 20 9 3 17 11 17 17 0 5 11 10 24 10 14 0 32 7 40 16
9 8 21 14 28 12 6 -2 19 3 28 11 36 33 59 49 64 44 3 -3 8 2 12 11 3 9 10 16
16 16 18 0 98 41 98 50 0 6 5 10 11 10 6 0 25 10 42 23 18 12 38 23 46 25 7 1
20 9 28 17 8 8 21 15 29 15 8 0 14 7 14 15 0 8 8 15 18 15 27 0 72 23 72 38 0
6 8 12 18 12 14 0 15 -2 2 -10 -12 -8 -11 -10 6 -10 11 0 29 7 40 15 13 10 15
14 5 15 -8 0 -11 3 -8 6 4 4 13 2 20 -5 17 -14 43 11 31 30 -4 8 -3 9 4 5 7
-4 12 -2 12 3 0 6 9 11 20 11 11 0 20 5 20 10 0 6 7 10 15 10 8 0 15 4 15 8 0
4 35 28 78 52 42 23 85 50 96 59 10 9 19 14 20 12 2 -8 96 40 96 49 0 6 9 10
20 10 12 0 25 10 32 25 6 13 14 22 18 20 8 -5 50 59 50 75 0 15 -43 50 -59 49
-9 -1 -31 -7 -50 -14z"/>
<path d="M14660 13297 c-14 -7 -25 -17 -26 -22 0 -6 -4 -19 -8 -30 -14 -36
-15 -45 -7 -45 11 0 11 -129 0 -136 -5 -3 -6 -10 -3 -16 6 -9 12 -377 6 -383
-8 -8 -8 -155 1 -155 5 0 6 -11 2 -27 -10 -34 -9 -136 0 -180 4 -17 15 -40 26
-51 10 -11 16 -21 14 -23 -2 -2 17 -2 42 0 58 4 92 35 93 83 0 18 -1 149 -3
291 -2 142 0 260 4 263 5 2 4 16 -1 30 -9 23 -8 25 12 20 13 -3 17 -3 11 0 -7
3 -13 10 -13 15 0 18 25 8 44 -18 11 -14 14 -23 7 -18 -10 6 -11 2 -6 -16 10
-31 37 -68 50 -69 13 0 85 -85 85 -99 0 -5 8 -14 17 -20 10 -5 17 -22 18 -38
0 -20 5 -28 18 -27 9 1 14 -3 11 -8 -4 -5 13 -28 36 -50 29 -28 40 -46 37 -59
-3 -12 2 -23 14 -30 11 -5 18 -13 15 -17 -5 -9 48 -72 61 -72 5 0 13 -15 19
-32 5 -19 15 -32 22 -30 8 1 11 -2 7 -8 -3 -5 1 -13 9 -16 9 -3 16 -10 16 -16
0 -15 27 -38 59 -49 25 -9 36 -6 79 21 27 17 52 36 54 43 3 6 3 156 1 332 -5
521 -5 574 2 585 3 5 1 10 -5 10 -7 0 -10 6 -7 14 12 30 -59 64 -108 52 -37
-9 -62 -80 -61 -171 1 -44 4 -84 7 -90 9 -15 5 -218 -4 -232 -5 -7 -4 -13 1
-13 11 0 7 -114 -4 -132 -5 -7 -9 -16 -9 -20 0 -3 -4 -10 -9 -15 -5 -5 -6 -3
-2 5 4 7 1 12 -8 12 -8 0 -27 17 -43 38 -15 20 -37 47 -48 59 -11 12 -36 49
-55 84 -19 34 -45 73 -57 86 -13 13 -23 30 -23 38 0 8 -4 15 -9 15 -9 0 -161
204 -161 215 0 5 -17 27 -65 81 -25 29 -38 35 -75 37 -25 1 -47 5 -50 9 -3 4
-17 2 -30 -5z"/>
<path d="M12060 12534 c0 -11 -3 -24 -7 -28 -4 -3 -9 -14 -11 -24 -8 -33 -8
-367 0 -389 5 -15 3 -23 -3 -23 -7 0 -8 -7 -4 -17 12 -29 12 -356 0 -372 -8
-12 -7 -13 4 -6 11 6 13 4 7 -11 -9 -21 -8 -193 0 -265 3 -27 1 -56 -5 -68 -8
-14 -8 -21 -1 -21 5 0 10 -7 10 -16 0 -8 -4 -12 -10 -9 -5 3 -10 2 -10 -4 0
-5 4 -13 10 -16 5 -3 9 -50 9 -103 -2 -108 8 -184 24 -189 18 -7 58 -2 53 6
-4 5 0 11 6 13 10 4 12 73 10 319 -2 173 -4 346 -4 385 -1 38 2 83 6 98 4 15
3 25 -1 23 -4 -3 -9 92 -11 211 -2 184 -6 349 -11 464 -1 18 -8 29 -23 34 -13
4 -26 12 -30 18 -5 6 -8 3 -8 -10z"/>
<path d="M23437 8734 c-4 -4 -37 -8 -73 -10 -36 -1 -68 -5 -71 -8 -3 -3 -28
-9 -55 -12 -26 -4 -48 -10 -48 -15 0 -5 -11 -9 -25 -9 -14 0 -25 -4 -25 -9 0
-5 -9 -12 -19 -16 -11 -3 -34 -19 -51 -35 -17 -16 -33 -29 -35 -29 -3 -1 -9
-1 -15 -1 -5 0 -10 -5 -10 -10 0 -6 -9 -21 -21 -33 -28 -30 -72 -125 -66 -142
3 -7 -1 -16 -8 -19 -9 -3 -12 -12 -9 -21 4 -9 0 -23 -8 -33 -15 -17 -23 -93
-20 -187 3 -86 4 -94 18 -106 8 -7 12 -20 9 -30 -4 -11 -1 -19 5 -19 7 0 10
-7 6 -15 -3 -8 -1 -15 4 -15 6 0 10 -16 10 -35 0 -19 5 -35 10 -35 6 0 10 -9
10 -20 0 -11 5 -20 10 -20 5 0 9 -3 8 -7 -3 -11 35 -73 44 -73 4 0 8 -7 8 -15
0 -8 5 -15 11 -15 5 0 7 6 4 13 -4 6 1 3 9 -7 9 -11 14 -28 11 -37 -4 -13 3
-21 30 -30 19 -7 35 -17 35 -21 0 -5 6 -8 13 -7 12 2 30 -3 72 -21 87 -38 163
-45 273 -25 44 7 139 52 163 76 10 10 19 17 19 14 0 -3 18 13 40 35 22 22 40
49 40 61 0 11 4 18 10 14 11 -7 52 69 43 79 -4 3 -1 6 5 6 6 0 9 6 6 14 -3 8
-1 17 5 21 15 9 14 74 -1 89 -20 19 -49 28 -98 32 -38 3 -51 -1 -73 -22 -19
-18 -26 -32 -22 -45 4 -11 2 -19 -4 -19 -6 0 -11 -6 -11 -13 0 -7 -11 -23 -25
-35 -14 -12 -25 -30 -25 -41 0 -10 -7 -22 -16 -25 -22 -9 -26 -8 -18 6 4 7 3
8 -5 4 -6 -4 -9 -11 -6 -16 8 -12 -44 -28 -113 -33 -75 -6 -152 20 -172 58 -7
12 -24 28 -37 34 -14 7 -23 14 -20 17 3 4 -3 15 -13 26 -27 29 -63 149 -62
208 0 64 15 186 23 191 5 3 12 19 15 35 3 16 15 37 27 47 12 10 15 15 7 11
-13 -7 -13 -5 -1 9 7 9 17 14 22 11 5 -3 9 2 9 10 0 9 9 16 20 16 11 0 23 7
26 15 4 10 13 13 24 10 10 -3 21 -1 25 5 3 5 0 11 -7 11 -7 1 1 4 17 8 19 4
34 2 40 -5 7 -9 25 -10 58 -5 26 4 47 5 47 2 0 -5 57 -35 70 -36 13 -1 50 -41
50 -55 0 -9 9 -22 19 -30 11 -7 18 -17 15 -22 -3 -4 3 -11 12 -15 10 -3 26
-15 37 -26 14 -14 22 -16 30 -8 6 6 22 11 35 11 24 0 72 41 72 61 0 5 4 9 9 9
12 0 2 73 -11 81 -6 4 -12 17 -13 30 -1 13 -3 28 -4 33 0 4 -8 6 -16 2 -8 -3
-14 -1 -12 4 3 11 -91 99 -98 92 -3 -3 -5 -1 -5 5 0 9 -70 36 -86 33 -4 -1
-10 3 -14 10 -4 6 -22 12 -39 14 -18 1 -36 8 -40 14 -4 7 -10 9 -14 6z m-147
-1114 c0 -5 -5 -10 -11 -10 -5 0 -7 5 -4 10 3 6 8 10 11 10 2 0 4 -4 4 -10z"/>
<path d="M24168 8712 c-23 -2 -48 -13 -66 -30 l-28 -27 4 -200 c2 -110 4 -210
3 -222 0 -13 0 -30 0 -38 0 -21 1 -69 1 -250 0 -88 2 -185 4 -215 2 -30 4 -63
4 -73 1 -9 4 -15 8 -13 4 2 18 -4 31 -14 26 -18 48 -16 112 12 24 10 33 24 45
66 16 54 17 139 2 159 -5 7 -5 14 2 18 7 4 7 12 0 26 -6 11 -8 25 -4 31 4 7 3
8 -4 4 -7 -4 -12 -2 -12 3 0 6 4 11 9 11 13 0 11 92 -3 109 -8 11 -8 15 2 18
6 3 10 8 7 13 -3 4 4 10 15 13 11 3 18 2 16 -1 -2 -4 90 -7 205 -7 115 0 209
-4 209 -9 0 -4 6 -6 14 -3 21 8 23 -23 11 -156 -5 -64 -7 -117 -3 -117 6 0 4
-52 -3 -75 -2 -5 2 -20 9 -32 7 -12 13 -33 14 -47 1 -15 6 -26 11 -26 5 0 15
-6 23 -14 10 -10 29 -13 61 -10 50 4 83 26 83 56 0 10 5 18 11 18 7 0 10 14 7
35 -2 19 0 35 4 35 5 0 1 17 -7 38 -14 34 -14 35 1 17 15 -19 15 -18 9 15 -3
19 -7 91 -8 160 -1 69 -6 129 -12 133 -6 6 -6 10 3 14 6 2 9 9 6 15 -4 5 -8
33 -10 62 -2 28 -7 68 -9 89 -3 21 -2 36 2 34 5 -3 8 41 8 98 0 57 -3 101 -7
98 -5 -2 -8 5 -8 16 0 12 3 21 8 21 6 0 7 34 3 80 -4 36 -44 59 -111 62 -33 2
-50 -4 -50 -18 0 -10 -6 -14 -14 -11 -24 9 -29 -21 -32 -183 -1 -85 -3 -156
-4 -157 -2 -2 -3 -7 -4 -12 0 -5 -4 -12 -7 -15 -8 -8 -157 -15 -164 -7 -4 3
-28 7 -53 7 -26 1 -59 4 -74 6 -16 3 -28 2 -28 -1 0 -9 -127 -8 -136 1 -4 4 0
10 9 14 13 5 14 10 7 25 -6 10 -9 47 -7 81 2 35 0 92 -5 128 -5 36 -9 74 -10
85 -3 30 -56 61 -100 57z"/>
<path d="M25520 7919 c0 -5 -9 -9 -20 -9 -11 0 -20 -4 -20 -9 0 -5 -13 -12
-30 -16 -16 -4 -30 -11 -30 -17 0 -5 -5 -8 -11 -6 -12 4 -99 -77 -99 -92 0 -5
-4 -10 -10 -10 -5 0 -10 -9 -10 -20 0 -11 -5 -20 -11 -20 -5 0 -8 -3 -6 -7 3
-5 0 -19 -6 -33 -15 -36 -15 -69 1 -75 7 -3 10 -9 7 -15 -3 -5 3 -10 14 -10
12 0 21 -4 21 -9 0 -17 47 -17 89 1 32 13 41 21 33 31 -7 8 -6 16 4 25 11 10
14 10 14 0 0 -10 3 -9 9 1 5 8 7 19 5 25 -6 16 33 56 54 56 10 0 23 5 30 12 8
8 15 8 25 0 8 -7 17 -9 20 -5 4 3 7 -1 7 -10 0 -9 7 -17 15 -17 8 0 15 -4 15
-9 0 -5 15 -13 33 -16 31 -7 47 -20 47 -39 0 -4 -7 -6 -15 -2 -8 3 -15 1 -15
-4 0 -6 7 -10 15 -10 8 0 15 -4 15 -9 0 -12 -39 -59 -40 -47 0 4 -8 -2 -18
-15 -14 -16 -29 -22 -53 -21 -42 1 -109 -26 -109 -45 0 -7 -4 -13 -9 -13 -8 0
-8 -31 1 -74 3 -10 12 -24 21 -31 19 -14 23 -30 5 -19 -7 4 -8 3 -4 -5 6 -9
14 -8 33 5 25 16 28 15 92 -17 66 -34 93 -57 84 -71 -2 -5 6 -12 18 -16 15 -6
18 -11 11 -16 -17 -10 -15 -26 2 -20 20 8 15 -59 -6 -101 -20 -38 -54 -69 -67
-61 -5 4 -13 1 -16 -5 -4 -5 -13 -8 -20 -5 -8 3 -15 1 -17 -3 -4 -11 -108 10
-108 21 0 4 -7 8 -15 8 -8 0 -15 4 -15 9 0 5 -9 12 -19 16 -10 3 -22 13 -25
23 -26 70 -65 96 -121 81 -58 -16 -85 -49 -85 -104 0 -35 5 -51 23 -68 22 -21
38 -48 42 -72 4 -26 19 -44 46 -55 16 -7 29 -17 29 -22 0 -6 7 -8 15 -4 8 3
15 0 15 -6 0 -6 3 -9 6 -5 3 3 21 -3 40 -14 20 -11 34 -14 34 -8 0 8 4 8 13 1
15 -13 104 -19 114 -7 5 4 2 5 -6 0 -10 -6 -12 -4 -6 4 5 9 10 10 18 2 14 -14
30 -14 22 -1 -4 6 6 10 23 10 17 0 32 6 36 15 3 8 12 12 20 9 24 -9 93 35 78
50 -3 4 1 4 11 1 18 -8 30 2 67 54 20 29 21 34 6 28 -10 -4 -3 8 17 28 27 27
35 44 35 68 -1 17 3 62 9 99 5 37 6 65 1 62 -4 -3 -8 7 -8 22 0 15 -9 41 -20
59 -11 17 -18 41 -15 53 2 15 0 19 -11 15 -9 -3 -14 1 -14 12 0 13 -6 16 -21
12 -15 -4 -19 -2 -15 8 3 9 0 12 -10 8 -10 -3 -14 2 -14 18 1 28 22 59 40 59
7 0 10 7 6 16 -3 8 0 25 6 37 7 12 11 25 10 30 -1 4 2 7 8 7 11 0 9 69 -3 88
-5 6 -6 16 -3 20 3 5 -3 24 -13 43 -10 19 -19 38 -19 42 -1 17 -113 96 -128
90 -7 -3 -14 0 -14 6 0 6 -8 11 -18 11 -10 0 -22 4 -27 9 -13 13 -135 22 -135
10z"/>
<path d="M21643 7793 c-13 -2 -23 -9 -23 -15 0 -5 -7 -7 -15 -4 -17 6 -95 -24
-95 -36 0 -5 -7 -8 -16 -8 -8 0 -21 -6 -29 -12 -7 -7 -25 -22 -40 -33 -48 -35
-114 -106 -121 -128 -3 -12 -12 -29 -19 -37 -7 -8 -15 -24 -17 -35 -1 -11 -7
-23 -13 -27 -6 -5 -4 -8 5 -8 11 0 12 -2 3 -8 -7 -4 -15 -19 -17 -32 -2 -14
-5 -26 -7 -27 -1 -2 -2 -6 -3 -10 -1 -5 -4 -12 -8 -18 -3 -5 -5 -36 -4 -68 1
-32 -1 -60 -5 -63 -9 -5 0 -107 10 -114 4 -3 6 -22 5 -42 -1 -21 2 -38 6 -38
4 0 8 -11 8 -23 0 -13 7 -32 16 -43 9 -10 16 -23 15 -28 0 -5 3 -12 8 -15 5
-3 29 -35 53 -71 53 -79 65 -92 110 -110 19 -7 45 -21 57 -31 32 -24 94 -34
104 -17 7 10 9 10 9 -2 0 -11 10 -15 35 -15 19 1 32 -2 29 -7 -6 -9 77 -3 126
9 14 4 29 5 33 4 5 -1 29 6 55 15 26 9 54 17 63 18 9 1 24 10 33 19 10 9 23
17 29 18 12 0 81 82 107 127 8 15 21 32 28 40 6 7 12 25 12 39 0 15 3 23 7 19
9 -9 54 104 46 117 -4 6 -1 7 6 2 9 -5 12 -1 11 11 -1 11 -2 21 -1 24 2 6 13
120 13 135 0 6 -3 19 -8 29 -6 16 -4 18 10 13 13 -5 17 -3 13 5 -4 13 18 41
27 36 3 -2 13 4 23 12 19 16 72 38 111 47 13 3 21 11 19 17 -3 6 -10 10 -16 8
-7 -1 -10 2 -7 7 3 5 16 7 27 4 14 -4 25 0 31 11 5 9 16 16 24 16 8 0 32 11
54 25 22 14 44 25 49 25 5 0 12 7 15 16 4 9 9 14 13 11 3 -4 15 -1 27 5 11 7
24 11 29 10 4 -1 7 5 7 14 0 10 6 14 15 10 8 -3 15 0 15 7 0 8 4 6 10 -3 8
-12 10 -10 10 8 0 13 4 21 9 17 5 -3 12 -1 16 5 4 6 11 7 17 4 7 -5 9 -1 5 9
-4 11 -1 17 7 17 7 0 20 8 28 18 13 14 14 23 4 51 -16 49 -39 60 -77 39 -17
-10 -37 -18 -45 -18 -8 0 -14 -3 -14 -8 0 -8 -61 -38 -72 -34 -5 1 -8 -3 -8
-8 0 -6 -6 -10 -14 -10 -8 0 -27 -13 -43 -28 -15 -16 -33 -27 -39 -25 -5 2
-19 -5 -31 -16 -11 -11 -23 -18 -26 -15 -7 7 -44 -15 -85 -48 -18 -16 -39 -28
-46 -28 -7 0 -25 -9 -40 -21 -14 -11 -26 -18 -26 -14 0 4 -7 -1 -16 -10 -9 -9
-23 -14 -31 -11 -8 3 -19 6 -24 6 -5 0 -8 3 -8 8 4 23 -2 42 -12 37 -6 -4 -10
-1 -8 6 1 8 1 22 0 31 -1 24 -126 147 -162 160 -16 5 -29 14 -29 19 0 5 -5 9
-11 9 -6 0 -22 9 -36 19 -13 11 -30 18 -37 15 -7 -3 -43 2 -80 10 -64 15 -125
18 -173 9z m102 -203 c-3 -5 -1 -10 4 -10 6 0 11 5 11 10 0 6 10 4 23 -4 23
-16 24 -16 59 -16 12 0 18 -3 15 -7 -9 -9 52 -35 64 -27 5 3 9 -3 9 -14 0 -10
9 -27 20 -37 11 -10 23 -27 26 -39 7 -21 7 -21 15 -1 7 18 8 18 10 -5 1 -14 3
-29 4 -35 3 -11 5 -22 5 -30 1 -3 7 -22 14 -42 7 -23 10 -51 6 -70 -5 -20 -4
-33 2 -33 6 0 8 -6 5 -14 -3 -8 -1 -17 6 -20 9 -3 9 -7 -1 -14 -7 -5 -10 -16
-6 -25 3 -10 1 -17 -6 -17 -7 0 -9 -8 -5 -20 3 -11 2 -20 -3 -20 -5 0 -13 -16
-16 -35 -4 -19 -11 -35 -16 -35 -6 0 -10 -5 -10 -12 0 -6 -15 -30 -32 -54 -33
-43 -60 -60 -87 -55 -7 1 -10 -2 -7 -8 8 -12 -28 -24 -67 -23 -15 0 -25 -4
-22 -9 4 -5 -1 -9 -9 -9 -8 0 -18 5 -21 11 -4 6 -19 7 -35 4 -16 -4 -31 -2
-35 5 -4 6 -15 8 -26 5 -10 -4 -19 -2 -19 4 0 6 -11 13 -25 17 -21 5 -112 84
-97 84 3 0 -7 11 -22 25 -25 23 -32 38 -35 68 -1 5 -5 5 -11 2 -5 -3 -10 -1
-10 4 0 6 4 11 8 11 4 0 6 19 4 43 -9 102 -3 191 16 237 6 17 6 29 0 38 -8 9
-6 12 6 12 9 0 16 4 16 8 0 5 17 27 38 50 22 23 37 44 34 47 -3 3 5 5 17 5 12
0 24 6 27 13 2 7 16 14 31 15 14 1 32 7 39 13 8 6 26 8 44 4 19 -4 30 -3 30 4
0 6 5 11 11 11 5 0 7 -4 4 -10z"/>
<path d="M10040 6980 c-30 -16 -62 -35 -70 -42 -8 -7 -17 -12 -20 -11 -3 0 -4
-3 -3 -8 2 -5 -12 -6 -30 -4 -17 3 -27 3 -21 0 7 -3 10 -15 7 -25 -6 -21 -23
-28 -23 -9 0 6 -7 3 -16 -5 -8 -9 -20 -16 -25 -16 -5 0 -9 -7 -9 -16 0 -11 -6
-14 -21 -9 -13 5 -19 3 -15 -3 6 -10 -39 -26 -53 -18 -4 3 -14 -4 -22 -16 -13
-18 -42 -35 -63 -36 -5 0 -12 -4 -15 -9 -3 -5 -17 -14 -31 -21 -14 -6 -32 -16
-40 -21 -8 -6 -37 -22 -63 -37 -36 -20 -45 -29 -35 -36 10 -7 10 -8 -2 -7 -24
4 -101 -32 -93 -44 4 -6 -3 -8 -21 -3 -23 6 -29 3 -33 -14 -3 -11 -11 -19 -17
-17 -6 2 -17 -3 -24 -12 -8 -9 -10 -10 -7 -3 6 11 3 11 -13 1 -11 -7 -18 -19
-14 -27 4 -12 1 -12 -16 -3 -26 14 -54 14 -29 0 9 -5 17 -15 17 -20 0 -6 -5
-7 -10 -4 -6 3 -13 0 -16 -8 -3 -8 -15 -15 -27 -15 -42 -2 -62 -9 -63 -23 -3
-31 -5 -33 -13 -20 -7 11 -11 10 -20 -6 -6 -12 -25 -23 -46 -27 -19 -4 -35
-11 -35 -16 0 -6 -6 -10 -14 -10 -8 0 -16 -4 -18 -8 -8 -20 -106 -76 -133 -76
-16 -1 -29 -6 -28 -12 1 -6 -15 -19 -37 -29 -21 -10 -41 -23 -44 -30 -2 -7
-16 -15 -30 -19 -15 -4 -38 -16 -52 -29 -14 -12 -29 -23 -32 -23 -28 -6 -51
-18 -47 -24 7 -11 -42 -53 -54 -45 -10 5 -13 -1 -10 -21 0 -3 -6 -15 -13 -27
-8 -12 -12 -33 -11 -47 2 -14 4 -130 6 -257 1 -128 6 -233 10 -233 5 0 6 -19
2 -41 -5 -29 -4 -40 4 -35 6 4 9 2 6 -6 -11 -30 -12 -117 -1 -121 8 -3 8 -10
-1 -24 -6 -11 -10 -29 -9 -39 2 -11 -1 -27 -6 -36 -5 -10 -5 -18 0 -18 5 0 8
-30 9 -67 0 -74 3 -95 17 -105 6 -4 6 -12 0 -20 -6 -7 -10 -30 -8 -50 1 -21
-2 -35 -7 -32 -14 8 -11 -6 4 -21 10 -10 13 -65 12 -238 0 -124 3 -223 7 -221
11 7 10 -14 -2 -37 -7 -13 -7 -19 0 -19 6 0 9 -27 7 -70 -1 -39 -6 -70 -11
-70 -4 0 -6 -9 -3 -20 4 -15 0 -20 -13 -20 -11 0 -22 -5 -25 -11 -4 -6 -13 -8
-21 -5 -8 3 -27 -7 -42 -22 -16 -15 -44 -36 -63 -46 -19 -11 -48 -34 -66 -53
-20 -21 -34 -30 -38 -23 -5 7 -16 0 -32 -19 -14 -17 -31 -31 -37 -31 -6 0 -4
5 4 10 13 8 12 10 -2 10 -10 0 -18 -6 -18 -14 0 -8 -16 -17 -37 -21 -33 -6
-35 -9 -18 -16 18 -8 17 -8 -5 -7 -31 3 -53 -10 -44 -24 4 -7 2 -8 -4 -4 -7 4
-12 2 -12 -5 0 -6 -8 -9 -20 -6 -12 3 -17 1 -14 -5 3 -5 0 -9 -7 -7 -28 3 -37
-2 -33 -18 3 -12 -7 -25 -30 -40 -25 -16 -34 -18 -30 -8 4 8 12 15 20 15 8 0
14 5 14 11 0 6 -3 9 -7 7 -50 -24 -62 -33 -66 -50 -3 -11 -11 -18 -19 -17 -31
4 -47 -2 -42 -15 3 -8 1 -17 -5 -21 -6 -3 -11 2 -11 12 -1 17 -1 17 -14 1 -7
-10 -19 -18 -25 -18 -7 0 -9 -5 -6 -11 4 -6 -4 -9 -22 -7 -22 2 -28 -1 -26
-15 1 -14 -4 -17 -17 -14 -11 3 -21 -1 -24 -9 -3 -8 -12 -14 -20 -14 -7 0 -17
-7 -20 -16 -4 -9 -13 -14 -22 -10 -8 3 -12 2 -9 -4 6 -10 -7 -14 -33 -11 -7 1
-11 -4 -10 -11 2 -6 -3 -12 -10 -13 -8 0 -20 -9 -28 -20 -8 -11 -20 -20 -27
-21 -34 -3 -38 -5 -31 -15 4 -7 0 -9 -14 -5 -15 5 -22 2 -27 -14 -6 -20 -25
-28 -25 -10 0 6 -4 10 -10 10 -5 0 -10 -7 -10 -15 0 -8 -7 -15 -15 -15 -8 0
-15 -4 -15 -8 0 -15 -99 -74 -112 -66 -7 4 -10 4 -6 -1 7 -8 -33 -45 -49 -45
-4 0 -2 4 6 9 9 6 10 11 2 15 -6 4 -14 0 -17 -8 -3 -9 -15 -16 -26 -16 -17 0
-18 -3 -9 -14 8 -10 9 -16 1 -21 -5 -3 -10 -1 -10 5 0 8 -7 9 -17 5 -10 -4
-23 -8 -29 -8 -6 0 -11 -7 -10 -16 1 -11 -9 -17 -29 -19 -34 -3 -105 23 -105
39 0 5 -4 7 -10 4 -5 -3 -20 4 -32 16 -13 12 -48 33 -78 47 -30 14 -63 34 -72
44 -9 11 -31 23 -50 28 -18 5 -44 20 -58 33 -14 13 -45 31 -68 40 -24 10 -69
35 -101 55 -31 21 -78 48 -104 61 -26 13 -53 28 -60 35 -21 18 -56 36 -72 36
-8 0 -15 5 -15 10 0 6 -7 10 -15 10 -9 0 -18 6 -21 14 -3 8 -26 22 -52 31 -26
10 -65 30 -87 45 -91 63 -235 139 -250 134 -9 -4 -15 -18 -15 -38 0 -39 8 -51
40 -61 14 -4 33 -16 43 -26 10 -11 25 -19 33 -19 8 0 13 -4 10 -9 -3 -5 8 -14
24 -21 17 -7 30 -16 30 -20 0 -10 64 -36 93 -39 7 0 24 -11 37 -23 14 -13 25
-21 25 -20 0 8 55 -22 55 -30 0 -4 5 -8 11 -8 6 0 24 -14 41 -31 18 -18 37
-28 46 -24 8 3 25 -6 39 -22 14 -16 22 -21 17 -13 -4 8 9 2 29 -13 20 -15 41
-25 47 -22 5 3 15 -3 22 -15 7 -11 23 -20 35 -20 16 0 21 -4 17 -15 -5 -11 0
-14 17 -13 15 2 23 -2 22 -9 -2 -7 6 -13 16 -13 11 0 23 -5 27 -12 5 -7 3 -8
-6 -3 -9 5 -11 4 -6 -3 4 -7 13 -12 21 -12 7 0 15 -4 17 -8 4 -11 86 -52 104
-52 8 0 17 -7 20 -15 4 -8 15 -15 26 -15 10 0 16 -4 13 -10 -3 -5 -1 -10 5
-10 6 0 18 -7 26 -15 9 -8 13 -15 10 -15 -4 0 0 -15 8 -34 8 -19 12 -37 9 -39
-2 -3 1 -15 7 -27 9 -17 9 -21 0 -15 -8 5 -9 -23 -4 -112 3 -65 8 -120 9 -123
1 -3 -1 -29 -4 -57 -5 -33 -4 -54 3 -56 6 -2 11 -20 11 -40 1 -20 -2 -34 -7
-31 -4 3 -8 1 -8 -5 0 -5 5 -11 12 -13 14 -5 16 -47 8 -158 -4 -55 -2 -99 6
-126 7 -22 9 -47 4 -53 -4 -7 -3 -31 1 -52 5 -22 7 -51 5 -64 -3 -14 0 -27 5
-30 5 -4 9 -13 9 -21 0 -16 48 -63 65 -64 6 0 3 5 -5 10 -13 9 -13 10 0 11 8
1 20 1 27 0 9 -1 11 30 8 131 -2 73 -6 153 -9 178 -7 65 -17 228 -21 355 -2
61 -6 160 -9 221 l-5 112 25 5 c14 2 31 -2 39 -10 8 -8 19 -11 25 -8 5 3 10 2
10 -3 0 -13 42 -3 55 13 6 6 29 15 52 18 41 7 43 6 41 -17 -1 -14 -6 -22 -10
-20 -4 3 -8 0 -8 -5 0 -6 4 -11 9 -11 12 0 13 -10 15 -118 0 -45 4 -82 7 -82
3 0 4 -44 3 -97 -2 -54 2 -122 7 -151 7 -34 7 -63 1 -80 -7 -21 -6 -31 6 -41
10 -10 13 -27 9 -60 -3 -25 -2 -66 3 -91 5 -29 5 -47 -2 -51 -6 -4 -7 -13 -3
-20 5 -7 8 -32 6 -56 -1 -27 2 -43 10 -43 6 0 8 -7 5 -16 -8 -20 40 -64 69
-64 19 0 25 8 34 48 11 44 13 128 4 144 -2 4 -5 46 -8 95 -2 48 -7 120 -9 158
-3 39 -6 117 -6 174 0 61 -5 110 -11 118 -8 9 -8 17 0 26 6 8 8 17 4 21 -8 8
-9 17 -18 175 -3 69 -7 127 -7 130 -3 29 4 50 15 45 7 -2 22 5 34 16 12 11 25
20 28 20 4 0 13 7 21 15 9 8 24 15 35 15 11 0 27 7 35 15 8 8 21 12 29 8 9 -3
23 5 35 20 17 21 55 40 76 37 3 -1 14 8 24 20 10 11 22 20 26 19 16 -2 54 13
54 22 0 11 30 40 60 57 19 12 24 12 31 0 6 -8 9 -9 9 -1 0 6 20 24 45 40 25
15 45 31 45 35 0 3 14 5 30 4 17 -1 30 1 30 6 0 4 7 8 16 8 8 0 13 4 10 8 -9
15 12 35 38 35 16 0 31 7 37 18 5 10 13 18 17 17 22 -6 72 16 78 34 4 13 12
18 25 15 10 -3 17 -1 14 3 -3 5 -1 11 5 15 5 3 10 0 11 -7 0 -7 4 -3 9 9 6 15
15 20 29 16 13 -3 27 4 42 21 12 14 29 26 36 26 7 0 13 8 13 18 0 15 2 15 11
2 7 -11 12 -12 15 -3 3 7 12 9 20 6 9 -3 14 1 14 12 0 13 6 16 25 13 14 -3 25
-2 25 2 0 15 40 52 52 47 15 -5 80 27 72 36 -3 3 4 8 15 12 12 3 21 9 21 13 0
4 18 8 40 8 35 1 40 -1 40 -20 0 -16 13 -27 51 -46 28 -13 53 -30 56 -37 3 -7
16 -13 29 -13 13 0 24 -4 24 -10 0 -5 5 -10 12 -10 6 0 20 -8 31 -17 11 -10
17 -13 14 -6 -4 6 -3 14 3 18 5 3 10 0 10 -7 0 -8 14 -19 31 -25 21 -8 28 -16
23 -25 -5 -9 -2 -9 12 2 10 8 16 11 12 6 -3 -4 3 -17 14 -28 16 -16 22 -18 29
-7 7 11 9 9 9 -6 0 -15 13 -26 50 -40 34 -13 49 -24 45 -33 -3 -9 0 -12 9 -9
8 3 24 -3 36 -13 13 -11 26 -17 30 -15 4 3 10 -4 13 -14 5 -21 54 -34 79 -20
10 6 19 5 23 -1 3 -5 1 -10 -4 -10 -22 0 -10 -18 19 -30 16 -7 28 -16 25 -20
-3 -5 12 -14 32 -21 21 -6 42 -18 46 -25 4 -8 15 -14 23 -14 17 0 71 -28 92
-47 7 -7 18 -10 25 -8 7 3 27 -9 46 -25 18 -17 40 -30 48 -30 7 0 16 -7 20
-16 3 -8 12 -13 20 -10 7 3 16 -1 20 -9 3 -9 12 -13 23 -10 9 3 23 -1 30 -10
7 -8 16 -12 21 -9 5 3 9 1 9 -4 0 -5 9 -12 20 -15 13 -3 18 -10 14 -21 -4 -11
-1 -16 10 -16 9 0 16 5 16 10 0 6 4 10 9 10 5 0 8 -8 7 -17 0 -10 5 -17 12
-16 6 2 12 -1 12 -6 0 -9 48 -26 63 -23 4 1 7 -2 7 -7 0 -12 67 -51 86 -51 8
0 12 -4 9 -10 -4 -6 5 -10 19 -10 17 0 26 -6 26 -16 0 -8 5 -12 11 -9 6 4 19
-1 29 -11 43 -42 56 -49 104 -50 45 0 83 11 126 36 8 5 30 17 48 26 17 9 32
20 32 25 0 5 6 9 13 9 7 0 19 9 27 20 10 14 17 16 26 9 9 -8 11 -5 7 12 -5 17
-3 21 9 16 9 -3 25 3 36 13 11 10 39 24 63 31 51 14 71 27 63 40 -3 5 0 9 5 9
6 0 11 -5 11 -10 0 -6 17 1 38 14 20 13 36 30 36 39 -1 9 5 13 17 10 11 -3 19
0 19 6 0 6 7 11 15 11 8 0 25 11 38 24 18 18 28 21 40 14 22 -12 40 -1 33 19
-4 10 -2 13 8 10 8 -3 17 1 20 9 3 8 16 14 29 14 14 0 30 7 37 15 7 8 20 15
30 15 10 0 20 7 24 15 3 8 11 15 18 15 7 0 19 9 26 20 7 11 20 20 30 20 10 0
34 11 53 25 19 14 41 24 50 22 10 -3 22 5 30 19 7 13 16 24 21 24 5 0 6 5 2
11 -4 8 0 9 15 4 12 -3 21 -2 21 4 0 5 10 13 22 17 12 3 31 15 42 25 11 11 28
19 38 19 10 0 18 7 18 16 0 8 4 13 9 10 5 -3 11 0 14 8 3 7 26 18 51 25 25 6
46 16 46 21 0 5 16 12 35 16 20 3 42 15 49 26 10 14 15 16 19 6 4 -9 6 -7 6 5
1 10 9 17 20 17 10 0 24 7 31 15 7 8 19 15 26 15 8 0 14 4 14 9 0 5 9 13 20
16 11 4 18 10 16 14 -3 4 12 18 33 32 20 13 39 29 40 34 2 6 6 19 10 30 4 11
3 124 -1 250 -12 360 -16 491 -16 615 -1 63 -1 128 -2 143 -1 33 -25 97 -37
98 -4 0 -18 2 -29 4 -12 3 -28 -3 -37 -13 -19 -20 -41 -170 -37 -247 2 -27 3
-120 4 -206 1 -87 4 -155 9 -152 6 4 12 -71 9 -122 -4 -79 -4 -108 -2 -165 2
-36 0 -83 -4 -106 -7 -40 -44 -94 -64 -94 -6 0 -37 -18 -69 -40 -31 -22 -63
-38 -70 -36 -7 3 -13 -2 -13 -10 0 -10 -6 -14 -14 -11 -15 6 -46 -22 -46 -42
0 -6 -6 -11 -12 -10 -7 1 -20 1 -28 0 -13 -1 -13 -2 0 -12 12 -9 11 -10 -7 -6
-13 3 -23 1 -23 -3 0 -5 -16 -12 -35 -16 -19 -3 -35 -10 -35 -15 0 -5 -6 -9
-13 -9 -8 0 -24 -11 -37 -25 -13 -14 -48 -37 -77 -50 -29 -14 -53 -30 -53 -36
0 -6 -4 -8 -9 -4 -5 3 -21 0 -35 -6 -23 -11 -30 -20 -28 -40 1 -3 -13 -3 -30
-1 -24 4 -30 1 -26 -9 7 -19 -16 -41 -30 -27 -7 7 -17 3 -31 -11 -19 -19 -70
-45 -80 -41 -11 5 -18 -26 -8 -33 7 -4 -1 -5 -16 -1 -19 4 -27 3 -25 -6 2 -7
-10 -14 -26 -16 -16 -1 -32 -7 -35 -12 -3 -5 -16 -14 -29 -21 -12 -7 -20 -16
-17 -21 3 -4 -4 -6 -14 -3 -11 3 -27 -3 -38 -14 -11 -11 -25 -17 -31 -15 -7 2
-12 -1 -12 -7 0 -6 -6 -11 -14 -11 -8 0 -28 -11 -44 -25 -17 -14 -37 -25 -47
-25 -9 0 -14 -4 -11 -9 3 -5 -5 -12 -19 -15 -14 -4 -25 -13 -25 -21 0 -8 -5
-15 -11 -15 -5 0 -8 4 -5 9 4 5 -3 7 -14 4 -12 -3 -19 -8 -16 -10 13 -13 -60
-50 -86 -45 -5 1 -8 -3 -8 -8 0 -5 -3 -9 -7 -9 -23 4 -43 -2 -38 -10 3 -6 -10
-13 -30 -17 -19 -3 -35 -10 -35 -15 0 -4 -19 -2 -41 6 -23 8 -50 15 -60 15
-12 0 -16 5 -13 14 3 9 -6 19 -25 27 -17 8 -31 17 -31 21 0 3 -14 9 -30 13
-18 4 -27 11 -24 17 4 6 2 8 -3 5 -10 -6 -95 48 -101 65 -2 4 -12 8 -23 8 -10
0 -19 4 -19 10 0 10 -47 26 -67 22 -7 -2 -13 1 -13 7 0 15 -108 73 -121 65 -7
-4 -9 -3 -6 3 9 14 -15 34 -42 36 -11 1 -22 6 -25 12 -2 5 -25 25 -52 44 -26
19 -44 29 -40 23 12 -20 -9 -14 -29 8 -10 11 -24 20 -32 20 -7 0 -13 5 -13 10
0 6 -7 10 -15 10 -23 0 -97 40 -116 61 -9 11 -21 19 -26 19 -6 0 -16 7 -23 15
-7 9 -19 14 -27 11 -7 -3 -13 1 -13 9 0 8 -7 16 -15 16 -8 1 -18 2 -22 4 -62
17 -64 18 -57 38 5 15 3 19 -9 14 -9 -3 -29 7 -48 24 -21 19 -41 28 -52 25
-11 -2 -16 -2 -13 1 7 8 -20 33 -36 33 -7 0 -24 8 -37 17 -14 9 -21 11 -17 5
4 -7 3 -12 -2 -12 -5 0 -12 9 -15 21 -3 12 -10 18 -16 15 -5 -4 -15 2 -21 13
-6 12 -18 18 -29 16 -11 -2 -22 3 -25 12 -5 13 -9 13 -23 2 -15 -12 -16 -12
-10 3 7 19 -19 39 -41 31 -7 -3 -11 1 -10 8 2 8 -7 15 -19 17 -21 3 -28 13
-24 36 1 4 -3 13 -8 20 -5 6 -8 51 -7 99 2 48 1 89 -2 91 -2 3 -5 67 -7 143
-1 76 -5 145 -8 153 -4 8 -5 41 -4 73 1 31 -2 59 -8 61 -6 3 -4 9 4 14 10 7
12 22 6 58 -10 67 -12 124 -19 402 -3 134 -8 248 -11 252 -12 19 -13 335 -1
349 8 12 8 13 -2 7 -9 -5 -12 1 -10 24 1 18 9 35 18 37 8 3 25 17 38 32 17 20
24 23 31 13 7 -11 9 -11 14 1 3 8 22 20 41 27 20 6 36 18 36 25 0 9 6 12 15 9
8 -4 15 -1 15 6 0 7 7 10 15 7 14 -6 30 8 30 28 0 6 12 10 27 9 15 0 25 4 22
8 -3 4 2 8 10 8 9 0 16 5 16 10 0 6 11 15 25 22 13 6 22 14 19 19 -2 4 13 6
33 4 31 -4 33 -3 13 4 -24 8 -23 8 10 12 22 3 34 9 32 17 -1 8 2 11 7 8 5 -3
14 0 20 8 7 8 23 17 36 20 13 3 27 15 30 26 5 16 12 19 33 14 15 -4 24 -3 20
1 -12 12 18 35 41 30 12 -2 21 0 21 6 0 5 6 9 14 9 7 0 19 7 26 15 7 9 19 14
27 11 7 -3 13 -1 13 4 0 6 4 10 10 10 16 0 50 33 51 50 0 10 2 11 6 3 2 -7 9
-13 15 -13 6 0 8 7 4 15 -4 10 6 17 32 25 20 5 47 21 59 34 16 16 30 22 48 18
21 -3 25 0 25 18 0 16 4 20 19 15 24 -7 53 4 48 20 -3 7 5 12 24 12 17 0 39
10 55 26 17 17 22 27 13 27 -11 0 -11 2 1 10 8 5 23 7 34 4 13 -4 16 -2 11 6
-11 17 14 30 46 23 21 -4 28 -1 34 16 3 11 9 20 13 20 4 -1 10 0 15 1 4 1 10
3 15 4 22 5 92 53 92 64 0 7 5 10 10 7 11 -7 70 15 70 26 0 4 11 9 25 11 13 3
22 1 19 -3 -3 -5 -1 -9 5 -9 5 0 13 5 16 10 3 6 11 10 17 10 7 0 6 -6 -2 -15
-12 -15 0 -22 14 -8 16 16 37 10 52 -16 14 -23 100 -74 129 -75 6 -1 20 -12
33 -26 13 -14 20 -18 16 -10 -5 12 -4 12 6 3 7 -6 19 -9 28 -6 10 4 13 2 8 -5
-9 -15 12 -36 39 -40 11 -2 29 -12 41 -23 11 -10 30 -19 42 -19 14 0 22 -6 22
-17 0 -9 3 -13 7 -10 3 4 12 2 19 -4 8 -6 21 -9 29 -5 9 3 18 -1 21 -9 4 -8
17 -15 31 -15 21 0 23 -3 14 -14 -10 -12 -7 -18 19 -31 17 -9 35 -13 40 -10 6
3 10 1 10 -4 0 -6 9 -11 19 -11 11 0 33 -14 50 -31 17 -17 36 -27 42 -24 5 4
18 0 27 -8 10 -9 38 -25 62 -36 25 -11 41 -21 35 -21 -5 -1 14 -12 44 -25 29
-14 57 -22 62 -19 5 3 9 0 9 -5 0 -11 61 -8 80 4 33 20 -18 125 -61 125 -10 0
-19 6 -19 14 0 7 -13 19 -30 26 -16 7 -35 18 -41 26 -6 8 -20 14 -30 14 -11 0
-19 4 -19 9 0 5 -12 12 -27 16 -15 3 -39 15 -55 26 -15 11 -32 17 -38 14 -5
-3 -10 -3 -10 2 0 12 -111 81 -143 89 -16 3 -40 17 -54 30 -14 13 -34 24 -43
24 -21 0 -72 39 -65 50 2 4 -13 10 -35 14 -21 3 -43 12 -47 19 -4 7 -23 19
-40 26 -18 8 -33 17 -33 22 0 5 -12 9 -26 9 -14 0 -23 4 -19 10 4 6 -7 10 -25
10 -18 0 -33 6 -36 15 -4 8 -12 15 -19 15 -7 0 -15 5 -17 11 -2 5 -10 11 -18
12 -22 3 -90 47 -90 58 0 19 -77 7 -130 -21z m517 -346 c-3 -3 -12 -4 -19 -1
-8 3 -5 6 6 6 11 1 17 -2 13 -5z m-2132 -2524 c-3 -5 -12 -10 -18 -10 -7 0 -6
4 3 10 19 12 23 12 15 0z m-55 -30 c0 -5 -7 -10 -16 -10 -8 0 -12 5 -9 10 3 6
10 10 16 10 5 0 9 -4 9 -10z m3250 -34 c0 -2 -7 -9 -15 -16 -13 -11 -14 -10
-9 4 5 14 24 23 24 12z m-485 -286 c3 -5 2 -10 -4 -10 -5 0 -13 5 -16 10 -3 6
-2 10 4 10 5 0 13 -4 16 -10z m-851 -484 c-3 -8 -13 -12 -27 -8 -20 5 -20 6
-1 13 29 11 34 10 28 -5z m-3389 -56 c3 -5 1 -10 -4 -10 -6 0 -11 5 -11 10 0
6 2 10 4 10 3 0 8 -4 11 -10z m275 -473 c0 -5 -4 -5 -10 -2 -5 3 -10 14 -10
23 0 15 2 15 10 2 5 -8 10 -19 10 -23z m-336 -402 c-4 -8 -8 -15 -10 -15 -2 0
-4 7 -4 15 0 8 4 15 10 15 5 0 7 -7 4 -15z"/>
<path d="M14703 6833 c-35 -8 -63 -18 -63 -22 0 -5 -15 -14 -32 -22 -18 -7
-43 -23 -55 -36 -12 -13 -26 -23 -31 -23 -5 0 -15 -11 -22 -25 -7 -13 -21 -27
-32 -31 -10 -3 -18 -12 -18 -20 0 -8 -9 -23 -20 -34 -11 -11 -20 -27 -20 -35
0 -8 -4 -15 -8 -15 -8 0 -33 -77 -38 -116 -1 -13 -5 -28 -10 -35 -4 -7 -8 -59
-10 -117 -2 -73 -7 -108 -16 -113 -10 -7 -10 -9 0 -9 6 0 12 -8 12 -18 0 -10
3 -22 7 -26 4 -3 8 -13 9 -20 3 -22 73 -157 106 -206 16 -25 51 -61 76 -80 26
-19 53 -41 60 -47 7 -7 22 -13 33 -13 10 0 19 -4 19 -10 0 -5 7 -10 15 -10 8
0 15 -4 15 -8 0 -12 110 -31 116 -20 3 4 13 4 22 -1 37 -19 93 -21 150 -7 79
21 154 55 170 78 7 10 21 18 30 18 10 0 31 16 47 35 17 20 40 45 53 57 12 12
22 28 22 35 0 7 5 13 11 13 5 0 8 4 5 9 -5 8 3 34 39 116 35 82 44 131 41 243
-2 63 -7 117 -12 120 -5 4 -10 20 -12 36 -2 17 -12 42 -22 57 -11 14 -17 29
-14 32 3 3 -8 26 -25 51 -17 24 -31 47 -31 51 0 17 -155 135 -178 135 -4 0
-17 8 -28 18 -28 24 -34 25 -174 27 -77 1 -149 -4 -187 -12z m242 -203 c62
-19 105 -41 99 -51 -3 -5 4 -9 15 -9 11 0 32 -15 47 -35 14 -19 31 -32 37 -28
6 4 7 1 1 -8 -13 -21 -11 -42 6 -63 12 -14 15 -50 16 -172 1 -84 -3 -151 -7
-148 -9 5 -35 -31 -41 -55 -2 -8 -14 -26 -28 -39 -14 -14 -24 -28 -22 -33 1
-5 -7 -9 -17 -9 -11 0 -23 -5 -26 -10 -4 -6 -10 -8 -15 -5 -4 3 -10 -2 -13
-10 -3 -7 -25 -19 -49 -26 -56 -16 -180 -21 -171 -6 4 6 -2 8 -15 5 -12 -4
-22 -2 -22 3 0 5 -7 9 -16 9 -17 0 -127 107 -129 125 -3 23 -18 44 -28 38 -6
-3 -7 -1 -3 6 4 7 4 20 0 29 -4 9 -8 60 -10 112 -4 97 11 179 44 245 8 17 18
37 22 45 3 8 25 24 47 35 22 11 47 26 56 33 21 18 149 50 167 41 8 -3 33 -12
55 -19z"/>
<path d="M9165 6490 c-3 -5 -1 -10 4 -10 6 0 11 5 11 10 0 6 -2 10 -4 10 -3 0
-8 -4 -11 -10z"/>
<path d="M2930 4770 c-16 -16 -18 -32 -14 -157 3 -76 6 -185 8 -243 1 -58 5
-111 9 -117 4 -6 10 -102 13 -214 4 -136 10 -206 18 -211 6 -4 7 -8 2 -8 -5 0
1 -9 14 -20 26 -22 53 -19 84 10 19 19 22 55 12 140 -11 89 -14 260 -5 260 5
0 9 6 9 14 0 29 41 37 185 34 50 -1 124 -2 165 -2 46 -1 80 -6 88 -14 8 -7 17
-10 22 -7 21 13 39 -123 44 -325 3 -120 48 -172 104 -120 12 12 22 33 23 48 2
50 -3 177 -7 184 -2 3 -6 66 -9 140 -2 73 -7 158 -9 188 -3 30 -8 102 -11 160
-4 88 -15 200 -20 220 -9 32 -20 40 -55 40 -52 0 -64 -31 -56 -142 17 -227 17
-238 -2 -239 -9 0 -26 -3 -37 -5 -38 -8 -385 -4 -409 6 -39 14 -47 41 -56 183
-5 92 -13 143 -26 170 -10 20 -20 37 -23 38 -3 0 -14 2 -24 4 -10 2 -27 -5
-37 -15z"/>
<path d="M4897 4752 c-16 -17 -16 -32 -7 -168 6 -82 9 -195 7 -251 -2 -57 -1
-103 3 -103 3 0 6 -17 7 -37 7 -292 14 -389 29 -400 8 -6 15 -15 15 -20 -2
-20 47 -23 80 -5 l34 19 -3 107 c-1 60 -4 111 -7 115 -2 4 -7 95 -11 202 -3
107 -9 198 -12 203 -3 5 0 6 5 3 6 -4 14 0 17 9 4 9 2 13 -5 8 -7 -4 -10 -1
-7 6 6 20 28 24 28 6 0 -9 14 -29 30 -44 17 -16 30 -34 30 -40 0 -5 7 -13 16
-16 8 -3 13 -10 9 -15 -3 -6 15 -32 40 -58 24 -26 45 -54 45 -61 0 -7 7 -15
15 -18 8 -4 15 -10 15 -15 0 -4 14 -28 30 -52 17 -25 30 -48 30 -51 0 -3 7
-14 15 -23 61 -71 86 -104 110 -148 16 -27 32 -52 35 -55 3 -3 20 -25 38 -50
18 -25 36 -45 40 -46 4 0 14 -3 22 -7 8 -3 24 -5 35 -3 23 2 74 26 76 35 6 29
9 65 8 116 0 80 -2 95 -10 95 -4 0 -7 35 -7 78 0 42 -5 138 -11 212 -6 74 -10
178 -9 232 2 53 0 94 -3 92 -3 -2 -7 20 -8 48 -2 79 -18 103 -67 104 -23 1
-47 -2 -54 -6 -10 -6 -14 -54 -14 -195 -1 -103 2 -189 7 -192 5 -3 7 -20 5
-38 -1 -19 0 -36 3 -39 3 -4 4 -48 3 -99 -3 -90 -3 -92 -26 -89 -13 2 -24 7
-26 12 -2 4 -20 26 -41 48 -20 23 -44 54 -52 69 -8 15 -26 42 -41 58 -16 17
-28 33 -28 37 0 4 -11 18 -24 31 -13 13 -31 37 -40 53 -9 16 -30 47 -47 69
-16 22 -42 58 -56 80 -15 22 -39 54 -54 70 -14 17 -43 54 -63 84 -20 29 -36
50 -36 46 0 -4 -6 -3 -12 2 -25 18 -83 15 -101 -5z"/>
<path d="M4216 3970 c-21 -4 -43 -15 -48 -24 -5 -9 -15 -16 -22 -16 -23 0 -84
-68 -97 -108 -6 -20 -16 -42 -21 -49 -16 -20 1 -69 28 -82 52 -23 75 -10 107
61 17 36 94 91 127 89 96 -6 158 -39 189 -101 19 -38 22 -56 17 -87 -4 -21 -8
-47 -9 -57 -2 -24 -49 -78 -155 -179 -13 -12 -30 -34 -38 -49 -8 -16 -18 -28
-22 -28 -5 0 -24 -15 -44 -32 -19 -18 -49 -44 -67 -57 -17 -13 -31 -28 -31
-33 0 -5 -11 -24 -25 -42 -32 -43 -57 -115 -50 -145 12 -46 31 -55 134 -59
124 -4 212 -3 234 4 9 3 17 1 17 -5 0 -12 52 -15 63 -4 4 3 34 7 66 9 86 3
129 30 110 67 -6 10 -8 25 -5 32 11 28 -18 33 -229 36 -127 2 -185 15 -185 40
0 6 4 7 10 4 5 -3 7 0 4 8 -3 8 16 31 46 58 49 42 155 145 204 200 13 14 27
35 30 47 4 12 11 22 16 22 11 0 49 117 51 155 3 86 -27 175 -75 226 -14 15
-22 30 -18 35 4 4 -1 4 -10 1 -10 -4 -18 -2 -18 4 0 5 -25 22 -56 36 -59 27
-152 36 -228 23z"/>
<path d="M7090 3190 c-8 -5 -10 -10 -5 -10 6 0 17 5 25 10 8 5 11 10 5 10 -5
0 -17 -5 -25 -10z"/>
<path d="M6899 2027 c-20 -7 -42 -17 -50 -23 -28 -22 -43 -28 -34 -14 6 10 4
12 -9 7 -10 -4 -19 -7 -22 -7 -2 0 0 -7 3 -17 4 -11 3 -14 -5 -9 -7 4 -22 -5
-37 -21 -19 -22 -27 -25 -33 -15 -7 10 -13 4 -25 -20 -9 -19 -27 -40 -41 -48
-14 -7 -23 -16 -21 -21 3 -4 -2 -15 -11 -23 -9 -9 -13 -23 -10 -32 3 -8 -1
-17 -9 -20 -9 -4 -15 -19 -15 -40 0 -19 -4 -34 -8 -34 -11 0 -11 -3 -18 -132
-3 -69 -1 -108 5 -113 6 -3 11 -15 11 -25 0 -10 6 -21 13 -23 10 -4 10 -6 0
-6 -7 -1 -13 -6 -13 -12 0 -6 6 -9 14 -6 15 6 16 -9 3 -30 -5 -8 -4 -13 2 -13
6 0 11 -7 11 -15 0 -9 6 -18 14 -21 9 -4 13 -15 10 -31 -4 -20 -1 -24 11 -20
9 4 15 1 15 -9 0 -8 -5 -12 -11 -9 -6 4 -5 -2 2 -14 9 -13 16 -16 20 -9 4 7
11 3 18 -10 10 -19 9 -21 -6 -15 -12 5 -11 1 5 -15 12 -12 25 -22 28 -22 8 0
84 -80 84 -90 0 -4 9 -10 20 -13 11 -3 20 -11 20 -19 0 -14 105 -42 121 -32 5
3 9 -2 9 -10 0 -18 9 -20 44 -6 20 7 24 6 20 -5 -6 -15 54 -32 80 -22 8 3 17
1 20 -6 3 -9 5 -9 5 1 1 6 9 12 19 12 10 0 28 10 40 23 16 17 30 22 51 19 20
-3 35 2 50 17 12 12 28 21 36 21 8 0 15 7 15 16 0 9 9 18 20 21 11 3 20 10 20
15 0 5 7 16 15 24 8 9 15 13 15 10 0 -2 14 9 31 26 16 17 28 37 25 44 -3 7 0
14 5 16 6 2 12 12 14 23 2 11 4 20 5 20 2 0 8 21 25 95 22 94 6 291 -28 355
-6 11 -12 22 -13 25 -9 35 -28 69 -35 64 -5 -3 -9 1 -9 9 0 8 -8 23 -17 35
-10 11 -30 36 -44 54 -14 18 -47 44 -73 57 -25 13 -46 27 -46 31 0 10 -67 41
-95 44 -12 2 -26 6 -32 9 -21 13 -188 16 -224 4z m106 -177 c4 -6 28 -9 55 -7
27 1 47 0 44 -4 -2 -4 13 -15 34 -24 20 -10 39 -21 42 -24 3 -4 16 -11 30 -17
23 -11 50 -51 64 -98 4 -11 12 -16 21 -12 12 4 13 2 3 -14 -11 -16 -8 -24 17
-52 17 -18 22 -27 13 -20 -14 11 -16 11 -12 -5 8 -34 9 -231 1 -226 -9 5 -32
-54 -31 -80 1 -14 -1 -15 -14 -5 -13 11 -15 10 -10 -9 4 -14 2 -22 -6 -20 -6
1 -10 -6 -8 -15 2 -11 -3 -18 -13 -18 -8 0 -14 -5 -13 -12 2 -7 -1 -12 -7 -13
-5 0 -15 -4 -22 -8 -7 -4 -29 -7 -50 -7 -21 1 -67 0 -103 -3 -46 -3 -71 0 -87
11 -13 8 -23 10 -23 6 0 -5 -5 -1 -11 9 -6 9 -14 15 -20 12 -5 -4 -9 -2 -9 3
0 12 -35 52 -45 52 -18 0 -53 52 -75 111 -20 52 -24 83 -24 169 0 58 3 116 6
130 4 14 7 35 7 48 1 13 5 20 11 17 6 -3 10 0 10 8 0 16 56 68 64 60 3 -4 6
-1 6 5 0 7 7 12 15 12 8 0 15 5 15 10 0 6 9 10 20 10 11 0 20 5 20 11 0 6 9 9
20 6 11 -3 23 -1 26 4 7 12 31 11 39 -1z m322 -226 c-3 -3 -12 -4 -19 -1 -8 3
-5 6 6 6 11 1 17 -2 13 -5z m-10 -336 c-3 -8 -6 -5 -6 6 -1 11 2 17 5 13 3 -3
4 -12 1 -19z"/>
</g>
</svg>
